<svg width="139" height="140" viewBox="0 0 139 140" fill="none" xmlns="http://www.w3.org/2000/svg">
<path d="M131.483 30.5846C131.91 28.7538 132.124 26.8154 132.124 24.8769C132.124 11.2 121.122 0 107.451 0C97.9445 0 89.3997 5.49231 85.341 13.8923C82.5639 12.1692 79.3596 11.3077 76.0485 11.3077C74.3395 11.3077 72.6306 11.5231 71.0285 12.0615L70.2808 11.7385C66.4356 10.0154 62.3769 9.04615 58.1045 9.04615C46.9963 9.04615 36.9562 15.4 32.0429 25.5231C30.334 25.0923 28.625 24.8769 26.8092 24.8769C14.4193 24.8769 4.3792 35 4.3792 47.4923C4.3792 50.5077 5.02005 53.5231 6.19496 56.3231C2.34981 59.6615 0 64.7231 0 70C0 79.3692 7.04944 87.0154 16.2351 87.9846C18.2645 95.8462 25.4207 101.662 33.6451 101.662C36.6357 101.662 39.5196 100.908 42.083 99.5077C40.9081 112 37.597 124.277 32.1497 135.477H17.944V140H94.0993V135.477H79.7868C74.3395 124.169 71.0285 111.892 69.8535 99.5077C72.417 100.908 75.3008 101.662 78.2915 101.662C86.5159 101.662 93.6721 95.9538 95.5947 87.9846C104.674 87.1231 111.83 79.3692 111.83 70C111.83 67.6308 111.296 65.3692 110.441 63.2154H120.802C130.628 63.2154 138.746 55.1385 138.746 45.1231C138.853 39.4154 136.076 33.9231 131.483 30.5846ZM107.451 70C107.451 77.4308 101.469 83.5692 94.0993 83.5692H91.8563L91.5359 85.5077C90.5746 92.0769 84.9137 97.1385 78.2915 97.1385C74.9804 97.1385 71.8829 95.9538 69.4263 93.8C69.4263 92.5077 69.3195 91.2154 69.3195 90.0308V70H64.8335V89.9231C64.8335 105.538 68.2514 121.262 74.7668 135.477H37.063C43.5784 121.262 46.9963 105.538 46.9963 89.9231V70H42.5103V89.9231C42.5103 91.2154 42.4035 92.5077 42.4035 93.6923C39.9468 95.8462 36.8493 97.0308 33.5382 97.0308C26.916 97.0308 21.1483 92.0769 20.2938 85.4L19.8666 83.4615H17.944C10.5742 83.4615 4.48601 77.4308 4.48601 69.8923C4.48601 65.3692 6.72901 61.2769 10.3605 58.6923L11.9627 57.5077L11.0014 55.6769C9.61287 53.0923 8.8652 50.1846 8.8652 47.1692C8.8652 37.2615 16.8759 29.0769 26.8092 29.0769C28.7318 29.0769 30.6544 29.4 32.577 30.0462L34.6063 30.6923L35.354 28.7538C39.1992 19.3846 48.0644 13.2462 58.2113 13.2462C60.7747 13.2462 63.2313 13.6769 65.688 14.4308C61.736 17.3385 58.959 21.7538 58.4249 26.9231C49.5597 28 42.6171 35.6462 42.6171 44.9077C42.6171 54.8154 50.6278 63 60.5611 63H105.742C106.81 65.2615 107.451 67.6308 107.451 70ZM120.909 58.6923H60.4543C53.0844 58.6923 46.9963 52.6615 46.9963 45.1231C46.9963 37.5846 52.9776 31.5538 60.4543 31.5538H62.6973V29.2923C62.6973 21.8615 68.6786 15.7231 76.1553 15.7231C79.3596 15.7231 82.4571 16.9077 84.9137 19.0615L87.3703 21.2154L88.4384 18.0923C91.2155 9.90769 98.9058 4.52308 107.451 4.52308C118.559 4.52308 127.638 13.6769 127.638 24.8769C127.638 26.9231 127.317 28.9692 126.783 30.9077L126.249 32.6308L127.744 33.4923C131.803 35.9692 134.367 40.3846 134.367 45.1231C134.367 52.6615 128.385 58.6923 120.909 58.6923ZM80.6413 24.8769H82.8843V29.4H80.6413C76.903 29.4 73.9123 32.4154 73.9123 36.1846C73.9123 39.9538 76.903 42.9692 80.6413 42.9692H82.8843V47.3846H80.6413C74.4464 47.3846 69.4263 42.3231 69.4263 36.0769C69.4263 29.8308 74.4464 24.8769 80.6413 24.8769ZM94.0993 24.8769C89.1861 24.8769 85.1273 29.9385 85.1273 36.1846C85.1273 42.4308 89.0793 47.3846 94.0993 47.3846C99.1194 47.3846 103.071 42.3231 103.071 36.0769C103.071 29.8308 99.0126 24.8769 94.0993 24.8769ZM94.0993 42.8615C91.6427 42.8615 89.6133 39.7385 89.6133 36.0769C89.6133 32.4154 91.6427 29.2923 94.0993 29.2923C96.556 29.2923 98.5854 32.4154 98.5854 36.0769C98.5854 39.7385 96.4492 42.8615 94.0993 42.8615ZM118.238 46.0923L113.432 49.7538H120.909V54.2769H107.451V48.6769L115.461 42.5385C115.995 42.1077 116.316 41.4615 116.316 40.7077C116.316 39.4154 115.354 38.4462 114.073 38.4462C112.791 38.4462 111.83 39.4154 111.83 40.7077V42.9692H107.344V40.7077C107.344 36.9385 110.334 33.9231 114.073 33.9231C117.811 33.9231 120.802 36.9385 120.802 40.7077C120.909 42.7538 119.947 44.8 118.238 46.0923ZM123.152 24.8769H118.666C118.666 18.6308 113.646 13.5692 107.451 13.5692V9.04615C116.102 9.04615 123.152 16.1538 123.152 24.8769ZM13.458 135.477V140H8.97201V135.477H13.458ZM103.071 140H98.5854V135.477H103.071V140ZM29.159 79.0462H33.6451V83.5692H29.159V79.0462ZM87.3703 74.5231H82.8843V70H87.3703V74.5231ZM22.43 47.3846H26.916V51.9077H22.43V47.3846Z" fill="url(#paint0_linear)"/>
<defs>
<linearGradient id="paint0_linear" x1="69.4263" y1="140" x2="69.4263" y2="0" gradientUnits="userSpaceOnUse">
<stop stop-color="#2A9274"/>
<stop offset="1" stop-color="#7E6EAD"/>
</linearGradient>
</defs>
</svg>
