<svg xmlns="http://www.w3.org/2000/svg" width="44" height="58" viewBox="0 0 44 58">
    <g fill="none" fill-rule="evenodd">
        <g fill="#002554">
            <g>
                <g>
                    <path d="M8.844 40.932h3.23v-7.678h-3.23v7.678zm4.39-9.998h-5.55c-.641 0-1.16.519-1.16 1.16v9.998c0 .641.519 1.16 1.16 1.16h5.55c.64 0 1.16-.519 1.16-1.16v-9.998c0-.641-.52-1.16-1.16-1.16zm6.709 9.998h3.23V25.16h-3.23v15.772zm-1.16 2.32h5.55c.641 0 1.16-.519 1.16-1.16V24c0-.641-.519-1.16-1.16-1.16h-5.55c-.641 0-1.16.519-1.16 1.16v18.092c0 .641.519 1.16 1.16 1.16zm12.26-2.32h3.229V17.067h-3.23v23.865zm-1.16 2.32h5.549c.641 0 1.16-.519 1.16-1.16V15.907c0-.641-.519-1.16-1.16-1.16h-5.55c-.641 0-1.16.519-1.16 1.16v26.185c0 .641.519 1.16 1.16 1.16zM40.795 55.68H2.32V17.211h13.732c.641 0 1.16-.519 1.16-1.16V2.321h23.584v53.36zM14.892 3.96v10.93H3.961l1.955-1.955 8.976-8.975zM41.956 0H16.05l-.03.001-.055.003c-.041.003-.082.008-.122.016l-.026.004c-.047.01-.092.023-.137.038l-.035.013c-.098.036-.19.085-.274.146l-.016.012c-.044.033-.086.068-.126.107L.34 15.23c-.037.037-.07.077-.1.118l-.024.03c-.029.042-.056.084-.08.128l-.003.007c-.023.043-.041.086-.058.13l-.013.038c-.016.046-.03.094-.04.142v.008c-.01.046-.015.093-.018.14l-.002.043-.002.037V56.84C0 57.481.519 58 1.16 58h40.796c.641 0 1.16-.519 1.16-1.16V1.16c0-.641-.519-1.16-1.16-1.16z" transform="translate(-858 -1298) translate(150 1085) translate(708 213)"/>
                </g>
            </g>
        </g>
    </g>
</svg>
