<svg xmlns="http://www.w3.org/2000/svg" xmlns:xlink="http://www.w3.org/1999/xlink" width="47" height="60" viewBox="0 0 47 60">
    <defs>
        <path id="lmvlx2371a" d="M0 0L46.301 0 46.301 59.927 0 59.927z"/>
    </defs>
    <g fill="none" fill-rule="evenodd">
        <g>
            <g>
                <g>
                    <g>
                        <g transform="translate(-555 -818) translate(0 722) translate(165 76) translate(285) translate(105 20)">
                            <mask id="m4lgjvf5tb" fill="#fff">
                                <use xlink:href="#lmvlx2371a"/>
                            </mask>
                            <path fill="#002554" d="M40.805 38.003h.88v-14.21h-.88v14.21zm2.56 1.667h-24.75l-.695 1.269h26.14l-.694-1.269zm-23.07-1.667h.88v-14.21h-.88v14.21zm2.547 0h2.623v-14.21h-2.623v14.21zm4.29 0h.88v-14.21h-.88v14.21zm2.547 0h2.623v-14.21h-2.623v14.21zm4.29 0h.88v-14.21h-.88v14.21zm2.546 0h2.623v-14.21h-2.623v14.21zM17.346 22.126h27.288v-2.023L30.99 15.828l-13.644 4.275v2.023zm26.006 1.667v14.21h.507c.305 0 .585.166.731.433l1.609 2.935c.141.258.136.572-.014.826-.15.253-.423.408-.717.408H16.513c-.294 0-.567-.155-.717-.408-.15-.254-.155-.568-.014-.826l1.609-2.935c.146-.267.426-.433.73-.433h.508v-14.21h-2.116c-.46 0-.833-.373-.833-.833v-3.47c0-.363.236-.686.584-.794l14.477-4.537c.162-.05.336-.05.498 0l14.478 4.537c.347.108.584.43.584.795v3.469c0 .46-.373.833-.833.833h-2.116zM14.562 5.501c.46 0 .833-.373.833-.833 0-.46-.373-.834-.833-.834h-.252c-.46 0-.833.374-.833.834 0 .46.373.833.833.833h.252zm7.589-.05c.46 0 .833-.373.833-.833 0-.46-.373-.834-.833-.834h-4.725c-.46 0-.833.374-.833.834 0 .46.373.833.833.833h4.725zm-3.97 46.346c-.934 0-1.695.755-1.695 1.683s.76 1.683 1.695 1.683 1.695-.755 1.695-1.683-.76-1.683-1.695-1.683zm0-1.666c1.854 0 3.361 1.502 3.361 3.35 0 1.846-1.507 3.349-3.361 3.349-1.854 0-3.361-1.503-3.361-3.35 0-1.847 1.507-3.35 3.361-3.35zm13.442-37.696c.46 0 .833-.373.833-.834V8.77c0-.46-.373-.833-.833-.833H4.35c-.46 0-.833.373-.833.833v38.904c0 .46.373.834.833.834h27.273c.46 0 .833-.373.833-.834V44.63c0-.46-.373-.833-.833-.833-.46 0-.834.373-.834.833v2.211H5.184V9.602h25.605v2c0 .46.374.833.834.833zm4.35 32.194v11.088c0 2.321-1.895 4.21-4.225 4.21H4.225c-2.33 0-4.225-1.889-4.225-4.21V4.21C0 1.89 1.895 0 4.225 0h27.523c2.33 0 4.225 1.888 4.225 4.21v8.937c0 .46-.373.834-.833.834-.46 0-.834-.374-.834-.834V4.21c0-1.402-1.147-2.542-2.558-2.542H4.225c-1.41 0-2.558 1.14-2.558 2.542v51.508c0 1.402 1.147 2.543 2.558 2.543h27.523c1.41 0 2.558-1.14 2.558-2.543V44.63c0-.46.373-.833.834-.833.46 0 .833.373.833.833z" mask="url(#m4lgjvf5tb)"/>
                        </g>
                    </g>
                </g>
            </g>
        </g>
    </g>
</svg>
