<svg width="140" height="141" viewBox="0 0 140 141" fill="none" xmlns="http://www.w3.org/2000/svg">
<path d="M126.478 109.039H112.975V138.617H126.478V109.039Z" fill="#87C2B1"/>
<path d="M85.8513 109.039H72.3477V138.617H85.8513V109.039Z" fill="#87C2B1"/>
<path d="M124.266 65.8455H106.223V77.2307H124.266V65.8455Z" fill="#87C2B1"/>
<path d="M92.7194 65.8455H74.6758V77.2307H92.7194V65.8455Z" fill="#87C2B1"/>
<path d="M131.018 100.001V86.2687H126.478V63.6158H121.938V51.6438C121.938 50.7048 122.637 50.0006 123.568 50.0006C132.299 50.0006 139.633 43.193 139.982 34.7422C140.331 27.3478 135.558 20.8923 128.69 18.8969C128.69 18.6622 128.69 18.4275 128.69 18.1927C128.69 8.21606 120.658 0 110.647 0C105.757 0 101.101 1.99533 97.725 5.5165C94.8147 2.1127 90.624 0 85.8511 0C78.8665 0 72.6967 4.81227 70.7178 11.3851C70.4849 11.3851 70.2521 11.3851 70.0193 11.3851C63.0347 11.3851 56.8649 16.1974 54.8859 22.7702C50.8116 22.5355 46.97 24.1787 44.1762 27.2304C42.3136 29.3431 41.1495 32.0426 40.8003 34.7422C35.6782 36.2681 31.6038 40.2587 30.0905 45.4231C29.8577 45.4231 29.6248 45.4231 29.392 45.4231C22.4074 45.4231 16.2376 50.2354 14.2586 56.8082C10.1843 56.5735 6.34273 58.2167 3.54888 61.2684C0.987848 64.0853 -0.292668 67.9586 0.0565636 71.7145C0.755027 78.6395 6.80837 84.0386 14.0258 84.0386H54.071V79.4611H14.2586C9.36941 79.4611 5.29504 75.8225 4.8294 71.245C4.59657 68.6628 5.41145 66.198 7.15761 64.2027C8.90376 62.3247 11.3484 61.2684 13.793 61.2684C14.3751 61.2684 15.0735 61.3857 15.772 61.5031L18.1002 61.9726L18.4494 59.6251C19.2643 54.1087 24.0371 49.8832 29.6248 49.8832C35.7946 49.8832 40.9167 54.9302 40.9167 61.2684H45.4567C45.4567 54.3434 41.0331 48.3574 34.7469 46.2447C35.7946 43.0756 38.2392 40.6108 41.2659 39.3197C42.6628 45.3057 48.3669 49.8832 54.8859 49.8832H76.8875V45.3057H54.8859C49.9967 45.3057 45.9223 41.6672 45.4567 37.0897C45.2239 34.5075 46.0387 32.0426 47.7849 30.0473C49.531 28.1694 51.9757 27.113 54.4203 27.113C55.0023 27.113 55.7008 27.2304 56.3993 27.3478L58.7275 27.8172L59.0767 25.4698C59.8916 19.9533 64.6644 15.7279 70.2521 15.7279C76.4219 15.7279 81.5439 20.7749 81.5439 27.113H86.0839C86.0839 20.188 81.6603 14.2021 75.3742 12.0893C76.8875 7.6292 81.1947 4.34278 86.0839 4.34278C92.2537 4.34278 97.3758 9.38979 97.3758 15.7279H101.916C101.916 13.3804 101.45 11.2677 100.519 9.27241C103.08 6.22073 106.805 4.34278 110.879 4.34278C118.33 4.34278 124.383 10.4461 124.383 17.958C124.383 18.5448 124.383 19.2491 124.15 20.0707L123.801 22.3007L126.013 22.6529C131.717 23.4745 135.791 28.5215 135.558 34.3901C135.326 40.3761 129.971 45.3057 123.685 45.3057C120.309 45.3057 117.515 48.1227 117.515 51.5265V63.4984H112.975V52.1133C112.975 48.3574 109.948 45.3057 106.223 45.3057H99.4712V49.8832H106.223C107.503 49.8832 108.435 50.9396 108.435 52.1133V63.4984H103.895V86.2687H94.9311V63.6158H90.3911V54.5781H85.8511V63.6158H72.3475V86.386H67.8075V100.001H58.8439V140.847H139.982V100.001H131.018ZM108.435 68.1933H121.938V86.386H108.435V68.1933ZM76.8875 68.1933H90.3911V86.386H76.8875V68.1933ZM72.3475 90.8462H126.478V99.8839H72.3475V90.8462ZM103.895 136.269H94.9311V113.499H103.895V136.269ZM135.442 136.269H108.435V109.039H90.3911V136.269H63.3839V104.461H135.442V136.269Z" fill="#7E6EAD"/>
<path d="M117.515 127.231H112.975V131.809H117.515V127.231Z" fill="#7E6EAD"/>
<path d="M126.479 127.231H121.938V131.809H126.479V127.231Z" fill="#7E6EAD"/>
<path d="M117.515 118.076H112.975V122.654H117.515V118.076Z" fill="#7E6EAD"/>
<path d="M126.479 118.076H121.938V122.654H126.479V118.076Z" fill="#7E6EAD"/>
<path d="M117.515 109.039H112.975V113.616H117.515V109.039Z" fill="#7E6EAD"/>
<path d="M126.479 109.039H121.938V113.616H126.479V109.039Z" fill="#7E6EAD"/>
<path d="M76.8877 127.231H72.3477V131.809H76.8877V127.231Z" fill="#7E6EAD"/>
<path d="M85.9672 127.231H81.4272V131.809H85.9672V127.231Z" fill="#7E6EAD"/>
<path d="M76.8877 118.076H72.3477V122.654H76.8877V118.076Z" fill="#7E6EAD"/>
<path d="M85.9672 118.076H81.4272V122.654H85.9672V118.076Z" fill="#7E6EAD"/>
<path d="M76.8877 109.039H72.3477V113.616H76.8877V109.039Z" fill="#7E6EAD"/>
<path d="M85.9672 109.039H81.4272V113.616H85.9672V109.039Z" fill="#7E6EAD"/>
<path d="M94.9311 45.4231H90.3911V50.0006H94.9311V45.4231Z" fill="#7E6EAD"/>
<path d="M85.9672 45.4231H81.4272V50.0006H85.9672V45.4231Z" fill="#7E6EAD"/>
<path d="M54.4199 4.57709H49.8799V9.1546H54.4199V4.57709Z" fill="#7E6EAD"/>
<path d="M45.3403 4.57709H40.8003V9.1546H45.3403V4.57709Z" fill="#7E6EAD"/>
<path d="M36.3769 4.57709H31.8369V9.1546H36.3769V4.57709Z" fill="#7E6EAD"/>
<path d="M27.4131 4.57709H22.873V9.1546H27.4131V4.57709Z" fill="#7E6EAD"/>
<path d="M18.333 4.57709H13.793V9.1546H18.333V4.57709Z" fill="#7E6EAD"/>
<path d="M49.8803 13.6151H45.3403V18.1921H49.8803V13.6151Z" fill="#7E6EAD"/>
<path d="M40.9165 13.6151H36.3765V18.1921H40.9165V13.6151Z" fill="#7E6EAD"/>
<path d="M31.8364 13.6151H27.2964V18.1921H31.8364V13.6151Z" fill="#7E6EAD"/>
<path d="M22.873 13.6151H18.333V18.1921H22.873V13.6151Z" fill="#7E6EAD"/>
<path d="M13.7929 13.6151H9.25293V18.1921H13.7929V13.6151Z" fill="#7E6EAD"/>
<path d="M36.3769 22.77H31.8369V27.3475H36.3769V22.77Z" fill="#7E6EAD"/>
<path d="M27.4131 22.77H22.873V27.3475H27.4131V22.77Z" fill="#7E6EAD"/>
<path d="M18.333 22.77H13.793V27.3475H18.333V22.77Z" fill="#7E6EAD"/>
<path d="M9.3696 22.77H4.82959V27.3475H9.3696V22.77Z" fill="#7E6EAD"/>
<path d="M31.8364 31.8071H27.2964V36.3851H31.8364V31.8071Z" fill="#7E6EAD"/>
<path d="M22.873 31.8071H18.333V36.3851H22.873V31.8071Z" fill="#7E6EAD"/>
<path d="M13.7929 31.8071H9.25293V36.3851H13.7929V31.8071Z" fill="#7E6EAD"/>
<path d="M4.82956 31.8071H0.289551V36.3851H4.82956V31.8071Z" fill="#7E6EAD"/>
<path d="M36.3769 88.616H31.8369V93.1935H36.3769V88.616Z" fill="#7E6EAD"/>
<path d="M18.333 88.616H13.793V93.1935H18.333V88.616Z" fill="#7E6EAD"/>
<path d="M31.8364 97.6539H27.2964V102.231H31.8364V97.6539Z" fill="#7E6EAD"/>
<path d="M22.873 97.6539H18.333V102.231H22.873V97.6539Z" fill="#7E6EAD"/>
<path d="M13.7929 97.6539H9.25293V102.231H13.7929V97.6539Z" fill="#7E6EAD"/>
<path d="M36.3769 106.809H31.8369V111.386H36.3769V106.809Z" fill="#7E6EAD"/>
<path d="M27.4131 106.809H22.873V111.386H27.4131V106.809Z" fill="#7E6EAD"/>
<path d="M18.333 106.809H13.793V111.386H18.333V106.809Z" fill="#7E6EAD"/>
<path d="M9.3696 106.809H4.82959V111.386H9.3696V106.809Z" fill="#7E6EAD"/>
<path d="M31.8364 115.846H27.2964V120.424H31.8364V115.846Z" fill="#7E6EAD"/>
<path d="M13.7929 115.846H9.25293V120.424H13.7929V115.846Z" fill="#7E6EAD"/>
<path d="M4.82956 115.846H0.289551V120.424H4.82956V115.846Z" fill="#7E6EAD"/>
<path d="M54.4199 88.616H49.8799V93.1935H54.4199V88.616Z" fill="#7E6EAD"/>
<path d="M49.8803 97.6539H45.3403V102.231H49.8803V97.6539Z" fill="#7E6EAD"/>
<path d="M45.3403 88.616H40.8003V93.1935H45.3403V88.616Z" fill="#7E6EAD"/>
<path d="M40.9165 97.6539H36.3765V102.231H40.9165V97.6539Z" fill="#7E6EAD"/>
<path d="M54.4199 106.809H49.8799V111.386H54.4199V106.809Z" fill="#7E6EAD"/>
<path d="M49.8803 115.846H45.3403V120.424H49.8803V115.846Z" fill="#7E6EAD"/>
<path d="M40.9165 115.846H36.3765V120.424H40.9165V115.846Z" fill="#7E6EAD"/>
<path d="M63.3837 79.4609H58.8438V84.038H63.3837V79.4609Z" fill="#7E6EAD"/>
</svg>
