<?xml version="1.0" encoding="utf-8"?>
<!-- Generator: Adobe Illustrator 25.2.3, SVG Export Plug-In . SVG Version: 6.00 Build 0)  -->
<svg version="1.1" id="_003" xmlns="http://www.w3.org/2000/svg" xmlns:xlink="http://www.w3.org/1999/xlink" x="0px" y="0px"
	 viewBox="0 0 258 258" style="enable-background:new 0 0 258 258;" xml:space="preserve">
<style type="text/css">
	.st0{opacity:0.3;}
	.st1{fill:#C7BBEA;}
	.st2{fill:#6F51C8;}
	.st3{fill:#F0EED8;}
	.st4{fill:#87C2B1;}
	.st5{fill:#D5E4D6;}
	.st6{fill:#F4F1FB;}
	.st7{fill:#FFFFFF;}
	.st8{fill:#876ED1;}
	.st9{fill:#CABF0E;}
	.st10{opacity:0.5;}
	.st11{fill-rule:evenodd;clip-rule:evenodd;fill:#C7BBEA;}
	.st12{fill-rule:evenodd;clip-rule:evenodd;fill:#5F3EC2;}
	.st13{fill-rule:evenodd;clip-rule:evenodd;fill:#FFFFFF;}
	.st14{fill:#EBF7EE;}
</style>
<g>
	<g class="st0">
		<path class="st1" d="M206.9,187.5c15.5-13.2,21-34.7,13.9-53.7c-2.4-6.6-2.6-13.9-0.5-20.5c9.8-31.5-7.6-65-39-74.8
			c-12.3-3.9-25.3-3.7-37.4,0.5c-9.4,3.1-19.5,1.9-28.1-3.1C93.5,23,61.4,29.8,48,62.9c-1.5,4.2-1.9,8.5-1.3,12.9
			c0.8,8.2-1.3,16.5-6.1,23.1c-14.5,20.6-9.7,49.4,11,64c2.7,1.9,5.6,3.5,8.7,4.8c8.7,3.7,15.5,11,18.4,20
			c7.6,24.7,33.7,38.5,58.4,31c6.9-2.1,13.4-6,18.7-11c5.8-5.5,13.4-8.5,21.5-8.7C188.2,198.8,198.7,194.6,206.9,187.5z"/>
		<rect x="41.9" y="55.6" class="st1" width="24.2" height="19.4"/>
		<path class="st2" d="M66.1,76.6H41.9c-1,0-1.6-0.6-1.6-1.6V55.6c0-1,0.6-1.6,1.6-1.6h24.2c1,0,1.6,0.6,1.6,1.6V75
			C67.7,75.9,67.1,76.6,66.1,76.6z M43.5,73.4h21V57.2h-21V73.4z"/>
		<rect x="40.3" y="47.5" class="st1" width="27.4" height="8.1"/>
		<path class="st2" d="M67.7,57.2H40.3c-1,0-1.6-0.6-1.6-1.6v-8.1c0-1,0.6-1.6,1.6-1.6h27.4c1,0,1.6,0.6,1.6,1.6v8.1
			C69.3,56.6,68.7,57.2,67.7,57.2z M41.9,54h24.2v-4.8H41.9V54z"/>
		<rect x="30.6" y="75" class="st3" width="196.8" height="9.7"/>
		<path class="st2" d="M227.4,86.3H30.6c-1,0-1.6-0.6-1.6-1.6V75c0-1,0.6-1.6,1.6-1.6h196.8c1,0,1.6,0.6,1.6,1.6v9.7
			C229,85.6,228.4,86.3,227.4,86.3z M32.2,83h193.5v-6.5H32.2V83z"/>
		<rect x="30.6" y="139.5" class="st3" width="196.8" height="9.7"/>
		<path class="st2" d="M227.4,150.8H30.6c-1,0-1.6-0.6-1.6-1.6v-9.7c0-1,0.6-1.6,1.6-1.6h196.8c1,0,1.6,0.6,1.6,1.6v9.7
			C229,150.1,228.4,150.8,227.4,150.8z M32.2,147.5h193.5v-6.5H32.2V147.5z"/>
		<path class="st2" d="M58,63.7H50c-1,0-1.6-0.6-1.6-1.6c0-1,0.6-1.6,1.6-1.6H58c1,0,1.6,0.6,1.6,1.6C59.6,63,59,63.7,58,63.7z"/>
		<rect x="93.5" y="47.5" class="st4" width="67.7" height="6.5"/>
		<path class="st2" d="M161.3,55.6H93.5c-1,0-1.6-0.6-1.6-1.6v-6.5c0-1,0.6-1.6,1.6-1.6h67.7c1,0,1.6,0.6,1.6,1.6V54
			C162.9,55,162.2,55.6,161.3,55.6z M95.1,52.4h64.5v-3.2H95.1V52.4z"/>
		<rect x="93.5" y="41.1" class="st5" width="67.7" height="6.5"/>
		<path class="st2" d="M161.3,49.2H93.5c-1,0-1.6-0.6-1.6-1.6v-6.5c0-1,0.6-1.6,1.6-1.6h67.7c1,0,1.6,0.6,1.6,1.6v6.5
			C162.9,48.5,162.2,49.2,161.3,49.2z M95.1,45.9h64.5v-3.2H95.1V45.9z"/>
		<rect x="93.5" y="34.6" class="st4" width="67.7" height="6.5"/>
		<path class="st2" d="M161.3,42.7H93.5c-1,0-1.6-0.6-1.6-1.6v-6.5c0-1,0.6-1.6,1.6-1.6h67.7c1,0,1.6,0.6,1.6,1.6v6.5
			C162.9,42.1,162.2,42.7,161.3,42.7z M95.1,39.5h64.5v-3.2H95.1V39.5z"/>
		<rect x="119.3" y="32.2" class="st6" width="16.1" height="22.6"/>
		<rect x="119.3" y="33" class="st7" width="16.1" height="4.8"/>
		<g class="st0">
			<rect x="119.3" y="50.8" class="st8" width="16.1" height="4.8"/>
		</g>
		<path class="st2" d="M135.5,57.2h-16.1c-1,0-1.6-0.6-1.6-1.6V33c0-1,0.6-1.6,1.6-1.6h16.1c1,0,1.6,0.6,1.6,1.6v22.6
			C137.1,56.6,136.4,57.2,135.5,57.2z M120.9,54h12.9V34.6h-12.9V54z"/>
		<rect x="141.9" y="66.9" class="st4" width="67.7" height="6.5"/>
		<path class="st2" d="M209.6,75h-67.7c-1,0-1.6-0.6-1.6-1.6v-6.5c0-1,0.6-1.6,1.6-1.6h67.7c1,0,1.6,0.6,1.6,1.6v6.5
			C211.3,74.3,210.6,75,209.6,75z M143.5,71.7H208v-3.2h-64.5V71.7z"/>
		<rect x="141.9" y="60.5" class="st5" width="67.7" height="6.5"/>
		<path class="st2" d="M209.6,68.5h-67.7c-1,0-1.6-0.6-1.6-1.6v-6.5c0-1,0.6-1.6,1.6-1.6h67.7c1,0,1.6,0.6,1.6,1.6v6.5
			C211.3,67.9,210.6,68.5,209.6,68.5z M143.5,65.3H208v-3.2h-64.5V65.3z"/>
		<rect x="141.9" y="54" class="st4" width="67.7" height="6.5"/>
		<path class="st2" d="M209.6,62.1h-67.7c-1,0-1.6-0.6-1.6-1.6V54c0-1,0.6-1.6,1.6-1.6h67.7c1,0,1.6,0.6,1.6,1.6v6.5
			C211.3,61.4,210.6,62.1,209.6,62.1z M143.5,58.8H208v-3.2h-64.5V58.8z"/>
		<rect x="167.7" y="51.6" class="st6" width="16.1" height="22.6"/>
		<rect x="167.7" y="52.4" class="st7" width="16.1" height="4.8"/>
		<g class="st0">
			<rect x="167.7" y="70.1" class="st8" width="16.1" height="4.8"/>
		</g>
		<path class="st2" d="M183.8,76.6h-16.1c-1,0-1.6-0.6-1.6-1.6V52.4c0-1,0.6-1.6,1.6-1.6h16.1c1,0,1.6,0.6,1.6,1.6V75
			C185.5,75.9,184.8,76.6,183.8,76.6z M169.3,73.4h12.9V54h-12.9V73.4z"/>
		<rect x="83.8" y="66.9" class="st4" width="67.7" height="6.5"/>
		<path class="st2" d="M151.6,75H83.8c-1,0-1.6-0.6-1.6-1.6v-6.5c0-1,0.6-1.6,1.6-1.6h67.7c1,0,1.6,0.6,1.6,1.6v6.5
			C153.2,74.3,152.5,75,151.6,75z M85.5,71.7H150v-3.2H85.5V71.7z"/>
		<rect x="83.8" y="60.5" class="st5" width="67.7" height="6.5"/>
		<path class="st2" d="M151.6,68.5H83.8c-1,0-1.6-0.6-1.6-1.6v-6.5c0-1,0.6-1.6,1.6-1.6h67.7c1,0,1.6,0.6,1.6,1.6v6.5
			C153.2,67.9,152.5,68.5,151.6,68.5z M85.5,65.3H150v-3.2H85.5V65.3z"/>
		<rect x="83.8" y="54" class="st4" width="67.7" height="6.5"/>
		<path class="st2" d="M151.6,62.1H83.8c-1,0-1.6-0.6-1.6-1.6V54c0-1,0.6-1.6,1.6-1.6h67.7c1,0,1.6,0.6,1.6,1.6v6.5
			C153.2,61.4,152.5,62.1,151.6,62.1z M85.5,58.8H150v-3.2H85.5V58.8z"/>
		<rect x="109.6" y="51.6" class="st6" width="16.1" height="22.6"/>
		<rect x="109.6" y="52.4" class="st7" width="16.1" height="4.8"/>
		<g class="st0">
			<rect x="109.6" y="70.1" class="st8" width="16.1" height="4.8"/>
		</g>
		<path class="st2" d="M125.8,76.6h-16.1c-1,0-1.6-0.6-1.6-1.6V52.4c0-1,0.6-1.6,1.6-1.6h16.1c1,0,1.6,0.6,1.6,1.6V75
			C127.4,75.9,126.7,76.6,125.8,76.6z M111.3,73.4h12.9V54h-12.9V73.4z"/>
		<path class="st9" d="M35.1,135.3l2.9-9.7c0.5-1.3,1.6-2.3,3.1-2.3h17.7c1.5,0,2.7,1,3.1,2.3l2.9,9.7c0.5,1.8-0.5,3.5-2.1,4
			c-0.3,0.2-0.6,0.2-1,0.2H38.2c-1.8,0-3.2-1.5-3.2-3.2C35,135.9,35,135.6,35.1,135.3z"/>
		<g class="st10">
			<path class="st7" d="M35.1,135.3C35.1,135.3,35.1,135.5,35.1,135.3L60,123.5c-0.3-0.2-0.8-0.2-1.1-0.2H41.1c-1.5,0-2.7,1-3.1,2.3
				L35.1,135.3z"/>
		</g>
		<g class="st10">
			<path class="st7" d="M62.5,127.5l-0.3-1.1l-25.8,12.4c0.5,0.5,1.1,0.6,1.8,0.6h6.9l18.4-8.9L62.5,127.5z"/>
		</g>
		<path class="st2" d="M61.7,141.1H38.2c-2.7,0-4.8-2.1-4.8-4.8c0-0.5,0-1,0.2-1.5l2.9-9.7c0.6-1.9,2.6-3.4,4.7-3.4h17.7
			c2.1,0,4,1.5,4.7,3.4l2.9,9.7c0.8,2.6-0.6,5.3-3.2,6C62.7,141.1,62.2,141.1,61.7,141.1z M41.1,125c-0.8,0-1.5,0.5-1.6,1.1
			l-2.9,9.7l0,0c-0.3,0.8,0.2,1.8,1.1,1.9c0.2,0,0.3,0,0.5,0h23.5c1,0,1.6-0.6,1.6-1.6c0-0.2,0-0.3,0-0.5l-2.9-9.7
			c-0.2-0.6-0.8-1.1-1.6-1.1H41.1V125z M35.1,135.3L35.1,135.3z"/>
		<path class="st9" d="M67.4,135.3l2.9-9.7c0.5-1.3,1.6-2.3,3.1-2.3h17.7c1.5,0,2.7,1,3.1,2.3l2.9,9.7c0.5,1.8-0.5,3.5-2.1,4
			c-0.3,0.2-0.6,0.2-1,0.2H70.5c-1.8,0-3.2-1.5-3.2-3.2C67.2,135.9,67.2,135.6,67.4,135.3z"/>
		<g class="st10">
			<path class="st7" d="M67.4,135.3C67.4,135.3,67.4,135.5,67.4,135.3l24.8-11.8c-0.3-0.2-0.8-0.2-1.1-0.2H73.4
				c-1.5,0-2.7,1-3.1,2.3L67.4,135.3z"/>
		</g>
		<g class="st10">
			<path class="st7" d="M94.8,127.5l-0.3-1.1l-25.8,12.4c0.5,0.3,1.1,0.6,1.9,0.6h6.8l18.4-8.9L94.8,127.5z"/>
		</g>
		<path class="st2" d="M94,141.1H70.5c-2.7,0-4.8-2.1-4.8-4.8c0-0.5,0-1,0.2-1.5l2.9-9.7c0.6-2.1,2.4-3.4,4.7-3.4h17.7
			c2.1,0,4,1.5,4.7,3.4l2.9,9.7c0.8,2.6-0.6,5.3-3.2,6C95,141.1,94.5,141.1,94,141.1z M73.4,125c-0.8,0-1.5,0.5-1.6,1.1l-2.9,9.7
			l0,0c-0.3,0.8,0.2,1.8,1.1,1.9c0.2,0,0.3,0,0.5,0H94c1,0,1.6-0.6,1.6-1.6c0-0.2,0-0.3,0-0.5l-2.9-9.7c-0.2-0.6-0.8-1.1-1.6-1.1
			H73.4C73.4,124.8,73.4,125,73.4,125z M67.4,135.3L67.4,135.3z"/>
		<path class="st9" d="M99.6,135.3l2.9-9.7c0.5-1.3,1.6-2.3,3.1-2.3h17.7c1.5,0,2.7,1,3.1,2.3l2.9,9.7c0.5,1.8-0.5,3.5-2.1,4
			c-0.3,0.2-0.6,0.2-1,0.2h-23.5c-1.8,0-3.2-1.5-3.2-3.2C99.5,135.9,99.5,135.6,99.6,135.3z"/>
		<g class="st10">
			<path class="st7" d="M99.6,135.3C99.6,135.3,99.6,135.5,99.6,135.3l24.8-11.8c-0.3-0.2-0.8-0.2-1.1-0.2h-17.7
				c-1.5,0-2.7,1-3.1,2.3L99.6,135.3z"/>
		</g>
		<g class="st10">
			<path class="st7" d="M127.1,127.5l-0.3-1.1l-25.8,12.4c0.5,0.3,1.1,0.6,1.9,0.6h6.8l18.4-8.9L127.1,127.5z"/>
		</g>
		<path class="st2" d="M126.3,141.1h-23.5c-2.7,0-4.8-2.1-4.8-4.8c0-0.5,0-1,0.2-1.5l2.9-9.7c0.6-2.1,2.4-3.4,4.7-3.4h17.7
			c2.1,0,4,1.5,4.7,3.4l2.9,9.7c0.8,2.6-0.6,5.3-3.2,6C127.2,141.1,126.7,141.1,126.3,141.1z M105.6,125c-0.8,0-1.5,0.5-1.6,1.1
			l-2.9,9.7l0,0c-0.3,0.8,0.2,1.8,1.1,1.9c0.2,0,0.3,0,0.5,0h23.5c1,0,1.6-0.6,1.6-1.6c0-0.2,0-0.3,0-0.5l-2.9-9.7
			c-0.2-0.6-0.8-1.1-1.6-1.1h-17.7C105.6,124.8,105.6,125,105.6,125z M99.6,135.3L99.6,135.3z"/>
		<path class="st9" d="M83.5,119.2l2.9-9.7c0.5-1.3,1.6-2.3,3.1-2.3h17.7c1.5,0,2.7,1,3.1,2.3l2.9,9.7c0.5,1.8-0.5,3.5-2.1,4
			c-0.3,0.2-0.6,0.2-1,0.2H86.6c-1.8,0-3.2-1.5-3.2-3.2C83.4,119.8,83.4,119.5,83.5,119.2z"/>
		<g class="st10">
			<path class="st7" d="M83.5,119.2C83.5,119.2,83.5,119.3,83.5,119.2l24.8-11.8c-0.3-0.2-0.8-0.2-1.1-0.2H89.5
				c-1.5,0-2.7,1-3.1,2.3L83.5,119.2z"/>
		</g>
		<g class="st10">
			<path class="st7" d="M110.9,111.4l-0.3-1.1l-25.8,12.4c0.5,0.3,1.1,0.6,1.9,0.6h6.8l18.4-8.9L110.9,111.4z"/>
		</g>
		<path class="st2" d="M110.1,125H86.6c-2.7,0-4.8-2.1-4.8-4.8c0-0.5,0-1,0.2-1.5l2.9-9.7c0.6-2.1,2.4-3.4,4.7-3.4h17.7
			c2.1,0,4,1.5,4.7,3.4l2.9,9.7c0.8,2.6-0.6,5.3-3.2,6C111.1,125,110.6,125,110.1,125z M89.5,108.8c-0.8,0-1.5,0.5-1.6,1.1l-2.9,9.7
			l0,0c-0.3,0.8,0.2,1.8,1.1,1.9c0.2,0,0.3,0,0.5,0h23.5c1,0,1.6-0.6,1.6-1.6c0-0.2,0-0.3,0-0.5l-2.9-9.7c-0.2-0.6-0.8-1.1-1.6-1.1
			L89.5,108.8L89.5,108.8z M83.5,119.2L83.5,119.2z"/>
		<path class="st9" d="M51.3,119.2l2.9-9.7c0.5-1.3,1.6-2.3,3.1-2.3H75c1.5,0,2.7,1,3.1,2.3l2.9,9.7c0.5,1.8-0.5,3.5-2.1,4
			c-0.3,0.2-0.6,0.2-1,0.2H54.3c-1.8,0-3.2-1.5-3.2-3.2C51.1,119.8,51.1,119.5,51.3,119.2z"/>
		<g class="st10">
			<path class="st7" d="M51.3,119.2C51.3,119.2,51.3,119.3,51.3,119.2l24.8-11.8c-0.3-0.2-0.8-0.2-1.1-0.2H57.2
				c-1.5,0-2.7,1-3.1,2.3L51.3,119.2z"/>
		</g>
		<g class="st10">
			<path class="st7" d="M78.7,111.4l-0.3-1.1l-25.8,12.4c0.5,0.3,1.1,0.6,1.9,0.6h6.8l18.4-8.9L78.7,111.4z"/>
		</g>
		<path class="st2" d="M77.9,125H54.3c-2.7,0-4.8-2.1-4.8-4.8c0-0.5,0-1,0.2-1.5l2.9-9.7c0.6-2.1,2.4-3.4,4.7-3.4H75
			c2.1,0,4,1.5,4.7,3.4l2.9,9.7c0.8,2.6-0.6,5.3-3.2,6C78.8,125,78.4,125,77.9,125z M57.2,108.8c-0.8,0-1.5,0.5-1.6,1.1l-2.9,9.7
			l0,0c-0.3,0.8,0.2,1.8,1.1,1.9c0.2,0,0.3,0,0.5,0h23.5c1,0,1.6-0.6,1.6-1.6c0-0.2,0-0.3,0-0.5l-2.9-9.7c-0.2-0.6-0.8-1.1-1.6-1.1
			L57.2,108.8L57.2,108.8z M51.3,119.2L51.3,119.2z"/>
		<path class="st9" d="M67.4,103l2.9-9.7c0.5-1.3,1.6-2.3,3.1-2.3h17.7c1.5,0,2.7,1,3.1,2.3l2.9,9.7c0.5,1.8-0.5,3.5-2.1,4
			c-0.3,0.2-0.6,0.2-1,0.2H70.5c-1.8,0-3.2-1.5-3.2-3.2C67.2,103.7,67.2,103.4,67.4,103z"/>
		<g class="st10">
			<path class="st7" d="M67.4,103C67.4,103,67.4,103.2,67.4,103l24.8-11.8c-0.3-0.2-0.8-0.2-1.1-0.2H73.4c-1.5,0-2.7,1-3.1,2.3
				L67.4,103z"/>
		</g>
		<g class="st10">
			<path class="st7" d="M94.8,95.3l-0.3-1.1l-25.8,12.4c0.5,0.3,1.1,0.6,1.9,0.6h6.8l18.4-8.9L94.8,95.3z"/>
		</g>
		<path class="st2" d="M94,108.8H70.5c-2.7,0-4.8-2.1-4.8-4.8c0-0.5,0-1,0.2-1.5l2.9-9.7c0.6-2.1,2.4-3.4,4.7-3.4h17.7
			c2.1,0,4,1.5,4.7,3.4l2.9,9.7c0.8,2.6-0.6,5.3-3.2,6C95,108.8,94.5,108.8,94,108.8z M73.4,92.7c-0.8,0-1.5,0.5-1.6,1.1l-2.9,9.7
			l0,0c-0.3,0.8,0.2,1.8,1.1,1.9c0.2,0,0.3,0,0.5,0H94c1,0,1.6-0.6,1.6-1.6c0-0.2,0-0.3,0-0.5l-2.9-9.7c-0.2-0.6-0.8-1.1-1.6-1.1
			L73.4,92.7L73.4,92.7z M67.4,103L67.4,103z"/>
		<path class="st9" d="M164.2,135.3l2.9-9.7c0.5-1.3,1.6-2.3,3.1-2.3h17.7c1.5,0,2.7,1,3.1,2.3l2.9,9.7c0.5,1.8-0.5,3.5-2.1,4
			c-0.3,0.2-0.6,0.2-1,0.2h-23.5c-1.8,0-3.2-1.5-3.2-3.2C164,135.9,164,135.6,164.2,135.3z"/>
		<g class="st10">
			<path class="st7" d="M164.2,135.3C164.2,135.3,164.2,135.5,164.2,135.3l24.8-11.8c-0.3-0.2-0.6-0.2-1.1-0.2h-17.7
				c-1.5,0-2.7,1-3.1,2.3L164.2,135.3z"/>
		</g>
		<g class="st10">
			<path class="st7" d="M191.6,127.5l-0.3-1.1l-25.8,12.4c0.5,0.3,1.1,0.6,1.9,0.6h6.8l18.4-8.9L191.6,127.5z"/>
		</g>
		<path class="st2" d="M190.8,141.1h-23.5c-2.7,0-4.8-2.1-4.8-4.8c0-0.5,0-1,0.2-1.5l2.9-9.7c0.6-2.1,2.4-3.4,4.7-3.4h17.7
			c2.1,0,4,1.5,4.7,3.4l2.9,9.7c0.8,2.6-0.6,5.3-3.2,6C191.7,141.1,191.3,141.1,190.8,141.1z M170.1,125c-0.8,0-1.5,0.5-1.6,1.1
			l-2.9,9.7l0,0c-0.3,0.8,0.2,1.8,1.1,1.9c0.2,0,0.3,0,0.5,0h23.5c1,0,1.6-0.6,1.6-1.6c0-0.2,0-0.3,0-0.5l-2.9-9.7
			c-0.2-0.6-0.8-1.1-1.6-1.1h-17.7C170.1,124.8,170.1,125,170.1,125z M164.2,135.3L164.2,135.3z"/>
		<path class="st9" d="M196.4,135.3l2.9-9.7c0.5-1.3,1.6-2.3,3.1-2.3h17.7c1.5,0,2.7,1,3.1,2.3l2.9,9.7c0.5,1.8-0.5,3.5-2.1,4
			c-0.3,0.2-0.6,0.2-1,0.2h-23.5c-1.8,0-3.2-1.5-3.2-3.2C196.3,135.9,196.3,135.6,196.4,135.3z"/>
		<g class="st10">
			<path class="st7" d="M196.4,135.3C196.4,135.3,196.4,135.5,196.4,135.3l24.8-11.8c-0.3-0.2-0.6-0.2-1.1-0.2h-17.7
				c-1.5,0-2.7,1-3.1,2.3L196.4,135.3z"/>
		</g>
		<g class="st10">
			<path class="st7" d="M223.8,127.5l-0.3-1.1l-26,12.4c0.5,0.3,1.1,0.6,1.9,0.6h6.8l18.4-8.9L223.8,127.5z"/>
		</g>
		<path class="st2" d="M223,141.1h-23.5c-2.7,0-4.8-2.1-4.8-4.8c0-0.5,0-1,0.2-1.5l2.9-9.7c0.6-2.1,2.4-3.4,4.7-3.4h17.7
			c2.1,0,4,1.5,4.7,3.4l2.9,9.7c0.8,2.6-0.6,5.3-3.2,6C224,141.1,223.5,141.1,223,141.1z M202.4,125c-0.8,0-1.5,0.5-1.6,1.1
			l-2.9,9.7l0,0c-0.3,0.8,0.2,1.8,1.1,1.9c0.2,0,0.3,0,0.5,0H223c1,0,1.6-0.6,1.6-1.6c0-0.2,0-0.3,0-0.5l-2.9-9.7
			c-0.2-0.6-0.8-1.1-1.6-1.1h-17.7C202.4,124.8,202.4,125,202.4,125z M196.4,135.3L196.4,135.3z"/>
		<path class="st9" d="M196.4,119.2l2.9-9.7c0.5-1.3,1.6-2.3,3.1-2.3h17.7c1.5,0,2.7,1,3.1,2.3l2.9,9.7c0.5,1.8-0.5,3.5-2.1,4
			c-0.3,0.2-0.6,0.2-1,0.2h-23.5c-1.8,0-3.2-1.5-3.2-3.2C196.3,119.8,196.3,119.5,196.4,119.2z"/>
		<g class="st10">
			<path class="st7" d="M196.4,119.2C196.4,119.2,196.4,119.3,196.4,119.2l24.8-11.8c-0.3-0.2-0.6-0.2-1.1-0.2h-17.7
				c-1.5,0-2.7,1-3.1,2.3L196.4,119.2z"/>
		</g>
		<g class="st10">
			<path class="st7" d="M223.8,111.4l-0.3-1.1l-26,12.4c0.5,0.3,1.1,0.6,1.9,0.6h6.8l18.4-8.9L223.8,111.4z"/>
		</g>
		<path class="st2" d="M223,125h-23.5c-2.7,0-4.8-2.1-4.8-4.8c0-0.5,0-1,0.2-1.5l2.9-9.7c0.6-2.1,2.4-3.4,4.7-3.4h17.7
			c2.1,0,4,1.5,4.7,3.4l2.9,9.7c0.8,2.6-0.6,5.3-3.2,6C224,125,223.5,125,223,125z M202.4,108.8c-0.8,0-1.5,0.5-1.6,1.1l-2.9,9.7
			l0,0c-0.3,0.8,0.2,1.8,1.1,1.9c0.2,0,0.3,0,0.5,0H223c1,0,1.6-0.6,1.6-1.6c0-0.2,0-0.3,0-0.5l-2.9-9.7c-0.2-0.6-0.8-1.1-1.6-1.1
			L202.4,108.8L202.4,108.8z M196.4,119.2L196.4,119.2z"/>
		<path class="st9" d="M164.2,119.2l2.9-9.7c0.5-1.3,1.6-2.3,3.1-2.3h17.7c1.5,0,2.7,1,3.1,2.3l2.9,9.7c0.5,1.8-0.5,3.5-2.1,4
			c-0.3,0.2-0.6,0.2-1,0.2h-23.5c-1.8,0-3.2-1.5-3.2-3.2C164,119.8,164,119.5,164.2,119.2z"/>
		<g class="st10">
			<path class="st7" d="M164.2,119.2C164.2,119.2,164.2,119.3,164.2,119.2l24.8-11.8c-0.3-0.2-0.6-0.2-1.1-0.2h-17.7
				c-1.5,0-2.7,1-3.1,2.3L164.2,119.2z"/>
		</g>
		<g class="st10">
			<path class="st7" d="M191.6,111.4l-0.3-1.1l-25.8,12.4c0.5,0.3,1.1,0.6,1.9,0.6h6.8l18.4-8.9L191.6,111.4z"/>
		</g>
		<path class="st2" d="M190.8,125h-23.5c-2.7,0-4.8-2.1-4.8-4.8c0-0.5,0-1,0.2-1.5l2.9-9.7c0.6-2.1,2.4-3.4,4.7-3.4h17.7
			c2.1,0,4,1.5,4.7,3.4l2.9,9.7c0.8,2.6-0.6,5.3-3.2,6C191.7,125,191.3,125,190.8,125z M170.1,108.8c-0.8,0-1.5,0.5-1.6,1.1
			l-2.9,9.7l0,0c-0.3,0.8,0.2,1.8,1.1,1.9c0.2,0,0.3,0,0.5,0h23.5c1,0,1.6-0.6,1.6-1.6c0-0.2,0-0.3,0-0.5l-2.9-9.7
			c-0.2-0.6-0.8-1.1-1.6-1.1L170.1,108.8L170.1,108.8z M164.2,119.2L164.2,119.2z"/>
		<path class="st9" d="M180.3,103l2.9-9.7c0.5-1.3,1.6-2.3,3.1-2.3H204c1.5,0,2.7,1,3.1,2.3l2.9,9.7c0.5,1.8-0.5,3.5-2.1,4
			c-0.3,0.2-0.6,0.2-1,0.2h-23.5c-1.8,0-3.2-1.5-3.2-3.2C180.1,103.7,180.1,103.4,180.3,103z"/>
		<g class="st10">
			<path class="st7" d="M180.3,103C180.3,103,180.3,103.2,180.3,103l24.8-11.8c-0.3-0.2-0.6-0.2-1.1-0.2h-17.7c-1.5,0-2.7,1-3.1,2.3
				L180.3,103z"/>
		</g>
		<g class="st10">
			<path class="st7" d="M207.7,95.3l-0.3-1.1l-25.8,12.4c0.5,0.3,1.1,0.6,1.9,0.6h6.8l18.4-8.9L207.7,95.3z"/>
		</g>
		<path class="st2" d="M206.9,108.8h-23.5c-2.7,0-4.8-2.1-4.8-4.8c0-0.5,0-1,0.2-1.5l2.9-9.7c0.6-2.1,2.4-3.4,4.7-3.4H204
			c2.1,0,4,1.5,4.7,3.4l2.9,9.7c0.8,2.6-0.6,5.3-3.2,6C207.9,108.8,207.4,108.8,206.9,108.8z M186.3,92.7c-0.8,0-1.5,0.5-1.6,1.1
			l-2.9,9.7l0,0c-0.3,0.8,0.2,1.8,1.1,1.9c0.2,0,0.3,0,0.5,0h23.5c1,0,1.6-0.6,1.6-1.6c0-0.2,0-0.3,0-0.5l-2.9-9.7
			c-0.2-0.6-0.8-1.1-1.6-1.1L186.3,92.7L186.3,92.7z M180.3,103L180.3,103z"/>
		<path class="st2" d="M193.5,228.2H61.3c-1,0-1.6-0.6-1.6-1.6s0.6-1.6,1.6-1.6h132.3c1,0,1.6,0.6,1.6,1.6S194.5,228.2,193.5,228.2z
			"/>
		<path class="st2" d="M204.8,228.2h-6.5c-1,0-1.6-0.6-1.6-1.6s0.6-1.6,1.6-1.6h6.5c1,0,1.6,0.6,1.6,1.6S205.8,228.2,204.8,228.2z"
			/>
		<path class="st2" d="M56.4,228.2h-3.2c-1,0-1.6-0.6-1.6-1.6s0.6-1.6,1.6-1.6h3.2c1,0,1.6,0.6,1.6,1.6S57.4,228.2,56.4,228.2z"/>
		<rect x="83.8" y="216.9" class="st9" width="11.3" height="4.8"/>
		<path class="st2" d="M95.1,223.4H83.8c-1,0-1.6-0.6-1.6-1.6v-4.8c0-1,0.6-1.6,1.6-1.6h11.3c1,0,1.6,0.6,1.6,1.6v4.8
			C96.7,222.7,96.1,223.4,95.1,223.4z M85.5,220.1h8.1v-1.6h-8.1V220.1z"/>
		<rect x="83.8" y="212.1" class="st9" width="11.3" height="4.8"/>
		<path class="st2" d="M95.1,218.5H83.8c-1,0-1.6-0.6-1.6-1.6v-4.8c0-1,0.6-1.6,1.6-1.6h11.3c1,0,1.6,0.6,1.6,1.6v4.8
			C96.7,217.9,96.1,218.5,95.1,218.5z M85.5,215.3h8.1v-1.6h-8.1V215.3z"/>
		<rect x="83.8" y="207.2" class="st9" width="11.3" height="4.8"/>
		<path class="st2" d="M95.1,213.7H83.8c-1,0-1.6-0.6-1.6-1.6v-4.8c0-1,0.6-1.6,1.6-1.6h11.3c1,0,1.6,0.6,1.6,1.6v4.8
			C96.7,213,96.1,213.7,95.1,213.7z M85.5,210.5h8.1v-1.6h-8.1V210.5z"/>
		<rect x="93.5" y="220.1" class="st9" width="11.3" height="4.8"/>
		<path class="st2" d="M104.8,226.6H93.5c-1,0-1.6-0.6-1.6-1.6v-4.8c0-1,0.6-1.6,1.6-1.6h11.3c1,0,1.6,0.6,1.6,1.6v4.8
			C106.4,225.9,105.8,226.6,104.8,226.6z M95.1,223.4h8.1v-1.6h-8.1V223.4z"/>
		<rect x="93.5" y="215.3" class="st9" width="11.3" height="4.8"/>
		<path class="st2" d="M104.8,221.7H93.5c-1,0-1.6-0.6-1.6-1.6v-4.8c0-1,0.6-1.6,1.6-1.6h11.3c1,0,1.6,0.6,1.6,1.6v4.8
			C106.4,221.1,105.8,221.7,104.8,221.7z M95.1,218.5h8.1v-1.6h-8.1V218.5z"/>
		<rect x="93.5" y="210.5" class="st9" width="11.3" height="4.8"/>
		<path class="st2" d="M104.8,216.9H93.5c-1,0-1.6-0.6-1.6-1.6v-4.8c0-1,0.6-1.6,1.6-1.6h11.3c1,0,1.6,0.6,1.6,1.6v4.8
			C106.4,216.3,105.8,216.9,104.8,216.9z M95.1,213.7h8.1v-1.6h-8.1V213.7z"/>
		<rect x="93.5" y="205.6" class="st9" width="11.3" height="4.8"/>
		<path class="st2" d="M104.8,212.1H93.5c-1,0-1.6-0.6-1.6-1.6v-4.8c0-1,0.6-1.6,1.6-1.6h11.3c1,0,1.6,0.6,1.6,1.6v4.8
			C106.4,211.4,105.8,212.1,104.8,212.1z M95.1,208.8h8.1v-1.6h-8.1V208.8z"/>
		<rect x="93.5" y="200.8" class="st9" width="11.3" height="4.8"/>
		<path class="st2" d="M104.8,207.2H93.5c-1,0-1.6-0.6-1.6-1.6v-4.8c0-1,0.6-1.6,1.6-1.6h11.3c1,0,1.6,0.6,1.6,1.6v4.8
			C106.4,206.6,105.8,207.2,104.8,207.2z M95.1,204h8.1v-1.6h-8.1V204z"/>
		<rect x="75.8" y="221.7" class="st9" width="11.3" height="4.8"/>
		<path class="st2" d="M87.1,228.2H75.8c-1,0-1.6-0.6-1.6-1.6v-4.8c0-1,0.6-1.6,1.6-1.6h11.3c1,0,1.6,0.6,1.6,1.6v4.8
			C88.7,227.5,88,228.2,87.1,228.2z M77.4,225h8.1v-1.6h-8.1V225z"/>
		<rect x="75.8" y="216.9" class="st9" width="11.3" height="4.8"/>
		<path class="st2" d="M87.1,223.4H75.8c-1,0-1.6-0.6-1.6-1.6v-4.8c0-1,0.6-1.6,1.6-1.6h11.3c1,0,1.6,0.6,1.6,1.6v4.8
			C88.7,222.7,88,223.4,87.1,223.4z M77.4,220.1h8.1v-1.6h-8.1V220.1z"/>
		<rect x="75.8" y="212.1" class="st9" width="11.3" height="4.8"/>
		<path class="st2" d="M87.1,218.5H75.8c-1,0-1.6-0.6-1.6-1.6v-4.8c0-1,0.6-1.6,1.6-1.6h11.3c1,0,1.6,0.6,1.6,1.6v4.8
			C88.7,217.9,88,218.5,87.1,218.5z M77.4,215.3h8.1v-1.6h-8.1V215.3z"/>
		<rect x="175.8" y="221.7" class="st9" width="11.3" height="4.8"/>
		<path class="st2" d="M187.1,228.2h-11.3c-1,0-1.6-0.6-1.6-1.6v-4.8c0-1,0.6-1.6,1.6-1.6h11.3c1,0,1.6,0.6,1.6,1.6v4.8
			C188.7,227.5,188,228.2,187.1,228.2z M177.4,225h8.1v-1.6h-8.1V225z"/>
		
			<rect x="167.7" y="218.5" transform="matrix(0.7071 -0.7071 0.7071 0.7071 -105.4518 187.2853)" class="st9" width="11.3" height="4.8"/>
		<path class="st2" d="M171.1,228.2c-0.5,0-0.8-0.2-1.1-0.5l-3.4-3.4c-0.6-0.6-0.6-1.6,0-2.3l7.9-7.9c0.6-0.6,1.6-0.6,2.3,0l3.4,3.4
			c0.6,0.6,0.6,1.6,0,2.3l-7.9,7.9C171.9,228,171.6,228.2,171.1,228.2z M170,223.2l1.1,1.1l5.6-5.6l-1.1-1.1L170,223.2z"/>
	</g>
	<path class="st2" d="M127.4,179c-0.6,0-1.3-0.5-1.5-1.1c-1.9-5.6-0.5-13.4,1.1-21.8c1.9-10.2,4-20.6-0.8-26.1
		c-0.6-0.6-0.5-1.6,0.2-2.3c0.6-0.6,1.6-0.5,2.3,0.2c6.1,6.6,3.9,17.9,1.6,28.9c-1.6,7.9-3.1,15.2-1.3,20c0.3,0.8-0.2,1.8-1,2.1l0,0
		C127.7,179,127.5,179,127.4,179z"/>
	<path class="st4" d="M115,160.8c-4.4-4.5-4.5-11.9-4.2-11.6c0,0,7.6,0,11.8,4.5c4.2,4.5,3.9,11.6,3.9,11.6S119.3,165.1,115,160.8z"
		/>
	<path class="st2" d="M126.6,166.9L126.6,166.9c-0.3,0-7.9-0.2-12.6-5c-3.2-3.5-4.8-8.4-4.7-13.1c0.2-0.6,0.6-1,1.1-1.1
		c0.2,0,0.3,0,0.5,0c1.1,0,8.4,0.3,12.9,5c4.8,4.8,4.4,12.6,4.4,12.9C128,166.3,127.4,166.9,126.6,166.9z M112.4,150.8
		c0.3,3.2,1.6,6.3,3.7,8.7l0,0c2.4,2.3,5.5,3.5,8.7,3.9c-0.2-3.2-1.3-6.3-3.4-8.7C119,152.4,115.8,151.1,112.4,150.8z"/>
	<path class="st5" d="M143.2,159.6c7.4-4.8,11.1-15.6,10.8-15.3c0,0-10.3-2.1-17.7,2.7c-7.4,4.8-8.9,14.8-8.9,14.8
		C132.7,163.4,138.5,162.5,143.2,159.6z"/>
	<path class="st2" d="M132.7,164.2c-1.9,0-3.9-0.2-5.8-0.8c-0.8-0.2-1.3-1-1.1-1.8c0-0.5,1.6-11,9.5-16.1c7.6-5,17.7-3.2,18.9-2.9
		c0.5,0,0.8,0.3,1.1,0.6c0.6,1-0.2,3.5-2.6,7.7c-2.1,3.9-5,7.3-8.7,9.8C140.6,163.2,136.7,164.3,132.7,164.2z M129.2,160.6
		c4.5,0.8,9.2,0,13.1-2.4l0,0c4.8-3.2,8.4-9.7,9.5-12.6c-3.1-0.3-9.8-0.5-14.8,2.7C131.9,151.6,130,157.9,129.2,160.6L129.2,160.6z"
		/>
	<path class="st11" d="M147.9,226.6h-41c-1.6,0-3.1-1.3-3.2-2.9l-3.7-34.2h54.8l-3.7,34.2C150.9,225.3,149.5,226.6,147.9,226.6z"/>
	<g class="st0">
		<polygon class="st12" points="154.2,195.9 154.8,189.5 100,189.5 100.6,195.9 		"/>
	</g>
	<g class="st0">
		<path class="st12" d="M150.8,220.1H104l-3.5-30.6H100l3.7,34.2c0.2,1.6,1.6,2.9,3.2,2.9h41c1.6,0,3.1-1.3,3.2-2.9l3.7-34.2h-0.5
			L150.8,220.1z"/>
	</g>
	<path class="st1" d="M98.4,176.6h58.1c1.8,0,3.2,1.5,3.2,3.2v6.5c0,1.8-1.5,3.2-3.2,3.2H98.4c-1.8,0-3.2-1.5-3.2-3.2v-6.5
		C95.1,178,96.6,176.6,98.4,176.6z"/>
	<g class="st0">
		<polygon class="st13" points="116.9,226.6 110.5,226.6 106.4,189.5 112.9,189.5 		"/>
	</g>
	<path class="st2" d="M147.9,228.2h-41c-2.4,0-4.5-1.8-4.8-4.4l-3.7-34.2c-0.2-0.8,0.5-1.6,1.5-1.8h0.2h54.8c1,0,1.6,0.6,1.6,1.6
		v0.2l-3.7,34.2C152.4,226.3,150.3,228.2,147.9,228.2z M101.7,191.1l3.5,32.4c0.2,0.8,0.8,1.5,1.6,1.5h41c0.8,0,1.5-0.6,1.6-1.5
		l3.5-32.4H101.7z"/>
	<g class="st0">
		<rect x="104.8" y="176.6" class="st7" width="6.5" height="12.9"/>
	</g>
	<g class="st0">
		<path class="st13" d="M95.1,179.8v1.6h64.5v-1.6c0-1.8-1.5-3.2-3.2-3.2H98.4C96.6,176.6,95.1,178,95.1,179.8z"/>
	</g>
	<g class="st0">
		<path class="st12" d="M95.1,184.6v1.6c0,1.8,1.5,3.2,3.2,3.2h58.1c1.8,0,3.2-1.5,3.2-3.2v-1.6H95.1z"/>
	</g>
	<path class="st2" d="M156.4,191.1H98.4c-2.7,0-4.8-2.1-4.8-4.8v-6.5c0-2.7,2.1-4.8,4.8-4.8h58.1c2.7,0,4.8,2.1,4.8,4.8v6.5
		C161.3,189,159.2,191.1,156.4,191.1z M98.4,178.2c-1,0-1.6,0.6-1.6,1.6v6.5c0,1,0.6,1.6,1.6,1.6h58.1c1,0,1.6-0.6,1.6-1.6v-6.5
		c0-1-0.6-1.6-1.6-1.6H98.4z"/>
	<rect x="72.5" y="71.7" class="st4" width="111.3" height="58.1"/>
	<g class="st0">
		<rect x="72.5" y="100.8" class="st14" width="111.3" height="29"/>
	</g>
	<path class="st5" d="M175.8,114.6c-3.9,0-7.1,3.2-7.1,7.1l0,0h-81c0-3.9-3.2-7.1-7.1-7.1V86.9c3.9,0,7.1-3.2,7.1-7.1h81
		c0,3.9,3.2,7.1,7.1,7.1l0,0C175.8,86.9,175.8,114.6,175.8,114.6z"/>
	<path class="st2" d="M183.8,131.4H72.5c-1,0-1.6-0.6-1.6-1.6V71.7c0-1,0.6-1.6,1.6-1.6h111.3c1,0,1.6,0.6,1.6,1.6v58.1
		C185.5,130.8,184.8,131.4,183.8,131.4z M74.2,128.2h108.1V73.4H74.2V128.2z"/>
	<g class="st0">
		<path class="st14" d="M79.8,100.8v14.5c4,0,7.3,3.2,7.3,7.3h82.3c0-4,3.2-7.3,7.3-7.3v-14.5H79.8z"/>
	</g>
	<path class="st2" d="M168.7,123.4h-81c-1,0-1.6-0.6-1.6-1.6c0-3.1-2.4-5.5-5.5-5.5c-1,0-1.6-0.6-1.6-1.6V86.9c0-1,0.6-1.6,1.6-1.6
		c3.1,0,5.5-2.4,5.5-5.5c0-1,0.6-1.6,1.6-1.6h81c1,0,1.6,0.6,1.6,1.6c0,3.1,2.4,5.5,5.5,5.5l0,0c1,0,1.6,0.6,1.6,1.6v27.7
		c0,1-0.6,1.6-1.6,1.6c-3.1,0-5.5,2.4-5.5,5.5l0,0C170.3,122.7,169.5,123.4,168.7,123.4z M89.2,120.1h77.9c0.6-3.5,3.4-6.3,6.9-6.9
		V88.4c-3.5-0.6-6.3-3.4-6.9-6.9H89.2c-0.6,3.5-3.4,6.3-6.9,6.9V113C85.8,113.8,88.5,116.6,89.2,120.1z"/>
	<ellipse class="st4" cx="128.2" cy="103.2" rx="15.5" ry="19.4"/>
	<path class="st2" d="M128.2,124.2c-9.4,0-17.1-9.4-17.1-21s7.7-21,17.1-21c9.4,0,17.1,9.4,17.1,21S137.5,124.2,128.2,124.2z
		 M128.2,85.5c-7.6,0-13.9,7.9-13.9,17.7s6.3,17.7,13.9,17.7c7.6,0,13.9-7.9,13.9-17.7S135.8,85.5,128.2,85.5z"/>
	<circle class="st4" cx="96.7" cy="100.8" r="3.5"/>
	<path class="st2" d="M96.7,105.9c-2.9,0-5.2-2.4-5.2-5.2c0-2.7,2.4-5.2,5.2-5.2s5.2,2.4,5.2,5.2C101.9,103.5,99.6,105.9,96.7,105.9
		L96.7,105.9z M96.7,98.8c-1.1,0-1.9,1-1.9,1.9c0,1,1,1.9,1.9,1.9s1.9-1,1.9-1.9C98.7,99.8,97.9,98.8,96.7,98.8z"/>
	<circle class="st2" cx="79.8" cy="79" r="1.3"/>
	<path class="st2" d="M79.8,81.7c-1.6,0-2.9-1.3-2.9-2.9c0-1.6,1.3-2.9,2.9-2.9c1.6,0,2.9,1.3,2.9,2.9
		C82.7,80.5,81.4,81.7,79.8,81.7z M79.8,78.5c-0.2,0-0.3,0.2-0.3,0.3c0,0.5,0.8,0.5,0.8,0C80.3,78.8,80,78.5,79.8,78.5z"/>
	<circle class="st2" cx="79.8" cy="122.5" r="1.3"/>
	<path class="st2" d="M79.8,125.3c-1.6,0-2.9-1.3-2.9-2.9c0-1.6,1.3-2.9,2.9-2.9c1.6,0,2.9,1.3,2.9,2.9
		C82.7,124,81.4,125.3,79.8,125.3L79.8,125.3z M79.8,122.1c-0.2,0-0.3,0.2-0.3,0.3c0,0.5,0.8,0.5,0.8,0
		C80.3,122.4,80,122.1,79.8,122.1z"/>
	<circle class="st2" cx="176.6" cy="79" r="1.3"/>
	<path class="st2" d="M176.6,81.7c-1.6,0-2.9-1.3-2.9-2.9c0-1.6,1.3-2.9,2.9-2.9s2.9,1.3,2.9,2.9C179.5,80.5,178.2,81.7,176.6,81.7z
		 M176.6,78.5c-0.2,0-0.3,0.2-0.3,0.3c0,0.5,0.8,0.5,0.8,0C177.1,78.8,176.7,78.5,176.6,78.5z"/>
	<circle class="st2" cx="176.6" cy="122.5" r="1.3"/>
	<path class="st2" d="M176.6,125.3c-1.6,0-2.9-1.3-2.9-2.9c0-1.6,1.3-2.9,2.9-2.9s2.9,1.3,2.9,2.9
		C179.5,124,178.2,125.3,176.6,125.3L176.6,125.3z M176.6,122.1c-0.2,0-0.3,0.2-0.3,0.3c0,0.5,0.8,0.5,0.8,0
		C177.1,122.4,176.7,122.1,176.6,122.1z"/>
	<path class="st5" d="M134.5,113.8l-0.8-0.2c-0.5-0.2-1-0.5-1-1.1c0-0.6,0-1.1,0-1.8c0-1.5,1.8-3.2,1.9-5.3c0.5-1,0.8-2.3,1-3.4
		c0-0.5-0.2-1-0.5-1.3c0.2-0.8,0.3-1.6,0.5-2.4c0.6-3.4-0.5-5.8-3.5-6.8c-1.1-0.3-5.5-1.1-7.1-2.7c-0.6-0.6-0.2,2.7-0.8,2.9
		c-2.7,1-4.4,3.9-3.4,6.6c0.2,0.8,0.3,1.6,0.5,2.4c-0.3,0.3-0.5,0.8-0.5,1.3c0,1.1,0.3,2.3,1,3.4c0.2,2.1,1.9,3.7,1.9,5.3
		c0,0.6,0,1.3,0,1.8c0,0.5-0.3,1-0.8,1.1l-1,0.2c-1.8,0.3-3.7,1-5.3,1.9c2.3,3.5,6,6,10.2,6.6c0.5,0,1.1,0.2,1.6,0.2h0.2
		c0.5,0,1,0,1.5-0.2c4.2-0.6,7.9-3.1,10.2-6.8C138.4,114.8,136.4,114.2,134.5,113.8z"/>
	<path class="st2" d="M128.2,124.2L128.2,124.2c-0.6,0-1.1,0-1.8-0.2c-4.7-0.6-8.7-3.4-11.3-7.4c-0.5-0.8-0.3-1.8,0.5-2.3h0.2
		c1.8-1,3.7-1.8,5.8-2.1l0.5-0.2c0-0.5,0-1,0-1.5c-0.2-0.6-0.3-1.1-0.6-1.6c-0.6-1-1-2.1-1.1-3.2c-0.6-1.1-1-2.4-1-3.9
		c0-0.5,0.2-1.1,0.3-1.6l-0.3-0.6l-0.2-1.1c-1-3.2,0.6-6.6,3.7-8.1c0-0.2,0-0.5,0-0.6c0-1.1,0.2-2.3,1.3-2.7
		c0.6-0.3,1.5-0.2,1.9,0.3c1.6,1,3.4,1.6,5.2,1.9c0.6,0.2,1.1,0.3,1.3,0.3c3.7,1.3,5.3,4.5,4.5,8.7l-0.2,1.1l-0.2,0.6
		c0.2,0.5,0.3,1.1,0.3,1.6c0,1.3-0.3,2.6-1,3.7c-0.2,1.1-0.6,2.3-1.3,3.4c-0.3,0.5-0.5,1-0.6,1.6c0,0.5,0,1,0,1.5l0.5,0.2
		c2.1,0.3,4,1.1,6,2.1c0.8,0.5,1,1.5,0.6,2.3c0,0,0,0,0,0.2c-2.6,4-6.6,6.6-11.3,7.4c-0.5,0-1.1,0.2-1.6,0.2L128.2,124.2z
		 M119,116.4c1.9,2.4,4.8,4,7.9,4.5c0.5,0,1,0.2,1.5,0.2c0.5,0,1,0,1.5-0.2c3.1-0.5,6-2.1,7.9-4.5c-1-0.5-2.1-0.6-3.2-1l0,0
		l-1.1-0.2c-1.3-0.3-2.3-1.5-2.1-2.7c0-0.5,0-1.1,0-1.8c0.2-1.1,0.5-2.1,1-3.1c0.5-0.6,0.8-1.5,0.8-2.4c0-0.2,0-0.5,0.2-0.6
		c0.5-0.8,0.6-1.8,0.8-2.7c0-0.2,0-0.2,0-0.3c-0.3-0.3-0.5-0.8-0.3-1.3c0-0.5,0.2-0.8,0.2-1.3l0.2-1.1c0.5-2.6-0.3-4.4-2.4-5
		c-0.2,0-0.6-0.2-1.1-0.3c-1.5-0.3-3.1-0.8-4.4-1.5c0,0.8-0.5,1.5-1.1,1.8c-2.1,0.6-3.2,2.7-2.6,4.8l0,0l0.2,1.5
		c0,0.5,0.2,0.8,0.2,1.3c0.2,0.5,0,1-0.3,1.5c0,0,0,0,0,0.2c0,1,0.3,1.8,0.8,2.7c0.2,0.2,0.2,0.5,0.2,0.6c0.2,0.8,0.5,1.6,0.8,2.3
		c0.6,1,1,1.9,1,3.1c0,0.6,0,1.3,0,1.8c0,1.3-0.8,2.6-2.3,2.7l-1,0.2C120.9,115.6,120,115.9,119,116.4z M122.4,112.1L122.4,112.1z
		 M134,112.1L134,112.1z"/>
	<path class="st4" d="M147.5,121.7h-9.7c-2.9-1.8-6.3-2.6-9.7-2.4c-3.4-0.2-6.8,0.6-9.7,2.4h-9.7v8.1h38.7V121.7z"/>
	<path class="st2" d="M147.5,131.4h-38.7c-1,0-1.6-0.6-1.6-1.6v-8.1c0-1,0.6-1.6,1.6-1.6h9.2c3.1-1.6,6.6-2.6,10.2-2.4
		c3.5-0.2,7.1,0.8,10.2,2.4h9.2c1,0,1.6,0.6,1.6,1.6v8.1C149.2,130.8,148.5,131.4,147.5,131.4z M110.5,128.2h35.5v-4.8h-8.1
		c-0.3,0-0.6-0.2-1-0.3c-2.7-1.5-5.6-2.3-8.7-2.1c-3.1-0.2-6.1,0.6-8.7,2.1c-0.3,0.2-0.6,0.3-0.8,0.3h-8.1L110.5,128.2z"/>
	<path class="st2" d="M104,110.5H89.5c-1,0-1.6-0.6-1.6-1.6c0-1,0.6-1.6,1.6-1.6H104c1,0,1.6,0.6,1.6,1.6
		C105.6,109.8,104.8,110.5,104,110.5z"/>
	<circle class="st4" cx="159.6" cy="100.8" r="3.5"/>
	<path class="st2" d="M159.6,105.9c-2.9,0-5.2-2.4-5.2-5.2c0-2.7,2.4-5.2,5.2-5.2s5.2,2.4,5.2,5.2
		C164.8,103.5,162.5,105.9,159.6,105.9L159.6,105.9z M159.6,98.8c-1.1,0-1.9,1-1.9,1.9c0,1,1,1.9,1.9,1.9c1,0,1.9-1,1.9-1.9
		C161.6,99.8,160.8,98.8,159.6,98.8z"/>
	<path class="st2" d="M166.9,110.5h-14.5c-1,0-1.6-0.6-1.6-1.6c0-1,0.6-1.6,1.6-1.6h14.5c1,0,1.6,0.6,1.6,1.6
		C168.5,109.8,167.9,110.5,166.9,110.5z"/>
</g>
</svg>
