<?xml version="1.0" encoding="utf-8"?>
<!-- Generator: Adobe Illustrator 25.2.3, SVG Export Plug-In . SVG Version: 6.00 Build 0)  -->
<svg version="1.1" id="Layer_1" xmlns="http://www.w3.org/2000/svg" xmlns:xlink="http://www.w3.org/1999/xlink" x="0px" y="0px"
	 viewBox="0 0 258 258" style="enable-background:new 0 0 258 258;" xml:space="preserve">
<style type="text/css">
	.st0{fill:#7E6EAD;}
	.st1{fill:#ABA1CA;}
	.st2{fill:#9E92C1;}
	.st3{fill:#A195C3;}
	.st4{fill:#87C2B1;}
	.st5{fill:#CABF0E;}
</style>
<g id="flat">
	<path class="st0" d="M125.8,100.4c-2.1,0-3.6-1.4-3.6-3.6V64.7c0-2.1,1.4-3.6,3.6-3.6c2.1,0,3.6,1.4,3.6,3.6v32.1
		C129.4,99,127.9,100.4,125.8,100.4z"/>
	<path class="st1" d="M125.8,68.3H90.1c-11.8,0-21.4-9.6-21.4-21.4V29l0,0h35.7c11.8,0,21.4,9.6,21.4,21.4V68.3L125.8,68.3z"/>
	<path class="st2" d="M69,50.4h23.6c6.8,0,12.9,2.5,17.5,7.5l10.7,10.4h5v-5l-10.7-10.4c-5.7-6.1-13.9-9.6-22.5-9.6H68.6v3.6
		C68.6,48.3,68.6,49.4,69,50.4z"/>
	<path class="st2" d="M94.7,49.4c1.4,1.4,3.6,1.4,5,0c1.4-1.4,1.4-3.6,0-5l-2.1-2.1c-2.5-2.5-3.9-6.1-3.9-9.6V29h-7.1v3.6
		c0,5.4,2.1,10.7,6.1,14.6L94.7,49.4z"/>
	<path class="st3" d="M147.2,29h35.7l0,0v17.9c0,11.8-9.6,21.4-21.4,21.4h-35.7l0,0V50.4C125.8,38.6,135.4,29,147.2,29z"/>
	<path class="st0" d="M136.5,52.9l-10.7,10.4v5h5l10.7-10.4c4.6-4.6,11.1-7.5,17.5-7.5h23.6c0.4-1.1,0.4-2.1,0.4-3.6v-3.6H159
		C150.4,43.3,142.2,46.9,136.5,52.9z"/>
	<path class="st0" d="M165.1,29h-7.1v3.6c0,3.6-1.4,7.1-3.9,9.6l-2.1,2.1c-1.4,1.4-1.4,3.6,0,5c1.4,1.4,3.6,1.4,5,0l0,0l2.1-2.1
		c3.9-3.9,6.1-8.9,6.1-14.6V29z"/>
	<rect x="122.2" y="64.7" class="st3" width="3.6" height="28.6"/>
	<circle class="st4" cx="125.8" cy="146.9" r="57.1"/>
	<path class="st5" d="M122.2,229c-2.5,0-5-0.4-7.5-0.7l1.1-7.1c2.1,0.4,4.6,0.4,6.8,0.7L122.2,229z M133.6,228.6l-0.7-7.1
		c2.1-0.4,4.6-0.4,6.8-1.1l1.4,7.1C138.6,228.3,136.1,228.6,133.6,228.6z M103.3,226.1c-2.5-0.7-5-1.4-7.1-2.5l2.5-6.8
		c2.1,0.7,4.3,1.4,6.4,2.1L103.3,226.1z M151.9,224.7l-2.1-6.8c2.1-0.7,4.3-1.4,6.4-2.5l2.9,6.4C156.9,222.9,154.4,224,151.9,224.7
		L151.9,224.7z M85.8,218.6c-2.1-1.1-4.3-2.5-6.4-3.9l3.9-6.1c1.8,1.4,3.9,2.5,6.1,3.6L85.8,218.6z M169,216.9l-3.9-6.1
		c1.8-1.1,3.9-2.5,5.7-3.9l4.3,5.7C173.3,214,171.1,215.4,169,216.9L169,216.9z M70.4,207.6c-1.8-1.8-3.6-3.6-5.4-5.4l5.4-4.6
		c1.4,1.8,3.2,3.2,5,5L70.4,207.6z M184,205.1l-5-5c1.8-1.8,3.2-3.2,4.6-5l5.4,4.6C187.6,201.1,185.8,203.3,184,205.1L184,205.1z
		 M57.9,193.6c-1.4-2.1-2.9-4.3-3.9-6.4l6.1-3.6c1.1,2.1,2.5,3.9,3.6,5.7L57.9,193.6z M195.8,190.1l-6.1-3.9
		c1.1-1.8,2.5-3.9,3.2-6.1l6.4,3.2C198.3,185.8,196.9,187.9,195.8,190.1L195.8,190.1z M203.6,172.9l-6.8-2.1
		c0.7-2.1,1.4-4.3,1.8-6.8l6.8,1.8C205.1,168.3,204.4,170.4,203.6,172.9L203.6,172.9z M207.6,154.4l-7.1-0.7
		c0.4-2.1,0.4-4.3,0.4-6.8h7.1l0,0C207.9,149.4,207.9,151.9,207.6,154.4L207.6,154.4z M200.1,136.5c-0.4-2.1-0.7-4.6-1.4-6.8
		l6.8-1.8c0.7,2.5,1.1,5,1.4,7.5L200.1,136.5z M195.8,119.7c-0.7-2.1-1.8-4.3-2.9-6.4l6.4-3.2c1.1,2.1,2.1,4.6,3.2,6.8L195.8,119.7z
		 M187.6,104.4c-1.4-1.8-2.9-3.6-4.3-5.4l5.4-4.6c1.8,1.8,3.2,3.9,4.6,6.1L187.6,104.4z M176.1,91.5c-1.8-1.4-3.6-3.2-5.4-4.3
		l4.3-5.7c2.1,1.4,3.9,3.2,5.7,5L176.1,91.5z"/>
	<path class="st5" d="M50.8,146.9h-7.1c0-20.7,7.9-40.7,22.1-56.1l5.4,5C57.9,109.7,50.8,127.9,50.8,146.9z"/>
	<path class="st1" d="M125.8,111.1l-8.6-20.7c-31.1,4.6-52.5,33.6-47.9,65c1.1,7.1,3.6,13.9,6.8,20l13.9-7.1l-3.6-7.1l3.6-10.7
		l7.1-3.6l14.3,7.1l3.6,14.3l17.9,7.1h10.7v-10.7L132.9,154l14.3-10.7v-21.4l-7.1-10.7H125.8z"/>
	<path class="st1" d="M181.9,136.1h-9.6l-10.7,7.1v14.3l10.7,17.9l3.2-0.4C182.2,163.3,184.4,149.4,181.9,136.1L181.9,136.1z"/>
	<path class="st1" d="M107.9,182.6l-10.7,7.1l-1.8,5.4c8.9,6.1,19.6,8.9,30.4,8.9l-3.6-14.3L107.9,182.6z"/>
	<path class="st5" d="M72.2,107.6c-2.1,0-3.6-1.4-3.6-3.6V93.3H57.9c-2.1,0-3.6-1.4-3.6-3.6s1.4-3.6,3.6-3.6h14.3
		c2.1,0,3.6,1.4,3.6,3.6V104C75.8,106.1,74.4,107.6,72.2,107.6z"/>
</g>
</svg>
