<?xml version="1.0" encoding="utf-8"?>
<!-- Generator: Adobe Illustrator 25.3.1, SVG Export Plug-In . SVG Version: 6.00 Build 0)  -->
<svg version="1.1" id="Security" xmlns="http://www.w3.org/2000/svg" xmlns:xlink="http://www.w3.org/1999/xlink" x="0px" y="0px"
	 viewBox="0 0 180 180" style="enable-background:new 0 0 180 180;" xml:space="preserve">
<style type="text/css">
	.st0{opacity:0.5;fill:#7E6EAD;enable-background:new    ;}
	.st1{opacity:0.5;}
	.st2{fill:#7E6EAD;}
	.st3{fill:#87C2B1;}
	.st4{opacity:0.2;fill:#2A9274;enable-background:new    ;}
	.st5{opacity:0.5;fill:#FFFFFF;enable-background:new    ;}
	.st6{fill:#FFFFFF;}
</style>
<g>
	<path class="st0" d="M42.9,42.9h-4.5c-2.5,0-4.5-2-4.5-4.5v-9c0-2.5,2-4.5,4.5-4.5h4.5c2.5,0,4.5,2,4.5,4.5v9
		C47.4,40.9,45.4,42.9,42.9,42.9z M38.5,29.5v9h4.5v-9H38.5z"/>
	<path class="st0" d="M27.2,42.9c-1.2,0-2.2-1-2.2-2.2l0,0V27.2c0-1.2,1-2.2,2.2-2.2c1.2,0,2.2,1,2.2,2.2v13.5
		C29.5,41.9,28.5,42.9,27.2,42.9C27.3,42.9,27.2,42.9,27.2,42.9z"/>
	<path class="st0" d="M54.1,42.9c-1.2,0-2.2-1-2.2-2.2l0,0V27.2c0-1.2,1-2.2,2.2-2.2s2.2,1,2.2,2.2v13.5
		C56.4,41.9,55.4,42.9,54.1,42.9L54.1,42.9z"/>
	<g class="st1">
		<path class="st2" d="M63.1,42.9c-1.2,0-2.2-1-2.2-2.2l0,0V27.2c0-1.2,1-2.2,2.2-2.2c1.2,0,2.2,1,2.2,2.2v13.5
			C65.4,41.9,64.3,42.9,63.1,42.9L63.1,42.9z"/>
	</g>
	<g class="st1">
		<path class="st2" d="M72.1,42.9c-1.2,0-2.2-1-2.2-2.2l0,0V27.2c0-1.2,1-2.2,2.2-2.2s2.2,1,2.2,2.2v13.5
			C74.3,41.9,73.3,42.9,72.1,42.9L72.1,42.9z"/>
	</g>
	<path class="st0" d="M98.8,41.1c-0.4,0-0.8-0.1-1.1-0.3c-3.4-2.1-6.6-4.7-9.4-7.6c-0.3-0.4-0.5-0.9-0.5-1.5v-2.2
		c0-2.5,2-4.5,4.5-4.5h4.5c2.5,0,4.5,2,4.5,4.5v9c0,0.3-0.1,0.7-0.1,0.9c-0.2,0.7-0.7,1.3-1.4,1.6C99.4,41.1,99.1,41.1,98.8,41.1z
		 M92.2,30.9c1.4,1.4,2.9,2.7,4.5,3.9v-5.2h-4.5V30.9z"/>
	<path class="st0" d="M81,41.2c-1.2,0-2.2-1-2.2-2.2l0,0V27.2c0-1.2,1-2.2,2.2-2.2s2.2,1,2.2,2.2V39C83.3,40.2,82.3,41.2,81,41.2
		L81,41.2z"/>
	<path class="st0" d="M123.6,42.9h-4.5c-2.5,0-4.5-2-4.5-4.5v-9c0-2.5,2-4.5,4.5-4.5h4.5c2.5,0,4.5,2,4.5,4.5v9
		C128.1,40.9,126.1,42.9,123.6,42.9z M119.1,29.5v9h4.5v-9H119.1z"/>
	<path class="st0" d="M107.9,42.9c-1.2,0-2.2-1-2.2-2.2l0,0V27.2c0-1.2,1-2.2,2.2-2.2c1.2,0,2.2,1,2.2,2.2v13.5
		C110.2,41.9,109.2,42.9,107.9,42.9L107.9,42.9z"/>
	<path class="st0" d="M150.5,42.9H146c-2.5,0-4.5-2-4.5-4.5v-9c0-2.5,2-4.5,4.5-4.5h4.5c2.5,0,4.5,2,4.5,4.5v9
		C155,40.9,153,42.9,150.5,42.9z M146,29.5v9h4.5v-9H146z"/>
	<path class="st0" d="M134.9,42.9c-1.2,0-2.2-1-2.2-2.2l0,0V27.2c0-1.2,1-2.2,2.2-2.2c1.2,0,2.2,1,2.2,2.2v13.5
		C137.1,41.9,136.1,42.9,134.9,42.9L134.9,42.9z"/>
	<path class="st0" d="M42.9,155h-4.5c-2.5,0-4.5-2-4.5-4.5v-9c0-2.5,2-4.5,4.5-4.5h4.5c2.5,0,4.5,2,4.5,4.5v9
		C47.4,153,45.4,155,42.9,155z M38.5,141.5v9h4.5v-9H38.5z"/>
	<path class="st0" d="M27.2,155c-1.2,0-2.2-1-2.2-2.2l0,0v-13.5c0-1.2,1-2.2,2.2-2.2c1.2,0,2.2,1,2.2,2.2v13.5
		C29.5,154,28.5,155,27.2,155C27.3,155,27.2,155,27.2,155z"/>
	<path class="st0" d="M54.1,155c-1.2,0-2.2-1-2.2-2.2l0,0v-13.5c0-1.2,1-2.2,2.2-2.2s2.2,1,2.2,2.2v13.5C56.4,154,55.4,155,54.1,155
		L54.1,155z"/>
	<g class="st1">
		<path class="st2" d="M63.1,155c-1.2,0-2.2-1-2.2-2.2l0,0v-13.5c0-1.2,1-2.2,2.2-2.2c1.2,0,2.2,1,2.2,2.2v13.5
			C65.4,154,64.3,155,63.1,155L63.1,155z"/>
	</g>
	<g class="st1">
		<path class="st2" d="M72.1,155c-1.2,0-2.2-1-2.2-2.2l0,0v-13.5c0-1.2,1-2.2,2.2-2.2s2.2,1,2.2,2.2v13.5
			C74.3,154,73.3,155,72.1,155L72.1,155z"/>
	</g>
	<path class="st0" d="M96.7,155h-4.5c-2.5,0-4.5-2-4.5-4.5v-2.2c0-0.7,0.3-1.4,0.8-1.8l8.9-6.9c1-0.8,2.4-0.6,3.1,0.4
		c0.2,0.3,0.3,0.6,0.5,0.9c0.1,0.2,0.1,0.4,0.1,0.6v9C101.2,153,99.2,155,96.7,155z M92.2,149.4v1.2h4.5v-4.7L92.2,149.4z
		 M98.9,141.4L98.9,141.4z"/>
	<path class="st0" d="M81,155c-1.2,0-2.2-1-2.2-2.2l0,0v-11.4c0-1.2,1-2.2,2.2-2.2s2.2,1,2.2,2.2v11.4C83.3,154,82.3,155,81,155
		L81,155z"/>
	<path class="st0" d="M123.6,155h-4.5c-2.5,0-4.5-2-4.5-4.5v-9c0-2.5,2-4.5,4.5-4.5h4.5c2.5,0,4.5,2,4.5,4.5v9
		C128.1,153,126.1,155,123.6,155z M119.1,141.5v9h4.5v-9H119.1z"/>
	<path class="st0" d="M107.9,155c-1.2,0-2.2-1-2.2-2.2l0,0v-13.5c0-1.2,1-2.2,2.2-2.2c1.2,0,2.2,1,2.2,2.2v13.5
		C110.2,154,109.2,155,107.9,155L107.9,155z"/>
	<path class="st0" d="M150.5,155H146c-2.5,0-4.5-2-4.5-4.5v-9c0-2.5,2-4.5,4.5-4.5h4.5c2.5,0,4.5,2,4.5,4.5v9
		C155,153,153,155,150.5,155z M146,141.5v9h4.5v-9H146z"/>
	<path class="st0" d="M134.9,155c-1.2,0-2.2-1-2.2-2.2l0,0v-13.5c0-1.2,1-2.2,2.2-2.2c1.2,0,2.2,1,2.2,2.2v13.5
		C137.1,154,136.1,155,134.9,155L134.9,155z"/>
	<path class="st0" d="M27.2,65.4c-1.2,0-2.2-1-2.2-2.2l0,0V49.6c0-1.2,1-2.2,2.2-2.2c1.2,0,2.2,1,2.2,2.2v13.5
		C29.5,64.3,28.5,65.4,27.2,65.4C27.3,65.4,27.2,65.4,27.2,65.4z"/>
	<path class="st0" d="M36.2,65.4c-1.2,0-2.2-1-2.2-2.2l0,0V49.6c0-1.2,1-2.2,2.2-2.2s2.2,1,2.2,2.2v13.5
		C38.5,64.3,37.4,65.4,36.2,65.4L36.2,65.4z"/>
	<g class="st1">
		<path class="st2" d="M45.2,65.4c-1.2,0-2.2-1-2.2-2.2l0,0V49.6c0-1.2,1-2.2,2.2-2.2s2.2,1,2.2,2.2v13.5
			C47.4,64.3,46.4,65.4,45.2,65.4L45.2,65.4z"/>
	</g>
	<path class="st0" d="M143.8,65.4c-1.2,0-2.2-1-2.2-2.2l0,0V49.6c0-1.2,1-2.2,2.2-2.2c1.2,0,2.2,1,2.2,2.2v13.5
		C146,64.3,145.1,65.4,143.8,65.4L143.8,65.4z"/>
	<path class="st0" d="M152.8,65.4c-1.2,0-2.2-1-2.2-2.2l0,0V49.6c0-1.2,1-2.2,2.2-2.2c1.2,0,2.2,1,2.2,2.2v13.5
		C155,64.3,154,65.4,152.8,65.4L152.8,65.4z"/>
	<path class="st0" d="M143.8,110.2c-1.2,0-2.2-1-2.2-2.2l0,0V94.5c0-1.2,1-2.2,2.2-2.2c1.2,0,2.2,1,2.2,2.2v13.5
		C146,109.2,145.1,110.2,143.8,110.2L143.8,110.2z"/>
	<path class="st0" d="M152.8,110.2c-1.2,0-2.2-1-2.2-2.2l0,0V94.5c0-1.2,1-2.2,2.2-2.2c1.2,0,2.2,1,2.2,2.2v13.5
		C155,109.2,154,110.2,152.8,110.2L152.8,110.2z"/>
	<path class="st0" d="M34,87.8h-4.5c-2.5,0-4.5-2-4.5-4.5v-9c0-2.5,2-4.5,4.5-4.5H34c2.5,0,4.5,2,4.5,4.5v9
		C38.5,85.8,36.4,87.7,34,87.8z M29.5,74.3v9H34v-9H29.5z"/>
	<g class="st1">
		<path class="st2" d="M45.2,87.8c-1.2,0-2.2-1-2.2-2.2l0,0V72.1c0-1.2,1-2.2,2.2-2.2s2.2,1,2.2,2.2v13.5
			C47.4,86.8,46.4,87.8,45.2,87.8L45.2,87.8z"/>
	</g>
	<path class="st0" d="M150.5,87.8H146c-2.5,0-4.5-2-4.5-4.5v-9c0-2.5,2-4.5,4.5-4.5h4.5c2.5,0,4.5,2,4.5,4.5v9
		C155,85.8,153,87.7,150.5,87.8z M146,74.3v9h4.5v-9H146z"/>
	<path class="st0" d="M134.9,87.8c-1.2,0-2.2-1-2.2-2.2l0,0V72.1c0-1.2,1-2.2,2.2-2.2c1.2,0,2.2,1,2.2,2.2v13.5
		C137.1,86.8,136.1,87.8,134.9,87.8L134.9,87.8z"/>
	<path class="st0" d="M42.9,110.2h-4.5c-2.5,0-4.5-2-4.5-4.5v-9c0-2.5,2-4.5,4.5-4.5h4.5c2.5,0,4.5,2,4.5,4.5v9
		C47.4,108.1,45.4,110.2,42.9,110.2z M38.5,96.7v9h4.5v-9H38.5z"/>
	<path class="st0" d="M27.2,110.2c-1.2,0-2.2-1-2.2-2.2l0,0V94.5c0-1.2,1-2.2,2.2-2.2c1.2,0,2.2,1,2.2,2.2v13.5
		C29.5,109.2,28.5,110.2,27.2,110.2C27.3,110.2,27.2,110.2,27.2,110.2z"/>
	<path class="st0" d="M134.9,110.2c-1.2,0-2.2-1-2.2-2.2l0,0V94.5c0-1.2,1-2.2,2.2-2.2c1.2,0,2.2,1,2.2,2.2v13.5
		C137.1,109.2,136.1,110.2,134.9,110.2L134.9,110.2z"/>
	<path class="st0" d="M51.9,132.6h-4.5c-2.5,0-4.5-2-4.5-4.5v-9c0-2.5,2-4.5,4.5-4.5h4.5c2.5,0,4.5,2,4.5,4.5v9
		C56.4,130.6,54.4,132.6,51.9,132.6z M47.4,119.1v9h4.5v-9H47.4z"/>
	<path class="st0" d="M27.2,132.6c-1.2,0-2.2-1-2.2-2.2l0,0v-13.5c0-1.2,1-2.2,2.2-2.2c1.2,0,2.2,1,2.2,2.2v13.5
		C29.5,131.6,28.5,132.6,27.2,132.6C27.3,132.6,27.2,132.6,27.2,132.6z"/>
	<path class="st0" d="M36.2,132.6c-1.2,0-2.2-1-2.2-2.2l0,0v-13.5c0-1.2,1-2.2,2.2-2.2s2.2,1,2.2,2.2v13.5
		C38.5,131.6,37.4,132.6,36.2,132.6L36.2,132.6z"/>
	<g class="st1">
		<path class="st2" d="M63.1,132.6c-1.2,0-2.2-1-2.2-2.2l0,0v-2.9c0-1.2,1-2.2,2.2-2.2c1.2,0,2.2,1,2.2,2.2v2.9
			C65.4,131.6,64.3,132.6,63.1,132.6L63.1,132.6z"/>
	</g>
	<path class="st0" d="M123.6,132.6h-4.5c-2.5,0-4.5-2-4.5-4.5v-0.6c0-0.7,0.3-1.3,0.8-1.7c3.1-2.7,5.9-5.7,8.2-9.1
		c0.7-1,2.1-1.2,3.1-0.6c0.3,0.1,0.5,0.4,0.6,0.6c0.5,0.7,0.8,1.6,0.8,2.5v9C128.1,130.6,126.1,132.6,123.6,132.6z M119.5,128.1h4.1
		v-4.2C122.3,125.4,120.9,126.8,119.5,128.1z"/>
	<path class="st0" d="M150.5,132.6H146c-2.5,0-4.5-2-4.5-4.5v-9c0-2.5,2-4.5,4.5-4.5h4.5c2.5,0,4.5,2,4.5,4.5v9
		C155,130.6,153,132.6,150.5,132.6z M146,119.1v9h4.5v-9H146z"/>
	<path class="st0" d="M134.9,132.6c-1.2,0-2.2-1-2.2-2.2l0,0v-13.5c0-1.2,1-2.2,2.2-2.2c1.2,0,2.2,1,2.2,2.2v13.5
		C137.1,131.6,136.1,132.6,134.9,132.6L134.9,132.6z"/>
	<path class="st3" d="M134.9,49C104.9,49,90,31.7,90,31.7S75.1,49,45.2,49v39.1c0,16.1,7.4,31.3,20.2,41.2l24.6,19l24.6-19
		c12.7-9.9,20.2-25.1,20.2-41.2V49z"/>
	<path class="st4" d="M134.9,49C104.9,49,90,31.7,90,31.7v116.5l24.6-19c12.7-9.9,20.2-25.1,20.2-41.2V49z"/>
	<path class="st4" d="M114.6,122.6l-24.6,19l-24.6-19c-12.7-9.9-20.2-25.1-20.2-41.2v6.7c0,16.1,7.4,31.3,20.2,41.2l24.6,19l24.6-19
		c12.7-9.9,20.2-25.1,20.2-41.2v-6.7C134.9,97.5,127.4,112.7,114.6,122.6z"/>
	<path class="st5" d="M90,31.7c0,0-14.9,17.3-44.8,17.3v5.7C75.1,54.7,90,40.1,90,40.1s14.9,14.6,44.9,14.6V49
		C104.9,49,90,31.7,90,31.7z"/>
	<path class="st2" d="M90,150.5c-0.5,0-1-0.2-1.4-0.5l-24.6-19c-13.3-10.3-21.1-26.2-21.1-43V49c0-1.2,1-2.2,2.2-2.2l0,0
		c28.4,0,43-16.3,43.2-16.5c0.5-0.5,1-0.8,1.7-0.8l0,0c0.7,0,1.2,0.3,1.7,0.8c0.1,0.1,14.7,16.5,43.2,16.5c1.2,0,2.2,1,2.2,2.2l0,0
		v39.1c0,16.8-7.8,32.6-21.1,43l-24.6,19C91,150.4,90.5,150.5,90,150.5z M47.4,51.2v36.9c0,15.4,7.2,30,19.3,39.5L90,145.4
		l23.3-17.9c12.2-9.5,19.3-24,19.3-39.5V51.2c-23.9-0.7-38-11.9-42.6-16.2C85.4,39.3,71.3,50.5,47.4,51.2z"/>
	<g class="st1">
		<path class="st2" d="M54.1,59.7c-0.3,0-0.6-0.1-0.8-0.2c-0.3-0.1-0.5-0.3-0.7-0.5c-0.4-0.4-0.7-1-0.7-1.6c0-0.6,0.3-1.2,0.7-1.6
			c0.1-0.1,0.2-0.2,0.4-0.3c0.1-0.1,0.3-0.1,0.4-0.2c0.1-0.1,0.3-0.1,0.5-0.1c0.5-0.1,0.8-0.1,1.3,0.1c0.8,0.3,1.4,1.2,1.4,2.1
			c0,0.6-0.3,1.2-0.6,1.6c-0.2,0.2-0.5,0.3-0.7,0.5C54.7,59.6,54.4,59.7,54.1,59.7z"/>
		<path class="st2" d="M81.8,133.5c-1-0.8-1.2-2.1-0.5-3.2l0,0c0.8-1,2.1-1.2,3.2-0.4l0,0c1,0.8,1.2,2.1,0.4,3.1l0,0l0,0
			c-0.4,0.6-1.1,0.8-1.8,0.8l0,0C82.7,133.9,82.3,133.8,81.8,133.5z M75.1,128.3c-1-0.8-1.2-2.1-0.4-3.2l0,0c0.8-1,2.1-1.2,3.1-0.4
			l0,0c1,0.8,1.2,2.1,0.5,3.1l0,0c-0.5,0.6-1.1,0.9-1.8,0.8l0,0C75.9,128.7,75.4,128.5,75.1,128.3z M68.2,123
			c-1-0.8-1.1-2.2-0.3-3.2l0,0c0.8-1,2.1-1.1,3.1-0.3c0,0,0,0,0.1,0l0,0c1,0.8,1.1,2.2,0.3,3.2l0,0c-0.5,0.5-1,0.8-1.8,0.8l0,0
			C69.1,123.5,68.6,123.3,68.2,123L68.2,123z M61.9,116.6c-0.8-1-0.7-2.4,0.3-3.2l0,0l0,0c1-0.8,2.3-0.7,3.1,0.3l0,0l0,0
			c0.8,1,0.6,2.3-0.4,3.1l0,0c-0.4,0.3-0.9,0.5-1.4,0.5l0,0C63,117.4,62.4,117.1,61.9,116.6L61.9,116.6z M57,109L57,109
			c-0.6-1.1-0.1-2.5,1-3.1l0,0c1.1-0.6,2.5-0.1,3.1,1l0,0c0.6,1.1,0.1,2.5-1,3.1l0,0c-0.3,0.1-0.6,0.3-1,0.3l0,0
			C58.2,110.3,57.4,109.8,57,109z M53.7,100.7c-0.3-1.2,0.3-2.4,1.5-2.8l0,0c1.2-0.3,2.4,0.3,2.8,1.5l0,0c0.3,1.2-0.3,2.4-1.5,2.8
			l0,0l0,0c-0.2,0.1-0.4,0.1-0.6,0.1l0,0C54.8,102.3,54,101.7,53.7,100.7z M52,91.9L52,91.9c-0.1-1.2,0.8-2.3,2-2.4l0,0l0,0
			c1.2-0.1,2.3,0.8,2.4,2l0,0l0,0c0.1,1.2-0.8,2.3-2,2.4l0,0h-0.2C53.1,94,52.2,93.1,52,91.9z M51.9,83.1c0-1.2,1-2.2,2.2-2.2l0,0
			c1.2,0,2.2,1,2.2,2.2l0,0c0,1.2-1,2.2-2.2,2.2l0,0C52.9,85.4,51.9,84.3,51.9,83.1z M51.9,74.6c0-1.2,1-2.2,2.2-2.2l0,0
			c1.2,0,2.2,1,2.2,2.2l0,0c0,1.2-1,2.2-2.2,2.2l0,0C52.9,76.8,51.9,75.8,51.9,74.6z M51.9,66c0-1.2,1-2.2,2.2-2.2l0,0
			c1.2,0,2.2,1,2.2,2.2l0,0c0,1.2-1,2.2-2.2,2.2l0,0C52.9,68.3,51.9,67.2,51.9,66L51.9,66z"/>
		<path class="st2" d="M90,139.2c-1.2,0-2.2-1-2.2-2.2c0,0,0,0,0-0.1c0-0.3,0.1-0.6,0.2-0.8c0.1-0.3,0.3-0.5,0.5-0.7
			c0.9-0.8,2.3-0.8,3.2,0c0.2,0.2,0.4,0.5,0.5,0.7c0.5,1.1-0.1,2.4-1.2,2.9C90.6,139.1,90.3,139.2,90,139.2z"/>
		<path class="st2" d="M95,133.1c-0.8-1-0.6-2.4,0.4-3.1l0,0c1-0.8,2.4-0.6,3.2,0.4l0,0l0,0c0.7,1,0.6,2.4-0.5,3.1l0,0
			c-0.4,0.3-0.8,0.5-1.4,0.5l0,0C96,134,95.4,133.7,95,133.1z M101.8,127.9c-0.7-1-0.6-2.4,0.5-3.1l0,0c1-0.8,2.3-0.6,3.1,0.4l0,0
			l0,0c0.7,1,0.6,2.4-0.5,3.1l0,0c-0.4,0.3-0.8,0.5-1.4,0.5l0,0C102.9,128.7,102.2,128.4,101.8,127.9z M108.6,122.7
			c-0.8-1-0.7-2.3,0.3-3.2l0,0c1-0.8,2.3-0.6,3.2,0.3l0,0l0,0c0.8,1,0.7,2.3-0.3,3.1l0,0c-0.4,0.3-0.9,0.5-1.4,0.5l0,0
			C109.6,123.5,109,123.2,108.6,122.7z M114.9,116.9c-1-0.8-1.1-2.2-0.3-3.2l0,0l0,0c0.8-1,2.1-1.1,3.1-0.3l0,0l0,0
			c1,0.8,1.1,2.1,0.3,3.1l0,0l0,0c-0.4,0.5-1,0.8-1.8,0.8l0,0C115.8,117.4,115.3,117.2,114.9,116.9L114.9,116.9z M119.9,110
			c-1.1-0.6-1.5-2-0.9-3.1l0,0c0.6-1.1,1.9-1.5,3-1l0,0l0,0c1.1,0.6,1.5,1.9,1,3l0,0l0,0c-0.4,0.7-1.2,1.2-2,1.2l0,0
			C120.6,110.3,120.2,110.2,119.9,110L119.9,110z M123.5,102.3c-1.2-0.3-1.9-1.6-1.5-2.8l0,0c0.3-1.2,1.6-1.9,2.8-1.5l0,0
			c1.2,0.3,1.9,1.6,1.6,2.7l0,0l0,0c-0.3,1-1.2,1.6-2.1,1.6l0,0C123.9,102.3,123.7,102.3,123.5,102.3L123.5,102.3z M125.5,94
			c-1.2-0.1-2.1-1.2-2-2.4l0,0c0.1-1.2,1.2-2.1,2.4-2l0,0l0,0c1.2,0.1,2.1,1.2,2,2.4l0,0c-0.1,1.2-1.1,2-2.2,2H125.5L125.5,94z
			 M123.6,83.2c0-1.2,1-2.2,2.2-2.2l0,0c1.2,0,2.2,1,2.2,2.2l0,0c0,1.2-1,2.2-2.2,2.2l0,0C124.6,85.4,123.6,84.4,123.6,83.2z
			 M123.6,74.6c0-1.2,1-2.2,2.2-2.2l0,0c1.2,0,2.2,1,2.2,2.2l0,0c0,1.2-1,2.2-2.2,2.2l0,0l0,0C124.6,76.9,123.6,75.8,123.6,74.6
			L123.6,74.6z M123.6,66.1c0-1.2,1-2.2,2.2-2.2l0,0l0,0c1.2,0,2.2,1,2.2,2.2l0,0l0,0c0,1.2-1,2.2-2.2,2.2l0,0
			C124.6,68.3,123.6,67.3,123.6,66.1z"/>
		<path class="st2" d="M125.9,59.7c-0.6,0-1.2-0.3-1.6-0.6c-0.2-0.2-0.3-0.5-0.5-0.7s-0.2-0.6-0.2-0.8c0-1.2,1-2.2,2.2-2.2
			s2.2,1,2.2,2.2c0,0.3-0.1,0.6-0.2,0.8c-0.1,0.3-0.3,0.5-0.5,0.7c-0.2,0.2-0.5,0.4-0.7,0.5C126.5,59.6,126.1,59.7,125.9,59.7z"/>
		<path class="st2" d="M115.7,58L115.7,58c-1.2-0.3-2-1.5-1.7-2.7l0,0c0.3-1.2,1.5-2,2.7-1.7l0,0c1.2,0.3,1.9,1.5,1.7,2.7l0,0
			c-0.3,1-1.2,1.8-2.2,1.8l0,0C116.1,58.1,115.9,58.1,115.7,58z M106.2,55.1c-1.2-0.5-1.7-1.8-1.3-2.9l0,0c0.5-1.2,1.7-1.8,2.9-1.3
			c0,0,0,0,0.1,0l0,0c1.2,0.5,1.8,1.8,1.3,2.9l0,0l0,0c-0.3,0.8-1.2,1.4-2.1,1.4l0,0C106.7,55.2,106.4,55.2,106.2,55.1L106.2,55.1z
			 M97.1,50.9c-1.1-0.6-1.5-2-0.8-3.1l0,0c0.6-1.1,2-1.5,3.1-0.9l0,0c1.1,0.6,1.5,2,0.9,3.1l0,0l0,0c-0.4,0.7-1.2,1.2-1.9,1.2l0,0
			C97.8,51.1,97.4,51.1,97.1,50.9z"/>
		<path class="st2" d="M90,45.9c-0.3,0-0.6-0.1-0.8-0.1c-0.3-0.1-0.5-0.3-0.7-0.5c-0.4-0.4-0.7-1-0.7-1.6c0-0.3,0.1-0.6,0.2-0.8
			c0.1-0.3,0.3-0.5,0.5-0.7c0.9-0.8,2.3-0.8,3.2,0c0.2,0.2,0.4,0.5,0.5,0.7c0.5,1.1-0.1,2.4-1.2,2.9C90.6,45.8,90.3,45.9,90,45.9z"
			/>
		<path class="st2" d="M61.5,56.3c-0.3-1.2,0.5-2.4,1.7-2.7l0,0c1.2-0.3,2.4,0.5,2.7,1.7l0,0c0.3,1.2-0.5,2.4-1.7,2.7l0,0
			C64,58,63.9,58,63.7,58l0,0C62.7,58.1,61.8,57.4,61.5,56.3z M71,53.8c-0.5-1.2,0.1-2.5,1.3-2.9l0,0l0,0c1.2-0.5,2.4,0.1,2.9,1.2
			c0,0,0,0,0,0.1l0,0c0.5,1.2-0.1,2.5-1.3,2.9l0,0c-0.3,0.1-0.5,0.1-0.8,0.1l0,0C72.1,55.2,71.3,54.6,71,53.8z M79.9,50
			c-0.6-1.1-0.2-2.4,0.8-3.1l0,0l0,0c1.1-0.6,2.4-0.2,3.1,0.9l0,0c0.6,1.1,0.2,2.5-0.8,3.1l0,0c-0.3,0.2-0.7,0.3-1.1,0.3l0,0
			C81,51.1,80.2,50.7,79.9,50z"/>
	</g>
	<path class="st4" d="M114.4,91.3c-2.9-6.2-12-16-24.4-16s-21.6,9.8-24.4,16c-0.3,0.6-0.3,1.3,0,1.9c2.9,6.2,12,16,24.4,16
		s21.6-9.8,24.4-16C114.7,92.6,114.7,91.9,114.4,91.3z"/>
	<path class="st6" d="M90,73.1c-11.8,0-20.2,9.7-22.4,14.7c2.3,5,10.6,14.7,22.4,14.7s20.2-9.7,22.4-14.7
		C110.2,82.8,101.8,73.1,90,73.1z"/>
	<path class="st4" d="M90,95.7c-9.5,0-16.7-6.2-20.4-11.3c-0.8,1-1.4,2.2-2,3.4c2.3,5,10.6,14.7,22.4,14.7s20.2-9.7,22.4-14.7
		c-0.6-1.2-1.2-2.3-2-3.4C106.7,89.5,99.5,95.7,90,95.7z"/>
	<circle class="st3" cx="90" cy="87.7" r="6.7"/>
	<path class="st2" d="M90,104.7c-12.5,0-21.6-9.8-24.4-16c-0.3-0.6-0.3-1.3,0-1.9c2.9-6.2,12-16,24.4-16s21.6,9.8,24.4,16
		c0.3,0.6,0.3,1.3,0,1.9C111.6,94.9,102.5,104.7,90,104.7z M70.1,87.8c2.5,4.6,9.9,12.4,19.9,12.4s17.4-7.9,19.9-12.4
		c-2.5-4.6-9.9-12.4-19.9-12.4S72.6,83.2,70.1,87.8z"/>
	<path class="st2" d="M90.1,96.7c-4.9,0-9-4-9-9c0-4.9,4-9,9-9c1.3,0,2.5,0.3,3.7,0.8c1.1,0.5,1.6,1.8,1.1,3c-0.5,1.1-1.8,1.6-3,1.1
		l0,0c-0.6-0.3-1.2-0.4-1.9-0.4c-2.5,0-4.5,2-4.5,4.5c0,2.5,2,4.5,4.5,4.5s4.5-2,4.5-4.5c0-1.2,1-2.3,2.2-2.3s2.3,1,2.3,2.2l0,0
		C99,92.7,95,96.7,90.1,96.7z"/>
</g>
</svg>
