<?xml version="1.0" encoding="utf-8"?>
<!-- Generator: Adobe Illustrator 25.3.1, SVG Export Plug-In . SVG Version: 6.00 Build 0)  -->
<svg version="1.1" id="Twotone" xmlns="http://www.w3.org/2000/svg" xmlns:xlink="http://www.w3.org/1999/xlink" x="0px" y="0px"
	 viewBox="0 0 180 180" style="enable-background:new 0 0 180 180;" xml:space="preserve">
<style type="text/css">
	.st0{fill:#87C2B1;}
	.st1{fill:#C7BBEA;}
	.st2{fill:#7E6EAD;}
</style>
<g>
	<g id="Stroke_copy_3">
		<g>
			<g>
				<path class="st0" d="M98.7,111.6c-31.1,0-56.2-25.1-56.2-56.2c0-3.9,0.5-7.8,1.1-11.4c-21.9,22-21.6,57.7,0.4,79.6
					s57.8,21.6,79.6-0.5c7.5-7.8,13-17.6,15.1-28.1C128.1,105.6,113.6,111.6,98.7,111.6z"/>
				<path class="st1" d="M109.7,33.7L90,48.9l13,13l-19.5,6.5l-4.4,15.1L96.4,90L79.1,116l45.6,5.7c21-22.9,19.7-58.4-3.3-79.4
					C118.2,38.9,114.1,36.1,109.7,33.7z"/>
				<path class="st1" d="M59.7,100.8V83.5l-13-15.1l13-8.6l-4.4-13L45.6,42C22.7,62.7,21,98.4,42,121.3c2.4,2.8,5.2,5.2,8.2,7.3
					l-1.3-19.2L59.7,100.8z"/>
				<path class="st1" d="M64.1,122.5L63,135.8c5.2,2.1,10.6,3.3,16.3,3.7v-8.5L64.1,122.5z"/>
				<path class="st1" d="M96.7,28.8c-10.4-2.6-21.2-2-31.4,1.3l7.3,12.4L96.7,28.8z"/>
			</g>
			<path class="st0" d="M135.4,46.7h17.3l0,0V51c0,11.9-9.8,21.6-21.6,21.6h-17.3l0,0v-4.4C113.8,56.5,123.5,46.7,135.4,46.7z"/>
			<circle class="st0" cx="122.4" cy="122.5" r="30.3"/>
		</g>
	</g>
	<g id="Stroke_Close_copy">
		<g>
			<path class="st2" d="M154.9,51v-4.4c0-1.3-0.8-2.1-2.1-2.1h-17.3c-2.6,0-5,0.5-7.3,1.3c-21.1-24.6-57.9-27.9-82.5-6.9
				S18,96.4,39,121.2c13.8,16.4,35.7,23.8,56.7,19.5c9.9,15,30.1,18.9,45,8.8c14.9-10,18.9-30.1,8.8-45c-2.4-3.4-5.4-6.5-8.8-8.8
				c1.8-7.5,1.8-15.3,0.2-22.9C149.5,68.8,154.9,60.4,154.9,51z M90.5,29.8l-17.1,9.5l-4.7-7.8C75.7,29.6,83.3,29,90.5,29.8
				L90.5,29.8z M29.4,83.5c0-14.7,6-28.8,16.6-38.9l7.5,3.7l3.5,10.5l-11.7,7.8c-0.5,0.5-0.8,0.8-0.8,1.5s0,1.3,0.5,1.8l12.5,14.5
				v15.3l-9.9,8c-0.7,0.5-0.8,1.1-0.8,1.8l0.8,14.3C36.1,113.5,29.4,98.9,29.4,83.5z M77,137.1c-4.1-0.5-8-1.5-11.9-2.8l0.7-8.5
				l11.1,6.3v5L77,137.1L77,137.1z M83.5,137.6c-0.7,0-1.5,0-2.1,0v-6.5c0-0.8-0.5-1.5-1.1-2l-15.1-8.6c-0.7-0.5-1.5-0.5-2.1,0
				c-0.7,0.5-1.1,1.1-1.1,1.8L61,132.7c-3.1-1.5-6-3.3-8.8-5.2l-1.1-16.9l9.9-8c0.7-0.5,0.8-1.1,0.8-1.8V83.5c0-0.5-0.2-1.1-0.5-1.3
				L50,69L61,61.7c0.8-0.5,1.1-1.5,0.8-2.4l-4.4-13c-0.2-0.5-0.7-1.1-1.1-1.3l-6.7-3.4c4.6-3.7,9.5-6.5,15-8.5L71,43.7
				c0.5,0.7,1.1,1.1,2,1.1c0.5,0,0.7,0,1.1-0.2l23.3-13.2c2.8,0.8,5.9,1.8,8.5,3.1l-16.9,13c-0.5,0.5-0.8,0.8-0.8,1.5
				c0,0.7,0.2,1.3,0.7,1.8l10.6,10.6l-16.4,4.9c-0.7,0.2-1.3,0.8-1.3,1.5l-4.4,15.1c-0.2,1.1,0.2,2.1,1.3,2.6l14.7,5.4l-15.8,23.8
				c-0.5,0.7-0.5,1.5-0.2,2.1c0.3,0.7,0.8,1.1,1.8,1.3l11.2,1.5c0,1.1-0.2,2-0.2,3.1c0,5,1.1,9.8,3.3,14.3
				C90,137.3,86.8,137.6,83.5,137.6z M150.6,122.5c0,15.6-12.5,28.1-28.1,28.1s-28.1-12.5-28.1-28.1s12.5-28.1,28.1-28.1
				S150.6,106.9,150.6,122.5z M137.6,83.5c0,3.3-0.2,6.5-0.8,9.8c-4.4-2.1-9.3-3.3-14.3-3.3c-15.1,0-28.3,10.4-31.6,25.3l-8-1.1
				l15.3-23.1c0.5-0.7,0.5-1.3,0.2-2c-0.2-0.7-0.7-1.1-1.3-1.3L81.7,82l3.4-12.1l18.4-6c1.1-0.5,1.8-1.5,1.3-2.8
				c0-0.2-0.2-0.7-0.5-0.8L93.3,48.9l16.6-12.7c5.2,3.1,9.9,6.7,14,11.2c-7.5,4.6-12.4,12.4-12.4,21v4.4c0,1.3,0.8,2.1,2.1,2.1H131
				c2,0,3.9-0.2,5.7-0.7C137.4,77.2,137.6,80.3,137.6,83.5z M131.1,70.5h-10.1l6.5-4.4h10.1c1.3,0,2.1-0.8,2.1-2.1
				c0-1.3-0.8-2.1-2.1-2.1h-3.7l9.1-6c1.1-0.7,1.3-2,0.7-3.1l0,0c-0.7-1.1-2-1.3-3.1-0.7l-3.3,2.1v-1.1c0-1.3-0.8-2.1-2.1-2.1
				s-2.1,0.8-2.1,2.1v3.9l-4.4,2.8v-2.3c0-1.3-0.8-2.1-2.1-2.1c-1.3,0-2.1,0.8-2.1,2.1v5.4l-8.6,5.9v-0.5c0-10.8,8.6-19.5,19.5-19.5
				h15.1V51C150.6,61.9,141.9,70.5,131.1,70.5z"/>
			<path class="st2" d="M120.8,108.6l5,7.2c0.5,0.7,1.1,0.8,1.8,0.8c0.5,0,0.8-0.2,1.3-0.5c1.1-0.7,1.3-2,0.5-3.1l0,0l-2-2.8
				c5,2,8.2,6.7,8.2,12.1c0,1.3,0.8,2.1,2.1,2.1c1.3,0,2.1-0.8,2.1-2.1c0-7.3-4.7-14-11.7-16.4l2.8-2c1.1-0.7,1.3-2,0.7-3.1
				c-0.7-1.1-2-1.3-3.1-0.7l-0.2,0.2l-7.2,5C120.3,106.2,120.1,107.5,120.8,108.6z"/>
			<path class="st2" d="M113.8,120.2c-1.1-0.5-2.4,0-2.8,1.1l-1.5,3.1c0-0.7-0.2-1.3-0.2-2c0-4.6,2.4-8.8,6.5-11.2
				c1.1-0.7,1.5-2,0.8-2.8c-0.7-0.8-2-1.5-2.8-0.8c0,0,0,0-0.2,0c-5.4,3.1-8.6,8.8-8.6,15c0,1.1,0.2,2.4,0.5,3.4l-3.1-1.5
				c-1.1-0.5-2.4,0-2.8,1.1c-0.5,1.1,0,2.4,1.1,2.8l7.8,3.7c0.2,0.2,0.7,0.2,0.8,0.2c0.8,0,1.5-0.5,2-1.3l3.7-7.8
				C115.4,122,114.9,120.7,113.8,120.2z"/>
			<path class="st2" d="M135.4,127.8l-8.6,0.7c-1.3,0-2.1,1.1-2,2.4l0,0c0.2,1.1,1.1,2,2.4,2l3.3-0.2c-4.1,3.3-9.9,3.7-14.5,1.1
				c-1.1-0.7-2.4-0.2-2.8,0.8c-0.5,1.1-0.2,2.1,0.7,2.8c6.5,3.7,14.5,3.1,20.2-2l0.2,3.4c0,1.1,1.1,2,2.1,2h0.2c1.1,0,2.1-1.1,2-2.4
				l-0.7-8.6C137.6,128.7,136.6,127.8,135.4,127.8z"/>
		</g>
	</g>
</g>
</svg>
