<svg width="140" height="140" viewBox="0 0 140 140" fill="none" xmlns="http://www.w3.org/2000/svg">
<g clip-path="url(#clip0)">
<path d="M34.3418 81.87V58.106H30.3452V81.87L32.3794 79.9076L34.3418 81.87Z" fill="#CABF0E"/>
<path d="M71.9624 60.0444H70C70 58.082 70.7658 56.311 71.9624 54.8751V41.4495C70.7658 40.0854 70 38.0512 70 36.2803C70 38.2427 69.2342 40.0136 68.0376 41.4495V69.976H72.0102V60.0444H71.9624Z" fill="#CABF0E"/>
<path d="M109.655 81.87V58.106H107.621H105.658V81.87L107.621 79.9076L109.655 81.87Z" fill="#CABF0E"/>
<path d="M24.4102 44.2495L32.3794 48.1743V24.3862L24.4102 44.2495Z" fill="#87C2B1"/>
<path d="M32.9778 57.0769L32.3796 48.1743L11.7505 60.0444L32.9778 57.0769Z" fill="#87C2B1"/>
<path d="M39.6785 43.2444L32.3794 48.1743L52.9367 60.0444L39.6785 43.2444Z" fill="#87C2B1"/>
<path d="M70 28.3829V20.4854C70 16.1538 66.4341 12.588 62.1025 12.588C57.7709 12.588 54.2051 16.1538 54.2051 20.4854C54.2051 24.8171 57.7709 28.3829 62.1025 28.3829H70Z" fill="#D4CFE4"/>
<path d="M70 28.3829H62.1025C57.7709 28.3829 54.2051 31.9487 54.2051 36.2804C54.2051 40.612 57.7709 44.1778 62.1025 44.1778C66.4341 44.1778 70 40.612 70 36.2804V28.3829Z" fill="#BEB6D6"/>
<path d="M70 28.3829V36.2804C70 40.612 73.5658 44.1778 77.8974 44.1778C82.2291 44.1778 85.7949 40.612 85.7949 36.2804C85.7949 31.9487 82.2291 28.3829 77.8974 28.3829H70Z" fill="#ACA2CB"/>
<path d="M71.9624 28.3829H77.8974C82.2291 28.3829 85.7949 24.8171 85.7949 20.4854C85.7949 16.1538 82.2291 12.588 77.8974 12.588C73.5658 12.588 70 16.1538 70 20.4854V28.3829H71.9624Z" fill="#998CBE"/>
<path d="M115.589 48.1743L111.617 38.2905H103.695L107.62 48.1743H115.589Z" fill="#54A88F"/>
<path d="M103.696 38.2905H95.7266L99.7231 48.1743H107.621L103.696 38.2905Z" fill="#87C2B1"/>
<path d="M109.654 58.1059H111.617L107.62 48.1743H99.7227L103.695 58.1059H105.658H107.62H109.654Z" fill="#54A88F"/>
<path d="M123.487 48.1743L119.515 38.2905H111.617L115.59 48.1743H123.487Z" fill="#87C2B1"/>
<path d="M119.515 58.1059H127.484L123.487 48.1743H115.59L119.515 58.1059Z" fill="#54A88F"/>
<path d="M107.62 48.1743L111.617 58.1059H119.514L115.589 48.1743H107.62Z" fill="#87C2B1"/>
<path d="M71.9624 60.0444H81.894C86.2256 60.0444 89.7915 56.4786 89.7915 52.147H77.8974C73.5658 52.147 70 55.7128 70 60.0444H71.9624Z" fill="#87C2B1"/>
<path d="M34.3417 81.8701L32.3793 79.9077L30.3452 81.8701L20.4853 91.8017H10.5537V103.696H36.3041L46.2358 93.7641L34.3417 81.8701Z" fill="#ACA2CB"/>
<path d="M119.515 91.8017L109.655 81.8701L107.621 79.9077L105.658 81.8701L93.7642 93.7641L103.696 103.696H129.446V91.8017H119.515Z" fill="#7E6EAD"/>
<path d="M62.1025 118.533C62.1025 121.333 64.3043 123.463 67.0325 123.463H85.8666C87.2307 123.463 88.4273 122.865 89.4325 122.099L98.9333 112.598C97.3299 110.995 94.6017 110.995 92.9983 112.598L85.8666 119.562H67.0325C65.429 119.562 64.0649 118.198 64.0649 116.595C64.0649 115.231 65.0701 114.034 66.4342 113.627C63.8735 113.962 62.1025 115.925 62.1025 118.533Z" fill="#D4CFE4"/>
<path d="M52.1709 117.528L60.0683 109.631H75.9349C75.9349 107.429 74.1401 105.658 71.9623 105.658H58.1059L52.1709 111.593H38.3145V117.528H52.1709Z" fill="#D4CFE4"/>
<path d="M38.3144 111.593H10.5537V117.528H38.3144V111.593Z" fill="#ACA2CB"/>
<path d="M89.1931 122.099C88.4273 122.865 86.9914 123.463 85.7948 123.463H67.0085C64.2085 123.463 62.0786 121.262 62.0786 118.533C62.0786 115.973 63.8734 113.962 66.4102 113.603C66.5777 113.603 66.817 113.603 67.0085 113.603H71.9384C74.1401 113.603 75.911 111.809 75.911 109.631H60.0683L52.1709 117.528H38.3145V127.46H89.8392L98.7657 118.533C100.369 116.93 100.369 114.202 98.7657 112.598L89.1931 122.099Z" fill="#C4BCD9"/>
<path d="M38.3144 117.528H10.5537V127.46H38.3144V117.528Z" fill="#998CBE"/>
<path d="M46.2358 93.7641L36.3042 103.696H48.1743L54.1333 97.7368H69.9999V69.9761L46.2358 93.7641Z" fill="#BEB6D6"/>
<path d="M70 69.9761V97.7368H79.9316C82.1333 97.7368 83.9043 99.5316 83.9043 101.709V107.644H87.8769L91.8496 103.672H103.744L93.7641 93.7402L70 69.9761Z" fill="#A398C5"/>
</g>
<defs>
<clipPath id="clip0">
<rect width="140" height="140" fill="white"/>
</clipPath>
</defs>
</svg>
