<svg xmlns="http://www.w3.org/2000/svg" width="150" height="40" viewBox="0 0 150 40">
    <g fill="none" fill-rule="evenodd">
        <g>
            <g>
                <path fill="#FEFEFE" d="M.834 20.312c0-10.646 8.633-19.277 19.28-19.277 10.652 0 19.279 8.63 19.279 19.277 0 10.649-8.627 19.28-19.28 19.28C9.467 39.592.834 30.96.834 20.312" transform="translate(-150 -16) translate(150 16)"/>
                <path fill="#010202" d="M54.66 18.446c0 1.616 1.156 1.805 2.187 1.805 4.538 0 6.026-3.425 6.026-6.553 0-3.928-2.522-6.768-6.576-6.768-.86 0-1.255.065-1.636.088v11.428zm-2.056-9.852c0-1.89-.987-1.766-1.933-1.784v-.543c.816.033 1.661.033 2.48.033.88 0 2.074-.033 3.634-.033 5.437 0 8.402 3.626 8.402 7.347 0 2.079-1.219 7.31-8.653 7.31-1.069 0-2.061-.041-3.048-.041-.944 0-1.87.021-2.815.042v-.551c1.255-.123 1.87-.168 1.933-1.591V8.594zM68.171 8.09c-.549 0-1.03-.504-1.03-1.047 0-.531.498-1.013 1.03-1.013.546 0 1.025.44 1.025 1.013 0 .565-.462 1.048-1.025 1.048zm-2.25 12.284h.397c.588 0 1.005 0 1.005-.694v-5.686c0-.931-.31-1.055-1.083-1.47v-.34c.981-.293 2.16-.688 2.24-.756.154-.082.273-.103.38-.103.102 0 .147.128.147.293v8.062c0 .694.465.694 1.048.694h.36v.55c-.717 0-1.453-.041-2.204-.041-.757 0-1.514.021-2.29.042v-.551zM72.41 14.118c0-.774-.23-.985-1.22-1.386v-.398c.903-.294 1.763-.568 2.774-1.009.064 0 .125.038.125.21V12.9c1.197-.86 2.23-1.575 3.636-1.575 1.787 0 2.416 1.3 2.416 2.94v5.415c0 .694.462.694 1.052.694h.375v.551c-.736 0-1.47-.043-2.224-.043-.758 0-1.514.022-2.268.043v-.551h.378c.586 0 1.006 0 1.006-.694v-5.43c0-1.206-.735-1.792-1.932-1.792-.671 0-1.741.547-2.439 1.008v6.214c0 .694.462.694 1.052.694h.378v.551c-.732 0-1.47-.043-2.229-.043-.752 0-1.512.022-2.27.043v-.551h.386c.586 0 1.004 0 1.004-.694v-5.562zM86.885 14.449c.523 0 .585-.27.585-.52 0-1.071-.65-1.935-1.825-1.935-1.28 0-2.162.945-2.417 2.455h3.657zm-3.714.678c-.049.189-.049.503 0 1.218.12 1.996 1.4 3.633 3.08 3.633 1.157 0 2.061-.628 2.835-1.408l.297.295c-.966 1.279-2.16 2.375-3.887 2.375-3.338 0-4.008-3.237-4.008-4.578 0-4.12 2.768-5.337 4.242-5.337 1.696 0 3.528 1.07 3.546 3.295 0 .132 0 .25-.018.38l-.191.127H83.17zM89.762 20.374h.569c.585 0 1.002 0 1.002-.694v-5.9c0-.647-.775-.775-1.09-.946v-.311c1.53-.65 2.374-1.198 2.566-1.198.125 0 .187.06.187.273v1.889h.044c.523-.817 1.406-2.162 2.69-2.162.521 0 1.195.355 1.195 1.111 0 .57-.398 1.073-.987 1.073-.654 0-.654-.504-1.388-.504-.356 0-1.534.482-1.534 1.747v4.928c0 .694.415.694 1.013.694h1.166v.551c-1.15-.02-2.03-.043-2.936-.043-.862 0-1.743.022-2.497.043v-.551zM97.844 18.003c.277 1.38 1.115 2.564 2.655 2.564 1.236 0 1.688-.758 1.688-1.492 0-2.478-4.567-1.683-4.567-5.061 0-1.18.943-2.69 3.255-2.69.664 0 1.57.192 2.391.607l.148 2.144h-.484c-.21-1.32-.946-2.08-2.292-2.08-.836 0-1.633.487-1.633 1.384 0 2.465 4.872 1.704 4.872 5.002 0 1.387-1.115 2.86-3.613 2.86-.842 0-1.827-.298-2.563-.714l-.236-2.421.38-.103zM122.842 10.062h-.528c-.4-2.454-2.14-3.441-4.49-3.441-2.417 0-5.928 1.616-5.928 6.655 0 4.249 3.025 7.292 6.256 7.292 2.086 0 3.809-1.427 4.228-3.637l.482.126-.482 3.067c-.879.546-3.258 1.116-4.643 1.116-4.915 0-8.02-3.172-8.02-7.896 0-4.31 3.84-7.4 7.957-7.4 1.705 0 3.338.546 4.96 1.12l.208 2.998zM123.596 20.374h.401c.587 0 1.01 0 1.01-.694V7.988c0-1.367-.316-1.413-1.116-1.64V6.01c.839-.27 1.724-.646 2.166-.902.23-.126.395-.233.46-.233.128 0 .168.126.168.294v14.51c0 .695.465.695 1.051.695h.358v.551c-.714 0-1.45-.043-2.206-.043-.755 0-1.509.022-2.292.043v-.551zM137.085 19.768c0 .376.227.396.586.396.253 0 .569-.02.843-.02v.442c-.905.084-2.628.525-3.027.654l-.108-.063v-1.7c-1.258 1.029-2.224 1.763-3.717 1.763-1.134 0-2.308-.734-2.308-2.5v-5.376c0-.548-.088-1.073-1.258-1.18v-.396c.757-.022 2.432-.146 2.706-.146.233 0 .233.146.233.61v5.415c0 .629 0 2.436 1.828 2.436.715 0 1.656-.547 2.538-1.277v-5.655c0-.416-1.006-.648-1.764-.857v-.383c1.892-.122 3.071-.289 3.282-.289.166 0 .166.146.166.375v7.751zM141.263 18.55c0 .8.755 2.142 2.164 2.142 2.248 0 3.191-2.207 3.191-4.08 0-2.265-1.725-4.154-3.358-4.154-.78 0-1.43.504-1.997.99v5.102zm0-5.716c.84-.71 1.977-1.509 3.135-1.509 2.433 0 3.899 2.123 3.899 4.41 0 2.75-2.014 5.505-5.022 5.505-1.552 0-2.371-.505-2.917-.734l-.63.48-.435-.228c.18-1.241.29-2.462.29-3.743V7.988c0-1.367-.315-1.413-1.11-1.64V6.01c.841-.27 1.716-.646 2.158-.902.23-.126.4-.233.469-.233.121 0 .163.126.163.294v7.665zM50.648 33.135h.16c.41 0 .848-.059.848-.653v-5.985c0-.593-.437-.655-.847-.655h-.16v-.34c.446 0 1.132.045 1.69.045.574 0 1.26-.045 1.794-.045v.34h-.16c-.409 0-.846.062-.846.655v5.985c0 .594.437.653.846.653h.16v.34c-.55 0-1.234-.04-1.807-.04-.557 0-1.231.04-1.678.04v-.34z" transform="translate(-150 -16) translate(150 16)"/>
                <path fill="#010202" d="M54.085 33.431v-.247h-.112c-.404 0-.893-.068-.897-.701v-5.986c.004-.63.493-.703.897-.703h.112v-.24c-.53 0-1.186.046-1.746.046-.54 0-1.196-.047-1.64-.047v.24h.11c.403 0 .895.073.895.704v5.986c0 .633-.492.701-.895.701h-.11v.247c.444-.006 1.09-.048 1.627-.048.56 0 1.22.042 1.76.048zm.048.094c-.552 0-1.234-.042-1.807-.042-.556 0-1.229.042-1.678.042h-.05v-.437H50.808c.416-.012.789-.044.797-.605v-5.986c-.008-.558-.38-.593-.796-.607h-.21v-.441h.05c.448 0 1.132.047 1.69.047.57 0 1.255-.047 1.794-.047h.05v.441H53.973c-.417.014-.791.049-.798.607v5.986c.007.561.381.593.798.605h.21v.437h-.05zM61.986 31.23l.02-.026v-4.286c0-.934-.651-1.076-.99-1.076h-.254v-.34c.536 0 1.064.045 1.603.045.466 0 .936-.045 1.4-.045v.34h-.164c-.485 0-1.027.091-1.027 1.455v5.201c0 .397.018.798.073 1.151h-.434l-5.886-6.562V31.8c0 .998.192 1.336 1.076 1.336h.192v.34c-.491 0-.984-.04-1.471-.04-.516 0-1.04.04-1.554.04v-.34h.157c.79 0 1.032-.537 1.032-1.453v-4.807c0-.646-.534-1.033-1.045-1.033h-.144v-.34c.431 0 .877.045 1.312.045.343 0 .676-.045 1.018-.045l5.086 5.728z" transform="translate(-150 -16) translate(150 16)"/>
                <path fill="#010202" d="M61.959 31.205v-.007l-.009-.004.009.01zm.027.027l.04-.038-.04.038zm.227 2.367h.379c-.053-.343-.06-.725-.06-1.1v-5.202c0-1.376.575-1.503 1.069-1.503h.116v-.24c-.451 0-.901.042-1.352.042-.526 0-1.038-.043-1.549-.043v.24h.2c.348 0 1.043.16 1.043 1.125l-.015 4.322-.025.025-.039.032-5.08-5.744c-.34 0-.675.043-1.018.043-.417 0-.85-.043-1.262-.043l-.005.24h.1c.537 0 1.093.412 1.093 1.082v4.807c0 .916-.255 1.501-1.081 1.502h-.107v.247c.492-.006 1-.048 1.504-.048.474 0 .952.042 1.421.048v-.247h-.142c-.903 0-1.122-.39-1.122-1.385v-4.835l5.932 6.635zm.434.103l-.47-.017-5.803-6.464V31.8c.018.995.168 1.277 1.029 1.289h.243v.437h-.051c-.496 0-.985-.042-1.471-.042-.511 0-1.037.042-1.554.042h-.054v-.437h.211c.762-.006.972-.493.981-1.406v-4.807c-.002-.616-.501-.985-.993-.985h-.199v-.441h.054c.438 0 .881.047 1.312.047.339 0 .672-.047 1.055-.027l5.021 5.653v-4.204c-.008-.91-.613-1.014-.942-1.028h-.3v-.441h.046c.54 0 1.064.047 1.603.047.46 0 .93-.047 1.4-.047h.056v.441h-.22c-.48.016-.958.06-.972 1.407v5.201c0 .397.01.798.068 1.143l.009.061h-.059zM65.481 26.074c-.856 0-.887.204-1.066 1.035h-.34c.042-.319.1-.637.14-.967.044-.324.063-.64.063-.971h.276c.095.343.378.331.689.331h5.9c.305 0 .59-.012.615-.354l.27.045c-.041.31-.09.613-.122.926-.026.308-.026.613-.026.925l-.341.13c-.022-.427-.077-1.1-.845-1.1h-1.877v6.078c0 .884.4.983.948.983h.219v.34c-.444 0-1.247-.04-1.865-.04-.678 0-1.482.04-1.927.04v-.34h.214c.634 0 .946-.059.946-.954v-6.107h-1.87z" transform="translate(-150 -16) translate(150 16)"/>
                <path fill="#010202" d="M69.985 33.525c-.45 0-1.25-.042-1.866-.042-.678 0-1.48.042-1.927.042h-.051v-.437h.265c.634-.015.883-.023.893-.907V26.12H65.48v-.097h1.925v6.158c0 .912-.37 1.003-1 1.003h-.166v.243c.452-.002 1.219-.044 1.879-.044.598 0 1.362.042 1.817.044v-.243h-.171c-.55 0-.997-.132-.997-1.032v-6.13h1.923c.77 0 .869.65.895 1.077l.247-.092c0-.293 0-.596.024-.895.03-.295.073-.584.113-.88l-.174-.028c-.056.331-.373.355-.66.35H65.183c-.271 0-.564-.013-.663-.33h-.192c0 .311-.022.617-.068.924-.03.315-.085.612-.127.917h.245c.152-.797.252-1.057 1.103-1.042v.097c-.845.018-.83.158-1.02 1.004l-.005.039h-.44l.01-.059c.046-.32.102-.638.136-.968.048-.321.072-.64.072-.965v-.05h.36l.009.036c.076.286.288.29.58.292H71.136c.317-.002.548-.01.567-.304l.003-.06.055.014.324.05-.006.051c-.045.306-.088.615-.124.92-.022.307-.022.612-.022.924v.032l-.038.011-.4.151-.002-.063c-.031-.431-.08-1.055-.802-1.055h-1.823v6.032c.011.864.354.924.897.936h.266v.437h-.046zM72.392 33.135h.16c.414 0 .848-.059.848-.653v-5.985c0-.593-.434-.655-.848-.655h-.16v-.34c.702 0 1.888.045 2.848.045s2.147-.045 2.922-.045c-.018.489-.009 1.245.024 1.749l-.341.088c-.055-.738-.191-1.33-1.395-1.33h-1.582v2.99h1.352c.691 0 .837-.387.908-1.004h.34c-.025.446-.035.888-.035 1.337 0 .434.01.869.035 1.301l-.34.066c-.07-.68-.104-1.127-.894-1.127h-1.366v2.66c0 .744.66.744 1.39.744 1.372 0 1.978-.088 2.316-1.393l.32.077c-.142.609-.287 1.212-.388 1.814-.728 0-2.044-.039-3.075-.039-1.023 0-2.38.04-3.039.04v-.34z" transform="translate(-150 -16) translate(150 16)"/>
                <path fill="#010202" d="M78.47 33.427c.092-.574.23-1.156.367-1.73l-.23-.057c-.338 1.28-1 1.396-2.35 1.385-.72 0-1.442 0-1.446-.794v-2.713h1.423c.795-.009.883.48.936 1.126l.244-.053c-.022-.418-.028-.843-.028-1.26 0-.431.006-.858.028-1.29h-.244c-.061.596-.253 1.02-.95 1.006H74.81v-3.092h1.639c1.19-.004 1.39.606 1.438 1.32l.246-.065c-.02-.323-.032-.732-.032-1.114 0-.199.004-.382.012-.543-.779 0-1.938.043-2.874.043-.937 0-2.097-.043-2.798-.043v.24h.11c.407 0 .893.073.898.704v5.986c-.005.633-.491.701-.898.701h-.11v.243c.668-.002 1.988-.04 2.989-.04 1.011 0 2.296.038 3.04.04zm.038.103c-.735 0-2.046-.056-3.077-.056-1.023 0-2.38.056-3.038.056h-.049v-.442H72.553c.413-.012.791-.048.796-.605v-5.986c-.005-.558-.383-.593-.797-.607h-.208v-.436h.049c.701 0 1.887.042 2.847.042s2.146-.042 2.922-.042h.048v.05c-.005.17-.012.372-.012.592 0 .392.012.825.038 1.151v.04l-.04.012-.4.107-.002-.063c-.067-.738-.164-1.275-1.344-1.29h-1.54v2.893h1.31c.665-.004.775-.342.86-.96l.002-.04h.437v.049c-.022.446-.04.888-.04 1.337 0 .43.018.864.04 1.302v.038l-.04.01-.397.077-.002-.054c-.085-.693-.091-1.078-.846-1.084l-1.324-.005v2.615c.002.696.602.692 1.348.696 1.376-.01 1.926-.074 2.268-1.36l.013-.049.05.013.364.097-.01.046c-.147.6-.284 1.208-.384 1.813l-.008.043h-.043zM81.906 29.363h.554c1.148 0 1.76-.432 1.76-1.779 0-1.017-.651-1.671-1.669-1.671-.345 0-.49.038-.645.043v3.407zm-1.464-2.649c0-.838-.46-.872-.812-.872h-.21v-.34c.366 0 1.072.045 1.776.045.683 0 1.231-.045 1.84-.045 1.433 0 2.716.385 2.716 2.012 0 1.026-.685 1.653-1.586 2.009l1.953 2.925c.323.488.55.62 1.107.687v.34c-.375 0-.74-.04-1.118-.04-.356 0-.725.04-1.076.04-.879-1.153-1.636-2.385-2.38-3.7h-.746v2.447c0 .881.408.913.932.913h.21v.34c-.657 0-1.316-.04-1.967-.04-.554 0-1.09.04-1.661.04v-.34h.21c.422 0 .812-.193.812-.618v-5.803z" transform="translate(-150 -16) translate(150 16)"/>
                <path fill="#010202" d="M82.46 29.314c1.131-.01 1.705-.401 1.713-1.73-.007-.998-.625-1.615-1.622-1.624-.309 0-.453.028-.599.044v3.31h.508zm-.557.099h-.05v-3.5l.04-.003c.155-.02.313-.044.658-.044 1.04 0 1.718.672 1.718 1.718-.006 1.362-.655 1.829-1.809 1.829h-.557zm0 .315h.782l.008.024c.747 1.314 1.495 2.547 2.34 3.68.35 0 .72-.049 1.07-.049.367 0 .725.042 1.073.044v-.247c-.535-.07-.785-.231-1.099-.7L84.09 29.5l.057-.025c.894-.35 1.556-.962 1.563-1.966-.007-1.578-1.242-1.95-2.674-1.956-.601 0-1.156.043-1.839.043-.675 0-1.355-.043-1.727-.043v.24h.162c.35 0 .858.059.858.921v5.803c0 .463-.43.667-.858.667h-.162v.243c.552-.002 1.072-.044 1.606-.044.644 0 1.284.042 1.919.044v-.243h-.156c-.521 0-.985-.062-.985-.962v-2.494h.05zm5.323 3.797c-.38 0-.746-.042-1.122-.042-.347 0-.712.042-1.112.025-.87-1.152-1.628-2.375-2.365-3.682h-.675v2.396c.013.86.36.854.886.866h.255v.437h-.054c-.648 0-1.318-.042-1.964-.042-.548 0-1.074.042-1.655.042h-.049v-.437h.259c.41-.006.76-.182.76-.57v-5.804c-.011-.81-.408-.81-.76-.824h-.259v-.441h.049c.374 0 1.077.047 1.776.047.678 0 1.231-.047 1.84-.047 1.441 0 2.762.403 2.765 2.06 0 1.034-.683 1.677-1.566 2.037l1.925 2.88c.32.47.517.59 1.072.662l.044.002v.435h-.05zM94.984 31.23l.02-.026v-4.286c0-.934-.647-1.076-.988-1.076h-.248v-.34c.537 0 1.055.045 1.597.045.464 0 .932-.045 1.404-.045v.34h-.171c-.48 0-1.018.091-1.018 1.455v5.201c0 .397.01.798.069 1.151h-.436l-5.884-6.562V31.8c0 .998.195 1.336 1.078 1.336h.195v.34c-.492 0-.987-.04-1.48-.04-.512 0-1.038.04-1.548.04v-.34h.15c.794 0 1.033-.537 1.033-1.453v-4.807c0-.646-.53-1.033-1.039-1.033h-.144v-.34c.43 0 .88.045 1.312.045.34 0 .668-.045 1.011-.045l5.087 5.728z" transform="translate(-150 -16) translate(150 16)"/>
                <path fill="#010202" d="M94.96 31.205v-.007l-.008-.004.007.01zm.024.027l.04-.038-.04.038zm.23 2.367h.376c-.05-.34-.062-.725-.062-1.1v-5.202c0-1.376.58-1.5 1.07-1.503h.124v-.24c-.454 0-.907.042-1.357.042-.524 0-1.04-.043-1.552-.043v.24h.203c.35.003 1.043.16 1.043 1.125l-.018 4.322-.02.025-.037.034-5.087-5.746c-.337 0-.67.043-1.01.043-.428 0-.853-.043-1.269-.043v.24h.1c.536.003 1.088.407 1.088 1.082v4.807c0 .916-.259 1.501-1.081 1.502h-.107v.243c.494-.002 1.005-.044 1.503-.044.478 0 .956.042 1.428.044v-.243h-.142c-.901 0-1.127-.387-1.13-1.385v-4.835l5.936 6.635zm.435.103l-.468-.017-5.803-6.464V31.8c.013.998.165 1.277 1.029 1.289h.241v.437h-.054c-.493 0-.981-.046-1.473-.046-.51 0-1.037.046-1.547.046h-.059v-.437h.209c.758-.006.972-.493.98-1.406v-4.807c0-.616-.497-.985-.986-.985h-.203v-.441h.059c.431 0 .88.047 1.312.047.335 0 .664-.047 1.046-.03l5.027 5.656v-4.204c-.003-.91-.613-1.016-.943-1.028h-.304v-.441h.056c.537 0 1.06.047 1.597.047.464 0 .932-.047 1.404-.047h.051v.441H96.598c-.468.014-.952.06-.969 1.407v5.201c0 .397.01.794.067 1.143l.01.061h-.057zM100.274 26.784h-.023l-1.06 3.235h2.136l-1.053-3.235zm-1.664 5.06c-.118.387-.253.687-.253.89 0 .342.48.4.86.4h.126v.34c-.46-.02-.93-.039-1.39-.039-.412 0-.824.018-1.228.04v-.34h.065c.446 0 .825-.263.992-.742l1.83-5.242c.148-.427.355-.996.427-1.422.361-.124.818-.355 1.038-.49.03-.011.053-.022.093-.022.025 0 .053 0 .079.032.037.092.066.194.1.286l2.105 5.979c.137.399.273.825.423 1.165.136.318.376.456.756.456h.062v.34c-.511-.022-1.022-.04-1.57-.04-.56 0-1.135.018-1.717.04v-.34h.128c.26 0 .708-.045.708-.327 0-.152-.103-.46-.232-.828l-.443-1.324h-2.595l-.364 1.188z" transform="translate(-150 -16) translate(150 16)"/>
                <path fill="#010202" d="M100.227 26.798l.026-.01-.026.01zm-.968 3.17h2.002l-.997-3.063-1.005 3.062zm-.139.098l1.092-3.338h.062v.056h-.01.01v-.056h.037l1.086 3.338H99.12zm2.335 3.36c.564-.019 1.123-.043 1.67-.043.528 0 1.028.024 1.523.042v-.24h-.015c-.39.003-.66-.15-.803-.488-.146-.344-.289-.775-.423-1.166l-2.104-5.978c-.033-.092-.072-.199-.095-.279-.013-.01-.013-.01-.02-.01h-.018c-.025 0-.04.008-.07.015-.22.142-.677.37-1.014.46-.074.432-.277 1-.43 1.424l-1.827 5.248c-.172.495-.574.773-1.04.773h-.018v.241c.392-.018.786-.042 1.182-.042.442 0 .9.024 1.334.042v-.24h-.07c-.38-.002-.895-.047-.907-.45 0-.221.136-.518.246-.907l.053.016-.053-.016.378-1.22h2.664l.458 1.355c.13.37.235.674.235.845-.017.347-.495.372-.755.376h-.08v.241zm3.237.1c-.508-.02-1.02-.052-1.567-.052-.56 0-1.132.033-1.717.051l-.048.005v-.448h.176c.262 0 .65-.057.65-.274.001-.134-.089-.452-.22-.808l-.437-1.297H99.01l-.356 1.154c-.116.393-.254.694-.254.877.007.282.435.348.817.348h.172v.448l-.053-.005c-.457-.018-.924-.05-1.383-.05-.41 0-.824.032-1.228.05l-.05.005v-.448h.115c.425 0 .778-.243.947-.706l1.826-5.245c.152-.423.359-.993.459-1.443.355-.128.815-.357 1.036-.495.03-.012.063-.03.112-.03.025 0 .09.008.123.07.034.093.067.191.104.288l2.106 5.977c.134.398.27.823.42 1.158.132.303.341.426.71.426h.119v.448l-.06-.005zM105.202 26.074c-.86 0-.893.204-1.063 1.035h-.345c.045-.319.107-.637.138-.967.047-.324.068-.64.068-.971h.276c.092.343.375.331.684.331h5.9c.305 0 .591-.012.614-.354l.275.045c-.042.31-.09.613-.125.926-.032.308-.032.613-.032.925l-.336.13c-.02-.427-.079-1.1-.844-1.1h-1.874v6.078c0 .884.404.983.951.983h.214v.34c-.443 0-1.245-.04-1.862-.04-.686 0-1.488.04-1.933.04v-.34h.218c.629 0 .953-.059.953-.954v-6.107h-1.877z" transform="translate(-150 -16) translate(150 16)"/>
                <path fill="#010202" d="M109.703 33.525c-.443 0-1.245-.042-1.862-.042-.685 0-1.481.042-1.933.042h-.047v-.437h.265c.629-.015.883-.023.9-.907V26.12h-1.824v-.097h1.923v6.158c0 .912-.372 1.002-1 1.003h-.168v.247c.452-.006 1.22-.048 1.884-.048.598 0 1.36.042 1.812.048v-.247h-.168c-.547 0-.996-.132-.997-1.032v-6.13h1.924c.77 0 .865.65.891 1.077l.246-.092c0-.293 0-.596.025-.895.033-.295.074-.584.119-.875l-.174-.033c-.05.331-.373.355-.659.35h-5.96c-.267 0-.558-.013-.662-.337h-.183c-.007.318-.032.624-.076.93-.031.316-.087.613-.127.918h.248c.151-.797.245-1.057 1.102-1.042v.097c-.849.016-.83.158-1.014 1.004l-.01.039h-.443l.009-.059c.046-.32.1-.638.14-.968.045-.321.064-.64.064-.965v-.05h.362l.012.036c.077.286.29.29.578.292h5.96c.311-.002.547-.01.565-.304l.003-.06.057.014.324.05-.01.051c-.05.306-.092.615-.125.92-.026.307-.026.612-.026.924v.032l-.032.011-.406.151v-.063c-.028-.431-.073-1.055-.798-1.055h-1.824v6.032c.012.864.354.924.897.936h.27v.437h-.052zM112.173 33.135h.157c.413 0 .842-.059.842-.653v-5.985c0-.593-.43-.655-.842-.655h-.157v-.34c.445 0 1.125.045 1.687.045.572 0 1.256-.045 1.797-.045v.34h-.155c-.419 0-.852.062-.852.655v5.985c0 .594.433.653.852.653h.155v.34c-.55 0-1.234-.04-1.805-.04-.563 0-1.234.04-1.679.04v-.34z" transform="translate(-150 -16) translate(150 16)"/>
                <path fill="#010202" d="M115.604 33.427v-.243h-.102c-.415 0-.895-.068-.895-.701v-5.986c0-.63.48-.703.895-.703h.102v-.24c-.527 0-1.185.042-1.744.042-.541 0-1.198-.043-1.64-.043v.24h.11c.407 0 .893.073.893.704v5.986c0 .633-.486.701-.893.701h-.11v.243c.442-.004 1.087-.04 1.632-.04.549 0 1.216.038 1.752.04zm.053.103c-.555 0-1.234-.056-1.805-.056-.563 0-1.234.056-1.679.056h-.047v-.442H112.33c.413-.012.794-.048.794-.605v-5.986c0-.558-.381-.593-.794-.607h-.204v-.436h.047c.445 0 1.13.042 1.687.042.572 0 1.256-.042 1.797-.042h.047v.436h-.202c-.42.014-.8.049-.804.607v5.986c.004.557.383.593.804.605h.202v.442h-.047zM120.387 33.149c2.22 0 2.6-1.955 2.6-3.626 0-1.67-.9-3.688-2.792-3.688-2.002 0-2.591 1.783-2.591 3.31 0 2.049.93 4.004 2.783 4.004m-.174-7.818c2.44 0 4.38 1.51 4.38 3.945 0 2.624-1.886 4.373-4.315 4.373-2.432 0-4.276-1.642-4.276-4.103 0-2.371 1.835-4.215 4.211-4.215" transform="translate(-150 -16) translate(150 16)"/>
                <path fill="#010202" d="M117.55 29.144c.001-1.536.602-3.365 2.645-3.365 1.938.004 2.845 2.066 2.849 3.744-.004 1.67-.395 3.674-2.657 3.674V33.1c2.175-.004 2.548-1.906 2.557-3.577 0-1.653-.893-3.638-2.749-3.642-1.961.004-2.55 1.743-2.55 3.263 0 2.038.936 3.95 2.742 3.956v.097c-1.898-.005-2.836-1.993-2.837-4.053m-1.603.402c.007-2.4 1.868-4.259 4.266-4.267v.099c-2.348 0-4.171 1.819-4.171 4.168.005 2.43 1.83 4.048 4.236 4.053 2.403-.005 4.263-1.722 4.27-4.323-.005-2.406-1.917-3.897-4.335-3.898v-.099c2.457.008 4.425 1.53 4.429 3.997 0 2.647-1.91 4.418-4.364 4.426-2.445-.008-4.324-1.672-4.331-4.156M132.299 31.23l.02-.026v-4.286c0-.934-.653-1.076-.998-1.076h-.248v-.34c.535 0 1.063.045 1.6.045.472 0 .938-.045 1.408-.045v.34h-.176c-.482 0-1.017.091-1.017 1.455v5.201c0 .397.015.798.069 1.151h-.436l-5.883-6.562V31.8c0 .998.19 1.336 1.074 1.336h.193v.34c-.493 0-.98-.04-1.473-.04-.515 0-1.04.04-1.557.04v-.34h.16c.795 0 1.028-.537 1.028-1.453v-4.807c0-.646-.52-1.033-1.041-1.033h-.147v-.34c.439 0 .88.045 1.313.045.342 0 .677-.045 1.022-.045l5.089 5.728z" transform="translate(-150 -16) translate(150 16)"/>
                <path fill="#010202" d="M132.267 31.205v-.007l-.011-.004.011.01zm.032.027l.035-.038-.035.038zm.222 2.367h.382c-.055-.343-.063-.725-.063-1.1v-5.202c0-1.376.576-1.5 1.065-1.503h.126v-.24c-.45 0-.904.042-1.36.042-.52 0-1.028-.043-1.55-.043v.24h.2c.357.003 1.043.162 1.043 1.125l-.012 4.322-.021.025-.032.034-5.089-5.746c-.34 0-.672.043-1.022.043-.42 0-.851-.043-1.265-.043v.24h.099c.542.003 1.093.407 1.093 1.082v4.807c0 .916-.253 1.501-1.077 1.502h-.115v.243c.5-.002 1.01-.044 1.51-.044.477 0 .947.042 1.426.044v-.243h-.155c-.89 0-1.116-.387-1.116-1.385v-4.835l5.933 6.635zm.436.103l-.471-.017-5.801-6.464V31.8c.015.998.163 1.277 1.019 1.283h.25v.443h-.049c-.493 0-.98-.042-1.472-.042-.514 0-1.04.042-1.558.042h-.044v-.443H125.038c.755 0 .968-.487.977-1.4v-4.807c0-.616-.498-.985-.993-.985h-.191v-.441h.044c.439 0 .884.047 1.313.047.339 0 .67-.047 1.055-.027l5.023 5.653v-4.204c-.003-.91-.609-1.014-.946-1.028h-.297v-.441h.05c.54 0 1.065.047 1.598.047.47 0 .935-.047 1.41-.047h.043v.441H133.905c-.467.016-.956.06-.964 1.407v5.201c0 .397.008.798.06 1.143l.01.061h-.054zM137.587 26.784h-.025l-1.064 3.235h2.142l-1.053-3.235zm-1.67 5.06c-.115.387-.251.687-.251.89 0 .342.483.4.857.4h.126v.34c-.459-.02-.925-.039-1.385-.039-.418 0-.822.018-1.233.04v-.34h.064c.45 0 .831-.263.997-.742l1.832-5.242c.147-.427.352-.996.42-1.422.366-.124.822-.355 1.042-.49.034-.011.056-.022.088-.022.034 0 .055 0 .08.032.034.092.067.194.108.286l2.1 5.979c.136.399.277.825.423 1.165.137.318.382.456.754.456h.072v.34c-.518-.022-1.036-.04-1.575-.04-.568 0-1.136.018-1.723.04v-.34h.132c.26 0 .708-.045.708-.327 0-.152-.106-.46-.23-.828l-.445-1.324h-2.591l-.37 1.188z" transform="translate(-150 -16) translate(150 16)"/>
                <path fill="#010202" d="M137.537 26.798l.027-.01-.027.01zm-.968 3.165h1.995l-.988-3.058-1.007 3.058zm-.138.1l1.1-3.335h.053v.056h-.008.008v-.056h.04l1.08 3.335h-2.273zm2.337 3.362c.558-.018 1.117-.042 1.668-.042.529 0 1.019.024 1.518.042v-.24h-.015c-.39 0-.659-.15-.801-.488-.151-.344-.29-.775-.425-1.166l-2.103-5.978c-.03-.092-.07-.199-.096-.274-.007-.014-.007-.014-.017-.014h-.023c-.024 0-.035.007-.065.014-.22.139-.677.37-1.02.46-.066.432-.276 1-.42 1.424l-1.832 5.248c-.174.495-.572.773-1.041.773h-.015v.241c.395-.018.786-.042 1.183-.042.446 0 .889.024 1.335.042v-.24h-.076c-.372-.002-.896-.047-.908-.45 0-.221.142-.518.253-.907l.05.016-.05-.016.376-1.22h2.665l.455 1.355c.134.37.237.674.237.845-.019.347-.501.372-.756.376h-.077v.241zm3.239.1c-.517-.018-1.032-.042-1.571-.042-.562 0-1.136.024-1.715.042l-.058.005v-.442h.182c.26 0 .656-.063.656-.28.009-.134-.102-.45-.232-.808l-.43-1.297h-2.524l-.352 1.154c-.115.393-.253.694-.246.877 0 .282.424.354.806.354h.17v.442l-.048-.005c-.457-.018-.924-.042-1.381-.042-.41 0-.82.024-1.233.042l-.047.005v-.442h.112c.423-.006.78-.25.952-.712l1.826-5.245c.148-.423.356-.993.452-1.443.36-.128.82-.357 1.043-.495.028-.012.062-.025.105-.025.033-.006.09.003.13.065.025.09.063.191.101.288l2.104 5.977c.135.398.271.823.425 1.16.132.301.338.424.705.43h.119v.442l-.051-.005zM144.893 32.356c0 .463.316.596.68.641.47.039.983.039 1.505-.021.48-.055.898-.334 1.1-.62.183-.247.285-.567.355-.819h.334c-.129.65-.285 1.292-.425 1.937-1.008 0-2.016-.039-3.018-.039-1.004 0-2.012.04-3.02.04v-.34h.16c.413 0 .86-.059.86-.769v-5.87c0-.592-.447-.654-.86-.654h-.16v-.34c.609 0 1.205.045 1.805.045.588 0 1.157-.045 1.744-.045v.34h-.287c-.434 0-.773.015-.773.621v5.893z" transform="translate(-150 -16) translate(150 16)"/>
                <path fill="#010202" d="M148.4 33.427c.133-.62.281-1.226.404-1.844h-.236c-.069.252-.17.558-.352.807-.212.295-.636.575-1.137.635-.293.031-.588.048-.873.048-.216 0-.439-.013-.643-.025-.368-.04-.73-.197-.726-.692v-5.893c0-.636.398-.67.83-.67h.23v-.24c-.561 0-1.12.043-1.688.043-.59 0-1.172-.043-1.754-.043v.24h.109c.408 0 .907.073.907.704v5.87c0 .74-.5.817-.907.817h-.109v.243c.984-.002 1.976-.04 2.969-.04.993 0 1.984.038 2.976.04zm.042.103c-1.012 0-2.016-.047-3.018-.047-1.004 0-2.012.047-3.02.047h-.048v-.442H142.563c.414-.012.808-.04.813-.722v-5.87c-.005-.557-.393-.592-.812-.606h-.208v-.436h.047c.61 0 1.206.042 1.806.042.586 0 1.157-.042 1.744-.042h.044v.436H145.666c-.445.014-.728-.005-.734.573v5.893c.006.428.284.543.642.593.201.016.416.02.632.02.285 0 .572-.01.868-.042.467-.055.865-.325 1.067-.598.174-.24.275-.556.342-.807l.01-.04h.431l-.01.063c-.131.656-.286 1.294-.422 1.947l-.012.038h-.038zM148.533 26.385h.141c.157 0 .227-.117.227-.308 0-.192-.114-.26-.236-.26h-.132v.568zm-.406.631v-.059c.145-.018.174-.013.174-.108v-.89c0-.124-.012-.168-.17-.162v-.059h.617c.208 0 .407.103.407.318 0 .18-.122.312-.286.366l.19.274c.099.124.203.243.272.282v.038h-.233c-.111 0-.21-.232-.433-.55h-.132v.397c0 .081.028.076.172.094v.06h-.578zm.596.342c.539 0 .955-.454.955-.973 0-.519-.406-.985-.955-.985-.539 0-.955.466-.955.985 0 .519.416.973.955.973zm0-2.178c.689 0 1.203.53 1.203 1.205 0 .673-.514 1.199-1.203 1.199-.684 0-1.204-.526-1.204-1.199 0-.675.52-1.205 1.204-1.205z" transform="translate(-150 -16) translate(150 16)"/>
                <path fill="#0069AA" d="M31.773 19.936c-.01-4.94-3.093-9.15-7.44-10.818v21.627c4.347-1.665 7.43-5.873 7.44-10.81zM16.038 30.742V9.122c-4.347 1.67-7.426 5.874-7.439 10.814.013 4.932 3.092 9.138 7.439 10.806zm4.144-29.093c-10.095.006-18.274 8.19-18.277 18.287.003 10.095 8.182 18.276 18.277 18.276 10.102 0 18.283-8.181 18.283-18.276 0-10.097-8.181-18.281-18.283-18.287zm-.043 38.288C9.093 39.988 0 31.039 0 20.143 0 8.235 9.093-.001 20.139 0h5.178c10.92 0 20.886 8.23 20.886 20.143 0 10.889-9.967 19.794-20.886 19.794h-5.178z" transform="translate(-150 -16) translate(150 16)"/>
            </g>
        </g>
    </g>
</svg>
