<svg xmlns="http://www.w3.org/2000/svg" xmlns:xlink="http://www.w3.org/1999/xlink" width="48" height="60" viewBox="0 0 48 60">
    <defs>
        <path id="cydulfs1ea" d="M0 0L47.269 0 47.269 59.896 0 59.896z"/>
    </defs>
    <g fill="none" fill-rule="evenodd">
        <g>
            <g>
                <g transform="translate(-639 -1298) translate(150 1085) translate(489 213)">
                    <mask id="rw60jrs6ob" fill="#fff">
                        <use xlink:href="#cydulfs1ea"/>
                    </mask>
                    <path fill="#DADADA" d="M47.269 33.736h-1.81v7.935h-10.46v1.81h12.27v-9.745zm0-19.846H33.736v1.81H45.46v7.934h1.81V13.89zm-35 27.78H1.81v-7.934H0v9.745h12.27v-1.81zM1.81 15.7h11.723v-1.81H0v9.744h1.81V15.7zm25.972 20.562h1.81v-13.89h-1.81v13.89zm-5.051 0h1.81v-13.89h-1.81v13.89zm-3.789 0h1.81v-13.89h-1.81v13.89zm12.628 0h1.81v-13.89h-1.81v13.89zm-17.679 0h1.81v-13.89h-1.81v13.89zm7.219 18.583h5.05v-1.81h-5.05v1.81zM7.219 8.124H40.05v-1.81H7.22v1.81zm0 42.933H40.05v-1.81H7.22v1.81zM40.955 4.693C40.955 2.105 38.849 0 36.262 0H11.007C8.419 0 6.314 2.105 6.314 4.693v7.577h1.81V4.693c0-1.59 1.293-2.883 2.883-2.883h25.255c1.59 0 2.883 1.293 2.883 2.883v7.577h1.81V4.693zm-1.81 35.357h1.81V17.32h-1.81v22.73zm1.81 15.153V45.101h-1.81v10.102c0 1.59-1.293 2.884-2.883 2.884H11.007c-1.59 0-2.883-1.294-2.883-2.884V45.101h-1.81v10.102c0 2.588 2.105 4.693 4.693 4.693h25.255c2.587 0 4.693-2.105 4.693-4.693zM6.314 40.05h1.81V17.32h-1.81v22.73z" mask="url(#rw60jrs6ob)"/>
                </g>
            </g>
        </g>
    </g>
</svg>
