<svg width="116" height="140" viewBox="0 0 116 140" fill="none" xmlns="http://www.w3.org/2000/svg">
<path d="M57.855 114.333C88.5294 114.333 113.396 89.2609 113.396 58.333C113.396 27.4051 88.5294 2.33307 57.855 2.33307C27.1805 2.33307 2.31396 27.4051 2.31396 58.333C2.31396 89.2609 27.1805 114.333 57.855 114.333Z" fill="#A59BCE"/>
<path d="M32.3984 72.3331H60.1689V102.666L41.6553 95.6664V86.3331L32.3984 83.9998V72.3331Z" fill="#87C2B1"/>
<path d="M50.9131 11.6665L46.2847 16.3331L57.8557 25.6662H69.4268V16.3331L64.7984 11.6665H50.9131Z" fill="#87C2B1"/>
<path d="M20.8282 60.6674L32.3993 72.334V63.0007L41.6561 53.6674H60.1698V42.0007L43.9703 28.0007V39.6674H32.3993V8.55627C16.8748 16.6257 5.9787 31.5979 3.08594 49.0007H20.8282V60.6674Z" fill="#87C2B1"/>
<path d="M96.7147 18.3752L83.3115 28.0002V42.0002L69.4263 51.3335V79.3334H87.94L108.768 58.3335H113.396C113.396 43.2641 107.418 28.8752 96.7147 18.3752Z" fill="#87C2B1"/>
<path d="M57.8557 123.667H99.5113C103.368 123.667 106.454 126.778 106.454 130.667C106.454 134.556 103.368 137.667 99.5113 137.667H57.8557C53.9987 137.667 50.9131 134.556 50.9131 130.667C50.9131 126.778 53.9987 123.667 57.8557 123.667Z" fill="#A59BCE"/>
<path d="M13.8853 70V102.667C13.8853 105.292 15.9102 107.334 18.5137 107.334C21.1172 107.334 23.1422 105.292 23.1422 102.667V86.3334" fill="#A59BCE"/>
<path d="M13.8855 123.667H23.1422C26.9992 123.667 30.0848 126.778 30.0848 130.667C30.0848 134.556 26.9992 137.667 23.1422 137.667H13.8855C10.0285 137.667 6.94287 134.556 6.94287 130.667C6.94287 126.778 10.0285 123.667 13.8855 123.667Z" fill="#A59BCE"/>
<path d="M96.7143 18.3751C99.8964 21.5834 102.789 25.0834 105.103 28.9723C100.475 21.389 94.0144 14.9724 86.4932 10.403C87.9396 14.6807 89.0002 19.0557 89.5788 23.5279L96.7143 18.3751Z" fill="#8F85BA"/>
<path d="M108.767 58.3333L87.9394 79.3332H71.74C68.2686 83.0276 64.4116 86.3331 60.1689 89.0553V102.666L44.6445 96.7359C37.7018 99.0692 30.4699 100.333 23.1416 100.333C22.4667 100.333 21.7917 100.333 21.1167 100.236C44.0659 120.75 79.1647 118.514 99.5104 95.3747C108.478 85.1665 113.492 71.9443 113.492 58.2361H108.767V58.3333Z" fill="#8F85BA"/>
<path d="M60.169 102.666V89.0558C55.3478 92.264 50.1408 94.8889 44.6445 96.7361L60.169 102.666Z" fill="#87C2B1"/>
<path d="M89.5794 23.4305C89.9651 26.4444 90.2544 29.5555 90.2544 32.6666C90.2544 50.0694 83.601 66.7916 71.7407 79.3333H87.9402L108.768 58.3333H113.396C113.396 57.3611 113.396 56.3889 113.3 55.4166C113.3 55.125 113.3 54.8333 113.204 54.6389C113.204 53.9583 113.107 53.2777 113.011 52.5972C113.011 52.3055 112.914 52.0139 112.914 51.7222C112.818 51.0416 112.721 50.3611 112.625 49.6805C112.625 49.3888 112.529 49.1944 112.529 48.9027C112.432 48.2222 112.336 47.5416 112.143 46.8611C112.047 46.6666 112.047 46.375 111.95 46.1805C111.757 45.5 111.661 44.8194 111.468 44.1388C111.468 43.9444 111.372 43.75 111.275 43.5555C111.082 42.875 110.889 42.0972 110.697 41.4166C110.697 41.3194 110.6 41.125 110.6 41.0277C110.407 40.25 110.118 39.5694 109.829 38.7916C109.829 38.6944 109.732 38.5972 109.732 38.4999C109.443 37.7222 109.154 36.9444 108.864 36.2638C108.864 36.1666 108.768 36.0694 108.768 35.9722C108.479 35.1944 108.093 34.4166 107.707 33.7361L107.611 33.6388C107.225 32.8611 106.84 32.0833 106.454 31.3055V31.2083C106.068 30.4305 105.586 29.6527 105.104 28.8749C102.693 24.9861 99.8969 21.486 96.7149 18.2777L89.5794 23.4305Z" fill="#87C2B1"/>
<path d="M69.4263 88.6664V123.666C69.4263 126.291 71.4512 128.333 74.0547 128.333C76.6582 128.333 78.6831 126.291 78.6831 123.666V102.666C78.6831 100.041 80.708 97.9996 83.3115 97.9996C85.915 97.9996 87.9399 100.041 87.9399 102.666V109.666C87.9399 112.291 89.9649 114.333 92.5683 114.333C95.1718 114.333 97.1968 112.291 97.1968 109.666V81.6665" fill="#8F85BA"/>
<path d="M74.0539 130.667C70.1969 130.667 67.1113 127.555 67.1113 123.667V88.6667C67.1113 87.4028 68.172 86.3334 69.4255 86.3334C70.6791 86.3334 71.7397 87.4028 71.7397 88.6667V123.667C71.7397 124.93 72.8004 126 74.0539 126C75.3075 126 76.3681 124.93 76.3681 123.667V102.667C76.3681 98.7778 79.4537 95.6667 83.3108 95.6667C87.1678 95.6667 90.2534 98.7778 90.2534 102.667V109.667C90.2534 110.931 91.314 112 92.5676 112C93.8211 112 94.8818 110.931 94.8818 109.667V81.6667C94.8818 80.4028 95.9424 79.3334 97.196 79.3334C98.4495 79.3334 99.5102 80.4028 99.5102 81.6667V109.667C99.5102 113.556 96.4246 116.667 92.5676 116.667C88.7106 116.667 85.625 113.556 85.625 109.667V102.667C85.625 101.403 84.5643 100.333 83.3108 100.333C82.0572 100.333 80.9965 101.403 80.9965 102.667V123.667C80.9965 127.555 77.9109 130.667 74.0539 130.667Z" fill="#7E6EAD"/>
<path d="M18.5134 109.668C14.6564 109.668 11.5708 106.556 11.5708 102.668V70.001C11.5708 68.7372 12.6315 67.6677 13.885 67.6677C15.1385 67.6677 16.1992 68.7372 16.1992 70.001V102.668C16.1992 103.931 17.2599 105.001 18.5134 105.001C19.767 105.001 20.8276 103.931 20.8276 102.668V86.3343C20.8276 85.0704 21.8883 84.001 23.1418 84.001C24.3954 84.001 25.4561 85.0704 25.4561 86.3343V102.668C25.4561 106.556 22.3704 109.668 18.5134 109.668Z" fill="#7E6EAD"/>
<path d="M71.7397 25.6668V16.3334C71.7397 15.7501 71.4504 15.1667 71.0647 14.6806L66.4363 10.0139C66.0506 9.52782 65.3756 9.33337 64.7971 9.33337H50.9117C50.3332 9.33337 49.7546 9.62504 49.2725 10.0139L44.644 14.6806C43.7762 15.5556 43.7762 17.1112 44.644 17.9862C44.7405 18.0834 44.7405 18.0834 44.8369 18.1807L56.408 27.514C56.7937 27.8057 57.3723 28.0002 57.8544 28.0002H69.4255C70.679 28.0002 71.7397 26.9307 71.7397 25.6668ZM67.1113 23.3335H58.6258L49.7546 16.139L51.876 14.0001H63.8328L67.1113 17.3056V23.3335Z" fill="#7E6EAD"/>
<path d="M57.855 126H62.4834V121.333H57.855C52.7444 121.333 48.5981 125.514 48.5981 130.667C48.5981 135.819 52.7444 140 57.855 140H99.5108C104.621 140 108.768 135.819 108.768 130.667C108.768 125.514 104.621 121.333 99.5108 121.333H85.6256V126H99.5108C102.114 126 104.139 128.042 104.139 130.667C104.139 133.292 102.114 135.333 99.5108 135.333H57.855C55.2515 135.333 53.2266 133.292 53.2266 130.667C53.2266 128.042 55.2515 126 57.855 126Z" fill="#7E6EAD"/>
<path d="M23.1406 140C28.2512 140 32.3975 135.819 32.3975 130.667C32.3975 125.514 28.2512 121.333 23.1406 121.333H13.8838C8.77325 121.333 4.62695 125.514 4.62695 130.667C4.62695 135.819 8.77325 140 13.8838 140H23.1406ZM9.25537 130.667C9.25537 128.042 11.2803 126 13.8838 126H23.1406C25.7441 126 27.769 128.042 27.769 130.667C27.769 133.292 25.7441 135.333 23.1406 135.333H13.8838C11.2803 135.333 9.25537 133.292 9.25537 130.667Z" fill="#7E6EAD"/>
<path d="M57.8551 0C25.9384 0 0 26.1528 0 58.3333C0 70.9722 4.04986 83.2222 11.571 93.3333V105C11.571 108.889 14.7531 112 18.5136 112C21.7921 112 24.492 109.764 25.2634 106.556C34.9059 113.167 46.1877 116.667 57.8551 116.667C60.9408 116.667 64.0264 116.375 67.112 115.889V123.667C67.112 127.556 70.1976 130.667 74.0546 130.667C77.9116 130.667 80.9972 127.556 80.9972 123.667V111.708C82.54 111.028 84.0828 110.25 85.6256 109.472V109.667C85.6256 113.556 88.7112 116.667 92.5682 116.667C96.4252 116.667 99.5108 113.556 99.5108 109.667V98.7777C121.689 75.5416 121.014 38.6944 97.968 16.3333C87.2648 5.83333 72.8011 0 57.8551 0ZM110.985 56H108.768C108.189 56 107.611 56.2916 107.128 56.6805L86.9756 77H71.7404V52.5972L84.5649 43.9444C85.2399 43.5555 85.6256 42.7778 85.6256 42V29.1667L96.4252 21.3889C105.296 30.8194 110.503 43.0694 110.985 56ZM30.0847 12.5417V39.6667C30.0847 40.9305 31.1454 42 32.3989 42H43.9699C45.2234 42 46.2841 40.9305 46.2841 39.6667V33.0555L57.8551 43.0694V51.3333H41.6557C41.0772 51.3333 40.4986 51.625 40.0165 52.0139L30.7597 61.3472C30.2775 61.7361 30.0847 62.4166 30.0847 63V66.6944L23.1421 59.6944V49C23.1421 47.7361 22.0814 46.6666 20.8279 46.6666H5.88194C9.06397 32.4722 17.7422 20.2222 30.0847 12.5417ZM42.2343 84.0972L34.7131 82.1527V74.6666H57.8551V99.2638L43.9699 94.0138V86.3333C43.9699 85.2639 43.1985 84.2916 42.2343 84.0972ZM80.9972 106.556V102.667C80.9972 101.403 82.0579 100.333 83.3114 100.333C84.5649 100.333 85.6256 101.403 85.6256 102.667V104.028C84.0828 105 82.54 105.875 80.9972 106.556ZM94.8824 81.6666V109.667C94.8824 110.931 93.8218 112 92.5682 112C91.3147 112 90.254 110.931 90.254 109.667V102.667C90.254 98.7777 87.1684 95.6666 83.3114 95.6666C79.4544 95.6666 76.3688 98.7777 76.3688 102.667V123.667C76.3688 124.931 75.3081 126 74.0546 126C72.8011 126 71.7404 124.931 71.7404 123.667V88.6666H67.112V111.125C64.0264 111.708 60.9408 112 57.8551 112C46.0913 112 34.7131 108.014 25.4563 100.819V88.6666H20.8279V105C20.8279 106.264 19.7672 107.333 18.5136 107.333C17.2601 107.333 16.1994 106.264 16.1994 105V72.3333H11.571V84.7777C7.03904 76.7083 4.62841 67.5694 4.62841 58.3333C4.62841 56 4.82126 53.6666 5.11054 51.3333H18.5136V60.6666C18.5136 61.25 18.8029 61.8333 19.1886 62.3194L30.0847 73.3055V84C30.0847 85.0694 30.8561 86.0416 31.8203 86.2361L39.3415 88.0833V95.5694C39.3415 96.5416 39.9201 97.4166 40.8843 97.7083L59.3979 104.708C59.6872 104.806 59.9765 104.903 60.1694 104.903C61.4229 104.903 62.4836 103.833 62.4836 102.569V72.3333C62.4836 71.0694 61.4229 70 60.1694 70H34.7131V63.9722L42.62 56H60.1694C61.4229 56 62.4836 54.9305 62.4836 53.6666V42C62.4836 41.3194 62.1943 40.6389 61.7122 40.25L45.5127 26.25C44.5485 25.375 43.1021 25.5694 42.2343 26.5417C41.8486 26.9305 41.6557 27.5139 41.6557 28.0972V37.4305H34.7131V10.0139C53.9981 0.583333 77.0438 3.79167 93.0504 18.0833L81.9615 26.0555C81.3829 26.5417 80.9972 27.2222 80.9972 28V40.7361L68.1726 49.3889C67.4977 49.7778 67.112 50.5555 67.112 51.3333V79.3333C67.112 80.5972 68.1727 81.6666 69.4262 81.6666H87.9398C88.5184 81.6666 89.0969 81.375 89.5791 80.9861L109.732 60.6666H110.985C110.503 71.9444 106.55 82.8333 99.5108 91.6805V81.6666H94.8824Z" fill="#7E6EAD"/>
</svg>
