<svg xmlns="http://www.w3.org/2000/svg" xmlns:xlink="http://www.w3.org/1999/xlink" width="58" height="58" viewBox="0 0 58 58">
    <defs>
        <path id="v833c7jnsa" d="M0 0L57.87 0 57.87 57.87 0 57.87z"/>
    </defs>
    <g fill="none" fill-rule="evenodd">
        <g>
            <g>
                <g transform="translate(-150 -1298) translate(150 1084) translate(0 214)">
                    <mask id="2lundzmh7b" fill="#fff">
                        <use xlink:href="#v833c7jnsa"/>
                    </mask>
                    <path fill="#DADADA" d="M12.253 29.616v-3.06H7.495v4.758h3.06v2.049H6.47c-.565 0-1.024-.459-1.024-1.024V25.53c0-.566.459-1.024 1.024-1.024h6.808c.566 0 1.024.458 1.024 1.024v4.085h-2.049zm21.11 9.53v9.53h-2.049V40.17h-4.758v10.205h3.06v2.049H25.53c-.566 0-1.024-.459-1.024-1.025V39.146c0-.566.458-1.024 1.024-1.024h6.808c.565 0 1.024.458 1.024 1.024zm0-38.121v2.722h-2.049V2.05h-4.758v3.397h3.06v2.049H25.53c-.566 0-1.024-.459-1.024-1.025V1.025C24.507.459 24.965 0 25.53 0h6.808c.565 0 1.024.459 1.024 1.025zm0 12.253v16.338h-2.049V14.302h-4.758v11.23c0 .565-.46 1.024-1.025 1.024h-5.783v4.758h9.868v2.049H18.724c-.566 0-1.025-.459-1.025-1.024V25.53c0-.566.459-1.024 1.025-1.024h5.783v-11.23c0-.565.458-1.024 1.024-1.024h6.808c.565 0 1.024.459 1.024 1.025zm4.758 19.06v-6.807c0-.566.46-1.024 1.025-1.024h12.253c.566 0 1.025.458 1.025 1.024v4.085h-2.049v-3.06H40.17v4.758h8.506v2.049h-9.53c-.566 0-1.025-.459-1.025-1.024zm7.495 18.148h4.759v-4.87h-4.759v4.87zm-1.024 2.05h6.807c.566 0 1.025-.46 1.025-1.025v-6.92c0-.565-.459-1.024-1.025-1.024h-6.807c-.566 0-1.025.46-1.025 1.025v6.919c0 .566.459 1.024 1.025 1.024zM40.17 55.82h15.65V40.17H40.17v15.65zm16.675-17.7h-17.7c-.565 0-1.024.46-1.024 1.025v17.7c0 .565.46 1.024 1.025 1.024h17.7c.565 0 1.024-.46 1.024-1.025V39.146c0-.566-.459-1.024-1.025-1.024zM7.495 50.487h4.758v-4.87H7.495v4.87zm-1.025 2.05h6.808c.566 0 1.024-.46 1.024-1.025v-6.92c0-.565-.458-1.024-1.024-1.024H6.47c-.565 0-1.024.46-1.024 1.025v6.919c0 .566.459 1.024 1.024 1.024zM2.05 55.82h15.65V40.17H2.05v15.65zm16.675-17.7h-17.7c-.565 0-1.024.46-1.024 1.025v17.7c0 .565.459 1.024 1.024 1.024h17.7c.566 0 1.024-.46 1.024-1.025V39.146c0-.566-.458-1.024-1.024-1.024zm26.892-25.868h4.759V7.495h-4.759v4.758zm-1.024 2.05h6.807c.566 0 1.025-.46 1.025-1.025V6.47c0-.565-.459-1.024-1.025-1.024h-6.807c-.566 0-1.025.459-1.025 1.024v6.808c0 .566.459 1.024 1.025 1.024zm-4.422 3.396h15.65V2.05H40.17v15.65zM56.845 0h-17.7c-.565 0-1.024.459-1.024 1.025v17.699c0 .565.46 1.024 1.025 1.024h17.7c.565 0 1.024-.459 1.024-1.024v-17.7C57.87.46 57.41 0 56.845 0zM7.495 12.253h4.758V7.495H7.495v4.758zm5.783-6.807H6.47c-.565 0-1.024.459-1.024 1.024v6.808c0 .566.459 1.024 1.024 1.024h6.808c.566 0 1.024-.458 1.024-1.024V6.47c0-.565-.458-1.024-1.024-1.024zM2.048 17.699H17.7V2.05H2.05v15.65zm-1.024 2.05h17.7c.566 0 1.024-.46 1.024-1.025v-17.7C19.748.46 19.29 0 18.724 0h-17.7C.46 0 0 .46 0 1.025v17.699c0 .565.459 1.024 1.024 1.024z" mask="url(#2lundzmh7b)"/>
                </g>
            </g>
        </g>
    </g>
</svg>
