<svg xmlns="http://www.w3.org/2000/svg" width="35" height="60" viewBox="0 0 35 60">
    <g fill="none" fill-rule="evenodd">
        <g fill="#002554">
            <g>
                <g>
                    <path d="M16.472 36.335h1.715v-5.068h-1.715v5.068zm3.391-6.745h5.069v-1.714h-5.069v1.714zm-3.39-1.714l-.001-2.944h1.715v4.658H12.26v-1.714h4.211zM5.925 29.59h3.8v-1.714h-3.8v1.714zm10.546-7.192h1.715v-5.069h-1.715v5.069zm5.516 15.614h4.62v-4.62h-4.62v4.62zm-1.715 1.715h8.05v-8.05h-8.05v8.05zM8.05 38.012h4.62v-4.62H8.05v4.62zm-1.715 1.715h8.05v-8.05h-8.05v8.05zm15.653-15.653h4.62v-4.62h-4.62v4.62zm-1.715 1.715h8.05v-8.05h-8.05v8.05zM8.05 24.074h4.62v-4.62H8.05v4.62zM6.335 25.79h8.05v-8.05h-8.05v8.05zm8.46 29.143h5.068v-1.715h-5.068v1.715zM30 58.285H4.659c-1.624 0-2.944-1.32-2.944-2.944v-4.21h31.229v4.21c0 1.624-1.32 2.944-2.944 2.944zm-28.285-8.87h31.229V9.318H1.714v40.099zm2.944-47.7h25.34c1.624 0 2.945 1.32 2.945 2.944v2.943H1.714V4.66c0-1.624 1.321-2.944 2.945-2.944zM29.999 0H4.66C2.089 0 0 2.09 0 4.659V55.34C0 57.911 2.09 60 4.659 60h25.34c2.57 0 4.66-2.09 4.66-4.659V4.66c0-2.57-2.09-4.659-4.66-4.659z" transform="translate(-369 -1296) translate(150 1084) translate(219 212)"/>
                </g>
            </g>
        </g>
    </g>
</svg>
