<svg xmlns="http://www.w3.org/2000/svg" xmlns:xlink="http://www.w3.org/1999/xlink" width="35" height="60" viewBox="0 0 35 60">
    <defs>
        <path id="vpixl04kna" d="M0 0L34.65 0 34.65 59.985 0 59.985z"/>
    </defs>
    <g fill="none" fill-rule="evenodd">
        <g>
            <g>
                <g>
                    <g transform="translate(-588 -1296) translate(150 1084) translate(438 212)">
                        <mask id="net07gkgeb" fill="#fff">
                            <use xlink:href="#vpixl04kna"/>
                        </mask>
                        <path fill="#DADADA" d="M10.955 23.392c0-2.785 2.266-5.05 5.051-5.05h.901v-3.02c0-.474.384-.857.857-.857.474 0 .857.383.857.857v3.02h.9c2.786 0 5.052 2.265 5.052 5.05 0 .474-.384.857-.857.857-.474 0-.858-.383-.858-.857 0-1.84-1.496-3.336-3.336-3.336h-3.516c-1.84 0-3.336 1.497-3.336 3.336 0 1.84 1.496 3.337 3.336 3.337h3.516c2.785 0 5.05 2.265 5.05 5.05 0 2.785-2.265 5.051-5.05 5.051h-.9v3.02c0 .474-.384.857-.858.857-.473 0-.857-.383-.857-.857v-3.02h-.9c-2.786 0-5.052-2.266-5.052-5.05 0-.474.384-.858.857-.858.474 0 .858.384.858.858 0 1.84 1.496 3.336 3.336 3.336h3.516c1.84 0 3.336-1.497 3.336-3.336 0-1.84-1.496-3.337-3.336-3.337h-3.516c-2.785 0-5.05-2.266-5.05-5.05zm3.836 31.526h5.067v-1.715h-5.067v1.715zm15.201 3.352H4.657c-1.622 0-2.943-1.32-2.943-2.943v-4.21h31.221v4.21c0 1.623-1.32 2.943-2.943 2.943zM1.714 49.403h31.221V9.315H1.715v40.088zM4.657 1.714h25.335c1.623 0 2.943 1.32 2.943 2.943V7.6H1.715V4.657c0-1.622 1.32-2.943 2.942-2.943zM29.992 0H4.657C2.09 0 0 2.09 0 4.657v50.67c0 2.568 2.09 4.658 4.657 4.658h25.335c2.568 0 4.658-2.09 4.658-4.658V4.657C34.65 2.09 32.56 0 29.992 0z" mask="url(#net07gkgeb)"/>
                    </g>
                </g>
            </g>
        </g>
    </g>
</svg>
