<svg xmlns="http://www.w3.org/2000/svg" xmlns:xlink="http://www.w3.org/1999/xlink" width="57" height="58" viewBox="0 0 57 58">
    <defs>
        <path id="rztti49via" d="M0 0L56.906 0 56.906 57.884 0 57.884z"/>
    </defs>
    <g fill="none" fill-rule="evenodd">
        <g>
            <g>
                <g transform="translate(-807 -1298) translate(150 1084) translate(657 214)">
                    <mask id="eak65ftoeb" fill="#fff">
                        <use xlink:href="#rztti49via"/>
                    </mask>
                    <path fill="#DADADA" d="M2.225 45.938h6.143c.307 0 .602-.121.82-.339l2.922-2.923h6.176l6.806 6.806c.217.217.511.339.819.339h2.671c.308 0 .602-.122.819-.34l10.163-10.163h4.716l2.781 2.78c.217.217.511.34.819.34h7.868c.64 0 1.158-.519 1.158-1.158 0-.64-.518-1.158-1.158-1.158H48.36l-2.781-2.78c-.217-.217-.511-.34-.818-.34h-5.675c-.307 0-.601.123-.818.34L28.103 47.505H26.39L19.584 40.7c-.217-.217-.511-.34-.819-.34h-7.134c-.308 0-.602.123-.819.34L7.89 43.623H2.225c-.64 0-1.158.518-1.158 1.158 0 .64.519 1.157 1.158 1.157m53.523 9.63h-3.03v-9.56c0-.64-.518-1.158-1.158-1.158-.64 0-1.158.518-1.158 1.158v9.56h-6.876V42.793c0-.64-.518-1.157-1.158-1.157-.64 0-1.157.517-1.157 1.157V55.57h-6.875v-5.713c0-.64-.518-1.158-1.158-1.158-.64 0-1.158.518-1.158 1.158v5.713h-6.876v-3.042c0-.64-.518-1.157-1.157-1.157-.64 0-1.158.518-1.158 1.157v3.042h-6.876v-9.672c0-.64-.518-1.158-1.158-1.158-.64 0-1.158.518-1.158 1.158v9.672H6.762v-6.157c0-.64-.519-1.158-1.158-1.158-.64 0-1.157.518-1.157 1.158v6.157h-3.29c-.639 0-1.157.518-1.157 1.157 0 .64.518 1.158 1.157 1.158H55.748c.64 0 1.158-.518 1.158-1.158 0-.64-.518-1.157-1.158-1.157M4.447 40.149V22.653c0-.64.518-1.158 1.157-1.158h9.191c.64 0 1.158.518 1.158 1.158v6.287h6.876V10.324c0-.64.518-1.158 1.158-1.158h9.19c.641 0 1.159.519 1.159 1.158v14.544h6.875V1.158c0-.64.518-1.158 1.157-1.158h9.192c.64 0 1.157.518 1.157 1.158v35.17c0 .64-.517 1.159-1.157 1.159s-1.158-.518-1.158-1.158V2.315h-6.876V33.531c0 .64-.518 1.157-1.158 1.157-.64 0-1.157-.518-1.157-1.157v-6.347h-6.875v11.095c0 .64-.518 1.158-1.158 1.158-.64 0-1.158-.518-1.158-1.158V11.482h-6.876V40.95c0 .64-.518 1.158-1.157 1.158-.64 0-1.158-.517-1.158-1.158v-9.695h-6.876v5.38c0 .64-.518 1.158-1.158 1.158-.64 0-1.158-.518-1.158-1.158V23.81H6.762v16.34c0 .64-.519 1.158-1.158 1.158-.64 0-1.157-.518-1.157-1.158" mask="url(#eak65ftoeb)"/>
                </g>
            </g>
        </g>
    </g>
</svg>
