<svg xmlns="http://www.w3.org/2000/svg" width="35" height="60" viewBox="0 0 35 60">
    <g fill="none" fill-rule="evenodd">
        <g fill="#002554">
            <g>
                <g>
                    <path d="M127.485 56.34h1.669v-5.072h-1.67v5.072zm3.37-6.774h5.073v-1.668h-5.073v1.668zm-3.37-1.668v-2.97h1.669v4.638h-5.907v-1.668h4.238zm-10.579 1.668h3.805v-1.668h-3.805v1.668zm10.579-7.174h1.669v-5.073h-1.67v5.073zm5.473 15.65h4.672V53.37h-4.672v4.672zm-1.669 1.669h8.01V51.7h-8.01v8.01zm-12.28-1.669h4.672V53.37h-4.672v4.672zm-1.669 1.669h8.01V51.7h-8.01v8.01zm15.618-15.618h4.672v-4.671h-4.672v4.671zm-1.669 1.67h8.01v-8.01h-8.01v8.01zm-12.28-1.67h4.672v-4.671h-4.672v4.671zm-1.669 1.67h8.01v-8.01h-8.01v8.01zm8.443 29.165h5.072v-1.67h-5.072v1.67zM141 78.33h-25.362c-1.637 0-2.97-1.332-2.97-2.97v-4.237h31.302v4.237c0 1.638-1.332 2.97-2.97 2.97zm-28.331-8.876h31.3V29.277h-31.3v40.178zm2.97-47.786h25.36c1.639 0 2.97 1.332 2.97 2.97v2.97h-31.3v-2.97c0-1.638 1.332-2.97 2.97-2.97zM140.998 20h-25.36C113.08 20 111 22.08 111 24.639V75.36c0 2.558 2.08 4.639 4.638 4.639H141c2.558 0 4.639-2.08 4.639-4.639V24.64c0-2.558-2.081-4.639-4.64-4.639z" transform="translate(-276 -818) translate(0 722) translate(165 76)"/>
                </g>
            </g>
        </g>
    </g>
</svg>
