<svg xmlns="http://www.w3.org/2000/svg" xmlns:xlink="http://www.w3.org/1999/xlink" width="58" height="58" viewBox="0 0 58 58">
    <defs>
        <path id="g6iiqnrxwa" d="M0 0L57.029 0 57.029 57.95 0 57.95z"/>
    </defs>
    <g fill="none" fill-rule="evenodd">
        <g>
            <g>
                <g transform="translate(-1077 -1298) translate(150 1085) translate(927 213)">
                    <mask id="6rkaryzghb" fill="#fff">
                        <use xlink:href="#g6iiqnrxwa"/>
                    </mask>
                    <path fill="#DADADA" d="M52.35 55.153l-8.822-8.823 1.88-1.88 8.823 8.823-1.88 1.88zM36.495 40.98c-1.77.925-3.804 1.185-5.747.719-.53-.118-1.068-.305-1.621-.565-.872-.39-1.672-.945-2.377-1.65-.58-.58-1.057-1.219-1.425-1.915-.302-.553-.537-1.135-.702-1.743-.426-1.5-.419-3.08.023-4.58.168-.588.395-1.14.686-1.664.358-.676.837-1.322 1.412-1.907.71-.7 1.515-1.258 2.416-1.672.296-.144.635-.275 1.03-.399.455-.14.93-.244 1.42-.306.125-.016.25-.029.373-.04l.119-.01c.113-.008.226-.014.34-.018l.133-.002h.24c.052 0 .103.001.154.003.115.004.23.01.345.02.042.002.084.007.126.01.09.01.18.019.269.03l.12.016c.123.018.246.038.369.061l.056.012c.112.022.224.047.335.074l.086.02c.128.033.256.068.384.107.503.159.987.358 1.46.603.72.356 1.405.856 2.035 1.485 3.257 3.257 3.257 8.558 0 11.815-.63.629-1.314 1.13-2.059 1.496zm-13.346-.085h-3.222v-15.76h3.222v3.614l-.065.136c-.031.062-.062.125-.091.189-.047.1-.091.2-.135.302-.028.065-.056.13-.082.195-.047.115-.09.232-.132.349-.02.052-.04.104-.058.157-.06.173-.116.35-.167.528-.386 1.312-.51 2.679-.376 4.024v.001c.01.099.023.197.036.296l.008.071c.01.077.023.152.035.229l.021.137.035.183c.012.06.022.12.035.18.018.086.038.172.058.258.009.034.015.069.024.103.03.12.061.24.095.36.049.18.104.359.163.537.022.065.047.13.07.194.04.111.079.222.122.332.032.08.066.158.099.237l.121.278c.039.084.079.167.12.25l.064.136v2.484zm7.857-23.849h3.233v5.978l-.107-.015-.084-.01c-.16-.022-.322-.04-.484-.054l-.027-.003c-.166-.013-.333-.022-.5-.027l-.11-.003c-.159-.004-.318-.004-.477 0h-.025c-.165.004-.33.013-.495.026-.04.002-.08.006-.12.01-.166.013-.331.03-.497.052-.103.013-.205.027-.307.043v-5.997zM56.69 52.454L46.227 41.991c-.434-.434-1.204-.434-1.638 0l-.94.941-2.68-2.678c3.364-4.187 3.106-10.34-.776-14.224-.81-.809-1.7-1.456-2.626-1.912-.325-.169-.663-.321-1.01-.46v-7.77c0-.641-.52-1.16-1.159-1.16h-5.55c-.64 0-1.16.519-1.16 1.16v7.793c-.183.074-.357.15-.517.226-.978.45-1.883 1.047-2.704 1.788v-1.72c0-.64-.519-1.158-1.159-1.158h-5.54c-.64 0-1.158.518-1.158 1.158v18.079c0 .64.519 1.159 1.159 1.159h5.54c.64 0 1.158-.519 1.158-1.16v-.59c.817.746 1.726 1.345 2.693 1.777.686.324 1.388.567 2.067.717.804.193 1.622.287 2.437.287 1.69 0 3.368-.407 4.881-1.198.624-.307 1.221-.694 1.788-1.152l2.677 2.677-.94.94c-.453.453-.453 1.186 0 1.639L51.53 57.61c.226.226.523.34.82.34.296 0 .592-.114.819-.34l3.52-3.519c.216-.217.339-.511.339-.819 0-.308-.123-.602-.34-.819zM8.835 40.89h3.226v-7.67H8.835v7.67zm-1.159-9.988c-.64 0-1.159.519-1.159 1.16v9.987c0 .64.52 1.159 1.16 1.159h5.543c.64 0 1.16-.518 1.16-1.159v-9.988c0-.64-.52-1.159-1.16-1.159H7.676zm7.2-16.026H3.956l.116-.116L14.876 3.956v10.92zm23.24 40.748H2.317v-38.43h13.717c.64 0 1.159-.519 1.159-1.16V2.317h23.561v12.538c0 .64.52 1.16 1.16 1.16.64 0 1.158-.52 1.158-1.16V1.16C43.073.518 42.554 0 41.914 0h-25.88l-.023.001c-.023 0-.046.002-.068.004-.03.002-.06.006-.091.01l-.078.016c-.033.008-.067.017-.1.027l-.053.02c-.037.014-.074.03-.11.048l-.024.012c-.043.023-.084.05-.124.078l-.029.021c-.041.032-.081.065-.119.102L.34 15.215c-.037.037-.07.076-.101.117l-.023.03c-.03.042-.056.084-.08.128l-.003.007c-.023.043-.041.087-.058.132l-.013.034c-.032.095-.051.193-.058.295l-.002.036-.002.04v40.748c0 .64.519 1.16 1.159 1.16h36.956c.64 0 1.159-.52 1.159-1.16 0-.64-.519-1.158-1.159-1.158z" mask="url(#6rkaryzghb)"/>
                </g>
            </g>
        </g>
    </g>
</svg>
