<svg xmlns="http://www.w3.org/2000/svg" xmlns:xlink="http://www.w3.org/1999/xlink" width="42" height="60" viewBox="0 0 42 60">
    <defs>
        <path id="u2z7tez83a" d="M0 0L41.731 0 41.731 59.927 0 59.927z"/>
    </defs>
    <g fill="none" fill-rule="evenodd">
        <g>
            <g>
                <g>
                    <g>
                        <g transform="translate(-1127 -817) translate(0 722) translate(165 76) translate(855) translate(107 19)">
                            <mask id="f5j78p56eb" fill="#fff">
                                <use xlink:href="#u2z7tez83a"/>
                            </mask>
                            <path fill="#002554" d="M30.215 32.32c0 .58.472 1.052 1.053 1.052.58 0 1.053-.472 1.053-1.053 0-.58-.473-1.053-1.053-1.053s-1.053.473-1.053 1.053zm-1.667 0c0-1.5 1.22-2.72 2.72-2.72 1.5 0 2.72 1.22 2.72 2.72 0 1.499-1.22 2.719-2.72 2.719-1.5 0-2.72-1.22-2.72-2.72zm-9.69-4.129c0 1.817 1.478 3.295 3.295 3.295 1.529 0 2.818-1.047 3.188-2.461h-3.188c-.46 0-.833-.373-.833-.834 0-.46.373-.833.833-.833h3.188c-.37-1.414-1.659-2.461-3.188-2.461-1.817 0-3.294 1.478-3.294 3.294zm-1.666 0c0-2.735 2.225-4.961 4.961-4.961s4.961 2.226 4.961 4.961c0 2.736-2.225 4.962-4.96 4.962-2.737 0-4.962-2.226-4.962-4.962zm20.673 7.57c.46 0 .833-.373.833-.833V21.455c0-.46-.373-.833-.833-.833-.46 0-.833.373-.833.833v13.473c0 .46.373.833.833.833zm0 2.94H34.35c-.46 0-.833.373-.833.833 0 .46.373.833.833.833h3.515c.46 0 .833-.373.833-.833 0-.46-.373-.833-.833-.833zm-17.07 1.666c.46 0 .833-.373.833-.833 0-.46-.374-.833-.834-.833H17.28c-.46 0-.833.373-.833.833 0 .46.373.833.833.833h3.515zm-5.715-3.776h24.984V19.792H15.08v16.799zm26.651-17.632v18.465c0 .46-.373.833-.833.833H14.247c-.46 0-.834-.373-.834-.833V18.959c0-.46.374-.833.834-.833h26.65c.461 0 .834.373.834.833zM14.497 5.5c.46 0 .833-.373.833-.833 0-.46-.373-.834-.833-.834h-.25c-.46 0-.834.374-.834.834 0 .46.374.833.834.833h.25zm7.553-.05c.46 0 .834-.373.834-.833 0-.46-.374-.834-.834-.834h-4.702c-.46 0-.833.374-.833.834 0 .46.373.833.833.833h4.702zM18.1 51.797c-.929 0-1.684.755-1.684 1.683s.755 1.683 1.683 1.683 1.683-.755 1.683-1.683-.755-1.683-1.683-1.683zm0-1.666c1.846 0 3.349 1.502 3.349 3.35 0 1.846-1.503 3.349-3.35 3.349-1.847 0-3.35-1.503-3.35-3.35 0-1.847 1.503-3.35 3.35-3.35zm13.378-32.647c.46 0 .833-.373.833-.833V8.769c0-.46-.373-.833-.833-.833H4.334c-.46 0-.834.373-.834.833v38.904c0 .46.373.834.834.834h27.144c.46 0 .833-.373.833-.834v-5.086c0-.46-.373-.834-.833-.834-.46 0-.833.373-.833.834v4.253H5.167V9.602h25.478v7.049c0 .46.373.833.833.833zm4.334 25.102v16.507c0 .46-.373.834-.834.834H.833c-.46 0-.833-.374-.833-.834V.833C0 .373.373 0 .833 0h34.145c.46 0 .834.373.834.833v15.818c0 .46-.373.833-.834.833-.46 0-.833-.373-.833-.833V1.667H1.667V58.26h32.478V42.586c0-.46.373-.833.833-.833.46 0 .834.373.834.833z" mask="url(#f5j78p56eb)"/>
                        </g>
                    </g>
                </g>
            </g>
        </g>
    </g>
</svg>
